<svg width="817" height="131" viewBox="0 0 817 131" fill="none" xmlns="http://www.w3.org/2000/svg">
<path d="M161.391 71.6394C169.399 63.7929 177.515 54.3877 177.515 42.0805C177.515 34.2409 174.4 26.7225 168.857 21.1791C163.314 15.6357 155.795 12.5215 147.956 12.5215C138.497 12.5215 131.832 15.2087 123.771 23.2702C115.709 15.2087 109.045 12.5215 99.5863 12.5215C91.7468 12.5215 84.2284 15.6357 78.685 21.1791C73.1416 26.7225 70.0273 34.2409 70.0273 42.0805C70.0273 54.4415 78.0889 63.8466 86.1504 71.6394L123.771 109.26L161.391 71.6394Z" fill="#FD2929" stroke="#870D0D" stroke-width="11.802" stroke-linecap="round" stroke-linejoin="round"/>
<path d="M10.1462 50.5184C6.74107 53.9235 4.82812 58.5418 4.82812 63.3573C4.82812 68.1728 6.74107 72.791 10.1462 76.1961L55.0821 121.132C58.4872 124.537 63.1055 126.45 67.921 126.45C72.7365 126.45 77.3547 124.537 80.7598 121.132L128.905 72.9864C131.459 70.4326 132.894 66.9689 132.894 63.3573C132.894 59.7456 131.459 56.2819 128.905 53.7281L120.034 44.8567C120.048 44.605 120.055 44.3524 120.055 44.099C120.055 40.4873 118.62 37.0237 116.066 34.4699L109.647 28.0504C107.093 25.4966 103.63 24.0619 100.018 24.0619C99.7647 24.0619 99.512 24.069 99.2604 24.083L90.389 15.2116C87.8352 12.6578 84.3715 11.2231 80.7598 11.2231C78.7094 11.2231 76.7067 11.6855 74.8911 12.5526L71.1307 8.79218C68.5769 6.23838 65.1132 4.80367 61.5016 9.34287C57.8899 4.80366 54.4262 6.23838 51.8724 8.79218L10.1462 50.5184ZM106.437 63.3573L109.647 60.1475L112.857 63.3573L67.921 108.293L35.8239 76.1961L80.7598 31.2601L83.9695 34.4699L80.7598 37.6796C77.3547 41.0846 75.4417 45.7029 75.4417 50.5184C75.4417 55.3339 77.3547 59.9522 80.7598 63.3573C84.1649 66.7623 88.7832 68.6753 93.5987 68.6753C98.4142 68.6753 103.032 66.7623 106.437 63.3573Z" fill="#4D1957" stroke="white" stroke-width="9.07843" stroke-linecap="round" stroke-linejoin="round"/>
<path d="M123.765 60.466L83.4844 20.1855L26.9614 76.7086L67.2419 116.989L123.765 60.466Z" fill="#E683C7"/>
<path d="M75.6059 25.2856L62.1367 11.8164L11.8773 62.0758L25.3465 75.545L75.6059 25.2856Z" fill="#E683C7"/>
<path fill-rule="evenodd" clip-rule="evenodd" d="M9.36719 63.3571C9.36719 59.7455 10.8019 56.2818 13.3557 53.728L55.0819 12.0018C56.7845 10.2993 59.0936 9.34278 61.5014 9.34277C63.9091 9.34278 66.2182 10.2993 67.9208 12.0018L74.3402 18.4212C76.0427 16.7187 78.3519 15.7622 80.7596 15.7622C83.1674 15.7622 85.4765 16.7187 87.179 18.4212L97.6682 28.9104C98.4281 28.7067 99.2175 28.601 100.018 28.601C102.426 28.601 104.735 29.5575 106.437 31.26L112.857 37.6795C114.559 39.382 115.516 41.6911 115.516 44.0989C115.516 46.5066 114.559 48.8158 112.857 50.5183L103.228 60.1474C100.674 62.7012 97.2101 64.1359 93.5985 64.1359C89.9868 64.1359 86.5231 62.7012 83.9693 60.1474C81.4155 57.5936 79.9808 54.1299 79.9808 50.5183C79.9808 46.9067 81.4155 43.443 83.9693 40.8892L90.3888 34.4698L80.7596 24.8406L32.614 72.9863C30.0602 75.5401 26.5965 76.9748 22.9848 76.9748C19.3732 76.9748 15.9095 75.5401 13.3557 72.9863C10.8019 70.4325 9.36719 66.9688 9.36719 63.3571ZM67.9208 24.8406L61.5014 18.4212L19.7751 60.1474C18.9239 60.9987 18.4456 62.1533 18.4456 63.3571C18.4456 64.561 18.9239 65.7156 19.7751 66.5669C20.6264 67.4181 21.781 67.8964 22.9848 67.8964C24.1887 67.8964 25.3433 67.4181 26.1945 66.5669L47.0577 45.7037L67.9208 24.8406ZM90.3888 47.3086C89.5375 48.1599 89.0592 49.3144 89.0592 50.5183C89.0592 51.7222 89.5375 52.8768 90.3888 53.728C91.24 54.5793 92.3946 55.0575 93.5985 55.0575C94.8023 55.0575 95.9569 54.5793 96.8082 53.728L106.437 44.0989L100.018 37.6795L90.3888 47.3086Z" fill="#4D1957"/>
<path fill-rule="evenodd" clip-rule="evenodd" d="M13.3569 66.5671C15.1296 64.7944 18.0037 64.7944 19.7763 66.5671L64.7123 111.503C65.5635 112.354 66.7181 112.832 67.922 112.832C69.1259 112.832 70.2804 112.354 71.1317 111.503L119.277 63.3573L106.438 50.5185C104.666 48.7458 104.666 45.8718 106.438 44.0991C108.211 42.3264 111.085 42.3264 112.858 44.0991L125.697 56.9379C127.399 58.6405 128.356 60.9496 128.356 63.3573C128.356 65.7651 127.399 68.0742 125.697 69.7768L77.5511 117.922C74.9973 120.476 71.5336 121.911 67.922 121.911C64.3104 121.911 60.8467 120.476 58.2928 117.922L13.3569 72.9865C11.5842 71.2138 11.5842 68.3397 13.3569 66.5671Z" fill="#4D1957"/>
<path d="M782.085 87.782C780.613 88.8702 778.788 89.7023 776.612 90.2784C774.5 90.7905 772.291 91.0466 769.987 91.0466C763.778 91.0466 759.009 89.4783 755.68 86.3418C752.352 83.2052 750.688 78.5964 750.688 72.5153V27.1953H765.666V39.7735H778.436V51.2956H765.666V72.3233C765.666 74.4997 766.21 76.196 767.298 77.4122C768.387 78.5644 769.955 79.1405 772.003 79.1405C774.308 79.1405 776.356 78.5004 778.148 77.2201L782.085 87.782Z" fill="#4D1957"/>
<path d="M737.106 38.6216V90.2788H722.799V84.3257C719.087 88.8065 713.71 91.0469 706.668 91.0469C701.804 91.0469 697.387 89.9587 693.418 87.7823C689.513 85.6059 686.441 82.5014 684.2 78.4687C681.96 74.436 680.84 69.7631 680.84 64.4502C680.84 59.1373 681.96 54.4644 684.2 50.4317C686.441 46.399 689.513 43.2945 693.418 41.1181C697.387 38.9417 701.804 37.8535 706.668 37.8535C713.262 37.8535 718.414 39.9339 722.127 44.0946V38.6216H737.106ZM709.261 78.7567C713.038 78.7567 716.174 77.4765 718.671 74.9161C721.167 72.2916 722.415 68.803 722.415 64.4502C722.415 60.0974 721.167 56.6408 718.671 54.0804C716.174 51.4559 713.038 50.1437 709.261 50.1437C705.42 50.1437 702.252 51.4559 699.755 54.0804C697.259 56.6408 696.011 60.0974 696.011 64.4502C696.011 68.803 697.259 72.2916 699.755 74.9161C702.252 77.4765 705.42 78.7567 709.261 78.7567Z" fill="#4D1957"/>
<path d="M650.131 79.0448C652.819 79.0448 655.188 78.6607 657.236 77.8926C659.348 77.0604 661.301 75.7802 663.093 74.0519L671.062 82.6934C666.198 88.2624 659.092 91.0469 649.747 91.0469C643.922 91.0469 638.769 89.9267 634.288 87.6863C629.807 85.3819 626.351 82.2133 623.918 78.1806C621.486 74.1479 620.27 69.5711 620.27 64.4502C620.27 59.3933 621.454 54.8485 623.822 50.8158C626.255 46.7191 629.551 43.5505 633.712 41.3101C637.937 39.0057 642.673 37.8535 647.922 37.8535C652.851 37.8535 657.332 38.9097 661.365 41.0221C665.397 43.0704 668.598 46.079 670.966 50.0477C673.399 53.9524 674.615 58.5932 674.615 63.9701L636.4 71.3634C637.489 73.9239 639.185 75.8442 641.489 77.1244C643.858 78.4047 646.738 79.0448 650.131 79.0448ZM647.922 49.1835C644.146 49.1835 641.073 50.3997 638.705 52.8322C636.336 55.2646 635.088 58.6252 634.96 62.9139L660.117 58.0171C659.412 55.3286 657.972 53.1842 655.796 51.5839C653.619 49.9837 650.995 49.1835 647.922 49.1835Z" fill="#4D1957"/>
<path d="M588.35 37.8535C593.151 37.8535 597.503 38.9737 601.408 41.2141C605.377 43.3905 608.481 46.495 610.722 50.5277C612.962 54.4964 614.082 59.1373 614.082 64.4502C614.082 69.7631 612.962 74.436 610.722 78.4687C608.481 82.4374 605.377 85.5419 601.408 87.7823C597.503 89.9587 593.151 91.0469 588.35 91.0469C581.245 91.0469 575.836 88.8065 572.123 84.3257V90.2788H557.816V19.0342H572.795V44.0946C576.572 39.9339 581.757 37.8535 588.35 37.8535ZM585.757 78.7567C589.598 78.7567 592.735 77.4765 595.167 74.916C597.663 72.2916 598.912 68.803 598.912 64.4502C598.912 60.0974 597.663 56.6408 595.167 54.0804C592.735 51.4559 589.598 50.1437 585.757 50.1437C581.917 50.1437 578.748 51.4559 576.252 54.0804C573.819 56.6408 572.603 60.0974 572.603 64.4502C572.603 68.803 573.819 72.2916 576.252 74.916C578.748 77.4765 581.917 78.7567 585.757 78.7567Z" fill="#4D1957"/>
<path d="M549.355 87.782C547.882 88.8702 546.058 89.7023 543.882 90.2784C541.769 90.7905 539.561 91.0466 537.256 91.0466C531.047 91.0466 526.278 89.4783 522.95 86.3418C519.621 83.2052 517.957 78.5964 517.957 72.5153V27.1953H532.936V39.7735H545.706V51.2956H532.936V72.3233C532.936 74.4997 533.48 76.196 534.568 77.4122C535.656 78.5644 537.224 79.1405 539.273 79.1405C541.577 79.1405 543.626 78.5004 545.418 77.2201L549.355 87.782Z" fill="#4D1957"/>
<path d="M483.693 79.0448C486.382 79.0448 488.75 78.6607 490.799 77.8926C492.911 77.0604 494.863 75.7802 496.656 74.0519L504.625 82.6934C499.76 88.2624 492.655 91.0469 483.309 91.0469C477.484 91.0469 472.331 89.9267 467.85 87.6863C463.37 85.3819 459.913 82.2133 457.481 78.1806C455.048 74.1479 453.832 69.5711 453.832 64.4502C453.832 59.3933 455.016 54.8485 457.385 50.8158C459.817 46.7191 463.114 43.5505 467.274 41.3101C471.499 39.0057 476.236 37.8535 481.485 37.8535C486.414 37.8535 490.895 38.9097 494.927 41.0221C498.96 43.0704 502.161 46.079 504.529 50.0477C506.961 53.9524 508.178 58.5932 508.178 63.9701L469.963 71.3634C471.051 73.9239 472.747 75.8442 475.052 77.1244C477.42 78.4047 480.301 79.0448 483.693 79.0448ZM481.485 49.1835C477.708 49.1835 474.636 50.3997 472.267 52.8322C469.899 55.2646 468.651 58.6252 468.523 62.9139L493.679 58.0171C492.975 55.3286 491.535 53.1842 489.358 51.5839C487.182 49.9837 484.557 49.1835 481.485 49.1835Z" fill="#4D1957"/>
<path d="M443.48 91.0469C437.655 91.0469 433.111 89.5106 429.846 86.4381C426.582 83.3015 424.949 78.8847 424.949 73.1877V19.0342H439.928V72.3236C439.928 74.5 440.472 76.1963 441.56 77.4125C442.712 78.5647 444.313 79.1408 446.361 79.1408C447.129 79.1408 447.897 79.0448 448.665 78.8527C449.498 78.6607 450.138 78.4367 450.586 78.1806L451.258 89.7987C448.761 90.6308 446.169 91.0469 443.48 91.0469Z" fill="#4D1957"/>
<path d="M409.816 91.0469C403.991 91.0469 399.447 89.5106 396.182 86.4381C392.917 83.3015 391.285 78.8847 391.285 73.1877V19.0342H406.264V72.3236C406.264 74.5 406.808 76.1963 407.896 77.4125C409.048 78.5647 410.649 79.1408 412.697 79.1408C413.465 79.1408 414.233 79.0448 415.001 78.8527C415.833 78.6607 416.474 78.4367 416.922 78.1806L417.594 89.7987C415.097 90.6308 412.505 91.0469 409.816 91.0469Z" fill="#4D1957"/>
<path d="M377.418 38.6216V90.2788H363.112V84.3257C359.399 88.8065 354.022 91.0469 346.981 91.0469C342.116 91.0469 337.699 89.9587 333.731 87.7823C329.826 85.6059 326.753 82.5014 324.513 78.4687C322.273 74.436 321.152 69.7631 321.152 64.4502C321.152 59.1373 322.273 54.4644 324.513 50.4317C326.753 46.399 329.826 43.2945 333.731 41.1181C337.699 38.9417 342.116 37.8535 346.981 37.8535C353.574 37.8535 358.727 39.9339 362.44 44.0946V38.6216H377.418ZM349.573 78.7567C353.35 78.7567 356.487 77.4765 358.983 74.9161C361.479 72.2916 362.728 68.803 362.728 64.4502C362.728 60.0974 361.479 56.6408 358.983 54.0804C356.487 51.4559 353.35 50.1437 349.573 50.1437C345.733 50.1437 342.564 51.4559 340.068 54.0804C337.571 56.6408 336.323 60.0974 336.323 64.4502C336.323 68.803 337.571 72.2916 340.068 74.9161C342.564 77.4765 345.733 78.7567 349.573 78.7567Z" fill="#4D1957"/>
<path d="M310.67 23.0664V62.7214C310.67 72.0671 308.142 79.2043 303.085 84.1332C298.028 88.998 290.859 91.4305 281.577 91.4305C276.968 91.4305 272.84 90.7584 269.191 89.4141C265.606 88.0699 262.662 86.1816 260.357 83.7491C257.989 86.1816 255.013 88.0699 251.428 89.4141C247.843 90.7584 243.779 91.4305 239.234 91.4305C229.952 91.4305 222.783 88.998 217.726 84.1332C212.669 79.2043 210.141 72.0671 210.141 62.7214V23.0664H225.695V62.2413C225.695 67.6823 226.816 71.715 229.056 74.3395C231.296 76.8999 234.625 78.1801 239.042 78.1801C248.067 78.1801 252.58 72.8672 252.58 62.2413V23.0664H268.135V62.2413C268.135 72.8672 272.68 78.1801 281.769 78.1801C290.603 78.1801 295.02 72.8672 295.02 62.2413V23.0664H310.67Z" fill="#4D1957"/>
</svg>
