<?xml version="1.0" encoding="UTF-8"?>
<svg version="1.1" xmlns="http://www.w3.org/2000/svg" width="200" height="200">
<path d="M0 0 C66 0 132 0 200 0 C200 66 200 132 200 200 C134 200 68 200 0 200 C0 134 0 68 0 0 Z " fill="#FEFEFE" transform="translate(0,0)"/>
<path d="M0 0 C13.2 0 26.4 0 40 0 C41.98 3.63 43.96 7.26 46 11 C54.83641678 22.87141707 67.05326326 31.79663067 82 34 C89.98331688 34.70256394 97.99029521 34.86944246 106 35 C106 39.29 106 43.58 106 48 C97.68048667 48.04533795 89.36107077 48.08196598 81.04146671 48.10362434 C77.17758118 48.11402371 73.31378519 48.12811186 69.44995117 48.15087891 C65.71520048 48.17274549 61.98053545 48.1845975 58.24572563 48.18975449 C56.82690522 48.19342561 55.40808904 48.20059382 53.9893055 48.21146011 C43.71390907 48.2869674 34.96934182 47.89397528 25.6875 43.0625 C24.70136719 42.55847656 23.71523437 42.05445313 22.69921875 41.53515625 C20.28186114 40.16030597 18.09597963 38.82713664 16 37 C16 36.34 16 35.68 16 35 C15.41089844 34.75894531 14.82179688 34.51789063 14.21484375 34.26953125 C7.11344931 30.19906706 3.74333564 20.69398217 0.84765625 13.46875 C0 10 0 10 0 0 Z " fill="#3F414A" transform="translate(48,38)"/>
<path d="M0 0 C1.46543947 0.0056076 2.93088464 0.00987218 4.39633179 0.01286316 C8.22027602 0.02422054 12.04386874 0.05360697 15.86767578 0.0869751 C19.78282926 0.11787454 23.69804052 0.1314106 27.61328125 0.14648438 C35.2710108 0.17848742 42.92837976 0.23117848 50.5859375 0.29296875 C50.5859375 4.25296875 50.5859375 8.21296875 50.5859375 12.29296875 C48.10513672 12.42251953 48.10513672 12.42251953 45.57421875 12.5546875 C28.46946345 13.43332965 28.46946345 13.43332965 12.5859375 19.29296875 C11.15121094 20.06833984 11.15121094 20.06833984 9.6875 20.859375 C-1.06002495 27.20483151 -10.38910599 36.21809921 -14.4140625 48.29296875 C-27.9440625 48.29296875 -41.4740625 48.29296875 -55.4140625 48.29296875 C-53.96619062 33.81424998 -50.44960036 22.1456229 -39.484375 11.91796875 C-27.0871842 2.18734352 -15.36907721 -0.17445659 0 0 Z " fill="#3F4149" transform="translate(102.4140625,113.70703125)"/>
<path d="M0 0 C5.45868392 0.12084698 10.91723284 0.24390725 16.37573242 0.37231445 C18.22694084 0.41523124 20.07817797 0.4569298 21.92944336 0.49731445 C24.61320603 0.55608298 27.29682974 0.61945076 29.98046875 0.68359375 C30.78832321 0.70030624 31.59617767 0.71701874 32.42851257 0.73423767 C37.08144732 0.85026445 41.69683702 1.11835308 46.3359375 1.5 C52.77461467 2.01783658 59.18739755 2.21558331 65.64453125 2.31640625 C66.78033127 2.33718735 67.91613129 2.35796844 69.08634949 2.37937927 C72.66168041 2.44398691 76.23707522 2.50334021 79.8125 2.5625 C82.25846975 2.60576999 84.7044334 2.64938674 87.15039062 2.69335938 C93.10019745 2.79957513 99.05006753 2.90108361 105 3 C105 7.62 105 12.24 105 17 C104.04359116 17.02283554 103.08718231 17.04567108 102.10179138 17.06919861 C93.02651828 17.2863019 83.95133283 17.5067957 74.87621975 17.73049068 C70.21219598 17.84534968 65.54815062 17.95907183 60.8840332 18.07006836 C56.3711299 18.17751028 51.85831328 18.28810492 47.34553719 18.40075874 C45.63586137 18.44290799 43.92615855 18.48397843 42.21642876 18.5238781 C32.87336053 18.74267487 23.5706891 19.08578426 14.25086975 19.79396057 C9.49158455 20.09560305 4.76723482 20.06530459 0 20 C0 13.4 0 6.8 0 0 Z " fill="#3F4048" transform="translate(48,90)"/>
<path d="M0 0 C0.66 0.33 1.32 0.66 2 1 C2 3.33333333 2 5.66666667 2 8 C-1.465 6.02 -1.465 6.02 -5 4 C-3.35 2.68 -1.7 1.36 0 0 Z " fill="#E9EDEC" transform="translate(109,57)"/>
<path d="M0 0 C0.86625 0.4125 1.7325 0.825 2.625 1.25 C-0.88038557 3.21301592 -4.50851728 4.20902388 -8.375 5.25 C-8.705 4.59 -9.035 3.93 -9.375 3.25 C-4.20576923 -0.93461538 -4.20576923 -0.93461538 0 0 Z " fill="#EEEDF2" transform="translate(84.375,112.75)"/>
<path d="M0 0 C0.66 1.32 1.32 2.64 2 4 C0.02 4.99 -1.96 5.98 -4 7 C-4 4 -4 4 -2 1.8125 C-1.34 1.214375 -0.68 0.61625 0 0 Z " fill="#EFEFF0" transform="translate(101,142)"/>
<path d="M0 0 C0.33 0 0.66 0 1 0 C1.25 2.3125 1.25 2.3125 1 5 C-1 6.8125 -1 6.8125 -3 8 C-3.66 7.67 -4.32 7.34 -5 7 C-4.19152271 5.83054208 -3.37810888 4.66449539 -2.5625 3.5 C-2.11003906 2.8503125 -1.65757813 2.200625 -1.19140625 1.53125 C-0.79824219 1.0259375 -0.40507813 0.520625 0 0 Z " fill="#4D4F54" transform="translate(59,130)"/>
</svg>

