<?xml version="1.0" encoding="UTF-8"?><svg id="a" xmlns="http://www.w3.org/2000/svg" viewBox="0 0 3560.49097 1872.66895"><defs><style>.c{fill:#59c7f2;}</style></defs><g id="b"><path class="c" d="M544.24902,.004V.001l-72.26901-.001V.004c0,109.233-87.63699,197.98399-196.43399,199.81199-1.14099-.01401-2.27802-.043-3.422-.043s-2.28101,.02901-3.422,.043C159.905,197.987,72.269,109.236,72.269,.004V.001l-72.269-.001V.004C0,100.892,54.904,188.955,136.46201,235.95,54.904,282.94501,0,371.008,0,471.897s54.905,188.95297,136.463,235.94797C54.905,754.83801,0,842.90198,0,943.79102v.00403H72.269v-.00403c0-109.25598,87.674-198.02197,196.50401-199.81299,1.117,.013,2.23099,.04199,3.35199,.04199s2.23401-.02899,3.35199-.04199c108.83002,1.79102,196.504,90.55701,196.504,199.81299v.00403h72.26901v-.00403c0-100.88898-54.905-188.953-136.46301-235.94702,81.55899-46.995,136.46301-135.05798,136.46301-235.948s-54.90399-188.952-136.46201-235.94701C489.34399,188.955,544.24902,100.892,544.24902,.004Zm-72.26901,471.893c0,109.25601-87.67401,198.022-196.504,199.81302-1.117-.013-2.23099-.04199-3.35199-.04199s-2.23401,.02899-3.35199,.04199c-108.83-1.79102-196.504-90.55701-196.504-199.81299,0-109.233,87.63699-197.98401,196.43399-199.81201,1.14099,.01401,2.27802,.043,3.422,.043s2.28101-.02899,3.422-.043c108.79697,1.82797,196.43399,90.57797,196.43399,199.81198Z"/></g></svg>