<?xml version="1.0" encoding="UTF-8"?><svg id="a" xmlns="http://www.w3.org/2000/svg" viewBox="0 0 544.25 943.7950439453125"><g id="b"><path d="M544.2490234375.00400000018999V.001000000047497l-72.269012451171875-.001000000047497v.00400000018999c0,109.23299951152876-87.636993408203125,197.983991332817823-196.433990478515625,199.811994262505323-1.1409912109375-.014007568359375-2.27801513671875-.042999267578125-3.4219970703125-.042999267578125s-2.281005859375.029006958007812-3.4219970703125.042999267578125C159.904998779296875,197.98699951171875,72.268997192382812,109.236000061035156,72.268997192382812.00400000018999V.001000000047497l-72.268997192382812-.001000000047497v.00400000018999c0,100.887998290825635,54.903999328613281,188.951001830864698,136.462005615234375,235.945996948052198C54.903999328613281,282.94500732421875,0,371.00799560546875,0,471.897003173828125s54.904998779296875,188.952972412109375,136.462997436523438,235.947967529296875C54.904998779296875,754.8380126953125,0,842.9019775390625,0,943.791015625v.0040283203125h72.268997192382812v-.0040283203125c0-109.2559814453125,87.673995971679688-198.02197265625,196.504013061523438-199.81298828125,1.11700439453125.01300048828125,2.230987548828125.0419921875,3.35198974609375.0419921875s2.2340087890625-.02899169921875,3.35198974609375-.0419921875c108.83001708984375,1.791015625,196.503997802734375,90.5570068359375,196.503997802734375,199.81298828125v.0040283203125h72.269012451171875v-.0040283203125c0-100.88897705078125-54.904998779296875-188.9530029296875-136.4630126953125-235.947021484375,81.558990478515625-46.9949951171875,136.4630126953125-135.0579833984375,136.4630126953125-235.947998046875s-54.90399169921875-188.951995849609375-136.462005615234375-235.947006225585938C489.343994140625,188.955001831054688,544.2490234375,100.891998291015625,544.2490234375.00400000018999ZM471.980010986328125,471.897003173828125c0,109.256011962890625-87.67401123046875,198.022003173828125-196.503997802734375,199.813018798828125-1.11700439453125-.01300048828125-2.230987548828125-.0419921875-3.35198974609375-.0419921875s-2.2340087890625.02899169921875-3.35198974609375.0419921875c-108.830001831054688-1.791015625-196.503997802734375-90.5570068359375-196.503997802734375-199.81298828125,0-109.233001708984375,87.636993408203125-197.9840087890625,196.433990478515625-199.81201171875,1.1409912109375.014007568359375,2.27801513671875.042999267578125,3.4219970703125.042999267578125s2.281005859375-.02899169921875,3.4219970703125-.042999267578125c108.796966552734375,1.827972412109375,196.433990478515625,90.577972412109375,196.433990478515625,199.811981201171875Z" fill="#59c7f2"/></g></svg>