<svg width="401" height="417" viewBox="0 0 401 417" fill="none" xmlns="http://www.w3.org/2000/svg">
<path fill-rule="evenodd" clip-rule="evenodd" d="M200.5 416.149C295.465 416.149 375.543 352.31 400.285 265.143C401.301 261.566 398.584 258.069 394.887 258.069V258.069H338.537C335.008 258.069 331.869 260.277 330.481 263.541C308.963 314.127 258.866 349.589 200.5 349.589C142.134 349.589 92.0375 314.127 70.5195 263.541C69.1309 260.277 65.9923 258.069 62.4634 258.069H6.11316V258.069C2.41607 258.069 -0.3007 261.566 0.7147 265.143C25.4568 352.31 105.535 416.149 200.5 416.149ZM200.5 0.149414C295.465 0.149414 375.543 63.9885 400.285 151.156C401.301 154.733 398.584 158.229 394.887 158.229V158.229H338.537C335.008 158.229 331.869 156.022 330.481 152.758C308.963 102.172 258.866 66.7094 200.5 66.7094C142.134 66.7094 92.0375 102.172 70.5195 152.758C69.1308 156.022 65.9923 158.229 62.4634 158.229H6.11316V158.229C2.41607 158.229 -0.3007 154.733 0.7147 151.156C25.4568 63.9885 105.535 0.149414 200.5 0.149414ZM163.949 158.229C156.608 158.229 150.657 164.189 150.657 171.541V244.757C150.657 252.109 156.608 258.069 163.949 258.069H237.051C244.392 258.069 250.343 252.109 250.343 244.757V171.541C250.343 164.189 244.392 158.229 237.051 158.229H163.949Z" fill="#C6FF00"/>
</svg>
