<?xml version="1.0" encoding="UTF-8"?>
<svg version="1.1" xmlns="http://www.w3.org/2000/svg" width="400" height="400">
<path d="M0 0 C132 0 264 0 400 0 C400 132 400 264 400 400 C268 400 136 400 0 400 C0 268 0 136 0 0 Z " fill="#13FE7F" transform="translate(0,0)"/>
<path d="M0 0 C1.13273849 -0.00852997 2.26547699 -0.01705994 3.43254089 -0.02584839 C4.67108322 -0.02494202 5.90962555 -0.02403564 7.18569946 -0.02310181 C8.49337784 -0.02981903 9.80105621 -0.03653625 11.14836121 -0.04345703 C14.73314235 -0.0611166 18.31782801 -0.06581239 21.90264845 -0.0670886 C24.14333684 -0.0685108 26.38400101 -0.07278168 28.62468338 -0.07808304 C36.44467967 -0.09658322 44.2646078 -0.10475367 52.08462524 -0.10317993 C59.36922254 -0.10197855 66.65352354 -0.12308005 73.93804586 -0.15466726 C80.19635674 -0.18083566 86.45457088 -0.191547 92.71293604 -0.19026911 C96.44895192 -0.18975964 100.18470445 -0.19543451 103.92066574 -0.21662521 C108.0886428 -0.23962117 112.25595771 -0.23048333 116.42398071 -0.21841431 C117.65847458 -0.22965332 118.89296844 -0.24089233 120.16487122 -0.25247192 C127.87924325 -0.1956229 131.40343088 0.60596887 137.09414673 5.77523804 C141.83541952 12.27351881 141.15056649 20.12709169 141.03115845 27.81234741 C140.9968095 30.26208475 141.01053746 32.70821272 141.02993774 35.15805054 C141.02303839 36.73619067 141.01336518 38.31432162 141.00064087 39.89242554 C141.00560074 40.61349487 141.01056061 41.33456421 141.01567078 42.07748413 C140.89182657 47.50725527 139.40802143 51.7109498 136.43423462 56.26742554 C132.22602855 60.27035326 129.0501626 61.38954089 123.33039856 61.40545654 C122.27476212 61.41090988 121.21912567 61.41636322 120.13150024 61.42198181 C118.97351929 61.42302414 117.81553833 61.42406647 116.62246704 61.42514038 C115.40271683 61.4302211 114.18296661 61.43530182 112.92625427 61.4405365 C110.27273802 61.45125052 107.61927424 61.46024841 104.96574974 61.46665573 C100.76740217 61.47734366 96.56913496 61.49759094 92.37083435 61.51977539 C80.43228846 61.58167193 68.49374726 61.63569478 56.55508423 61.66879272 C49.96161392 61.68715219 43.36827825 61.71610446 36.77490693 61.75679743 C33.28710556 61.77784495 29.79947368 61.79332148 26.31160545 61.79560471 C22.41899125 61.79815591 18.52670915 61.82364121 14.63418579 61.85092163 C13.48227753 61.8479155 12.33036926 61.84490936 11.14355469 61.84181213 C5.52455695 61.90038906 1.230426 61.98500432 -3.56576538 65.26742554 C-7.44667443 69.46300289 -8.68185776 72.5476138 -8.72348022 78.19442749 C-8.73887344 79.6966259 -8.73887344 79.6966259 -8.75457764 81.22917175 C-8.76187897 82.31042831 -8.7691803 83.39168488 -8.77670288 84.50570679 C-8.80477226 86.79282331 -8.83343673 89.07993259 -8.86264038 91.36703491 C-8.90389608 94.97469881 -8.94078219 98.58222764 -8.96713257 102.19003296 C-8.99476133 105.67054198 -9.04063489 109.15043536 -9.08920288 112.63070679 C-9.09245575 113.70589066 -9.09570862 114.78107452 -9.09906006 115.88883972 C-9.18948868 121.406992 -9.39286407 125.53678761 -12.56576538 130.26742554 C-18.14018182 135.54845163 -23.21401091 136.5774139 -30.71810913 136.56820679 C-31.88473839 136.57463448 -31.88473839 136.57463448 -33.07493591 136.58119202 C-34.71469146 136.58691734 -36.3544724 136.58744886 -37.99423218 136.58309937 C-40.49182806 136.57994 -42.98823764 136.60341757 -45.48568726 136.62875366 C-47.08399306 136.63102704 -48.68230203 136.63172997 -50.28060913 136.63070679 C-51.39181374 136.64452141 -51.39181374 136.64452141 -52.52546692 136.65861511 C-58.74169547 136.60362784 -62.6088963 134.91297454 -67.31576538 130.95492554 C-72.53921986 124.71579935 -71.87266545 117.60375115 -71.86654663 109.86117554 C-71.87083176 108.66311279 -71.87511688 107.46505005 -71.87953186 106.23068237 C-71.88526446 103.70240917 -71.88578333 101.17411948 -71.88143921 98.64584351 C-71.8782766 94.78113688 -71.90176227 90.917194 -71.92709351 87.05258179 C-71.92936635 84.59294733 -71.93007007 82.13331083 -71.92904663 79.67367554 C-71.93825638 78.52040771 -71.94746613 77.36713989 -71.95695496 76.17892456 C-71.91836482 69.47965231 -71.58695701 64.54267191 -66.84701538 59.40414429 C-66.25920288 58.9259021 -65.67139038 58.44765991 -65.06576538 57.95492554 C-64.18404663 57.21822632 -64.18404663 57.21822632 -63.28451538 56.46664429 C-59.6707015 53.94518778 -56.25554887 54.13176453 -51.99154663 54.09164429 C-50.68379272 54.06779663 -49.37603882 54.04394897 -48.02865601 54.01937866 C-45.95962318 53.98443456 -43.89115937 53.95500973 -41.8218689 53.9414978 C-30.51551363 53.96034164 -30.51551363 53.96034164 -20.56576538 49.26742554 C-17.78092875 44.78500245 -17.18970612 41.34515116 -17.15951538 36.11117554 C-17.1486792 35.44581787 -17.13784302 34.78046021 -17.12667847 34.09494019 C-17.09265995 31.98566837 -17.07687569 29.87693454 -17.06576538 27.76742554 C-17.05111448 24.98566499 -17.01731416 22.2050877 -16.97201538 19.42367554 C-16.96492554 18.19455444 -16.95783569 16.96543335 -16.95053101 15.69906616 C-16.30959691 9.98271483 -13.91939625 5.96141536 -9.56576538 2.26742554 C-6.30430545 0.26653958 -3.80022732 0.01294355 0 0 Z " fill="#111211" transform="translate(134.56576538085938,65.73257446289063)"/>
<path d="M0 0 C0.8627504 -0.0038269 1.72550079 -0.00765381 2.61439514 -0.01159668 C4.43231376 -0.0143089 6.25027187 -0.00699612 8.06811523 0.00976562 C10.8360183 0.03116004 13.60131836 0.00995516 16.36914062 -0.015625 C18.14193276 -0.01298109 19.91472329 -0.0078548 21.6875 0 C22.50749985 -0.00809692 23.32749969 -0.01619385 24.17234802 -0.02453613 C31.16642011 0.08838713 35.27581698 1.88753967 40.31225586 6.94189453 C42.79412221 12.51689822 42.50039185 17.92483012 42.4765625 23.9609375 C42.48276108 25.26523712 42.48895966 26.56953674 42.49534607 27.9133606 C42.50572664 30.66882032 42.50122508 33.42376292 42.48657227 36.17919922 C42.46941105 39.69206918 42.49285527 43.20329926 42.52806187 46.71598625 C42.55544569 50.08939675 42.54529179 53.46242131 42.5390625 56.8359375 C42.55232071 58.08825165 42.56557892 59.3405658 42.57923889 60.63082886 C42.50384658 67.73672831 42.04551102 73.27079302 36.91015625 78.53125 C32.56095769 81.52729056 29.03786154 81.89923587 23.82421875 81.90234375 C22.46744542 81.9197282 21.11067464 81.93731256 19.75390625 81.95507812 C17.64545893 81.96512068 15.53718113 81.96875164 13.42871094 81.96704102 C1.88899228 81.60082374 1.88899228 81.60082374 -8.08984375 86.53125 C-13.90580976 92.92965827 -12.62422815 102.57953571 -12.58984375 110.65625 C-12.57773868 113.51368322 -12.59159431 116.36928844 -12.62109375 119.2265625 C-12.61432617 121.1139917 -12.61432617 121.1139917 -12.60742188 123.03955078 C-13.19542261 127.29541439 -14.28925648 129.28263691 -17.08984375 132.53125 C-23.45905328 137.33900308 -29.30397712 137.10057078 -37.09008789 137.04882812 C-38.38845078 137.0558374 -39.68681366 137.06284668 -41.02452087 137.07006836 C-44.57000409 137.08823316 -48.11501938 137.08126345 -51.6605103 137.06855202 C-55.3786206 137.05839073 -59.09669213 137.06782615 -62.81480408 137.07409668 C-69.05637776 137.08136312 -75.29776179 137.07181094 -81.53930664 137.05273438 C-88.74731222 137.03095784 -95.95486532 137.03802641 -103.16285998 137.06004 C-109.361809 137.07821137 -115.56062208 137.08074418 -121.75958914 137.07028532 C-125.45752371 137.06406109 -129.1552458 137.06318522 -132.85316658 137.07643127 C-136.97538032 137.0901673 -141.09681781 137.07111198 -145.21899414 137.04882812 C-146.43942413 137.05692505 -147.65985413 137.06502197 -148.91726685 137.07336426 C-155.26709814 137.00973613 -159.30226282 136.87650704 -164.08984375 132.53125 C-170.65766166 125.43090631 -169.37545912 116.98769752 -169.43994141 107.86083984 C-169.45647517 106.14813626 -169.48373145 104.43550096 -169.52197266 102.72314453 C-169.90198071 85.58973808 -169.90198071 85.58973808 -165.65869141 79.91503906 C-161.90626499 76.60524247 -158.78942641 75.15705268 -153.78346252 75.14598083 C-152.73349091 75.13633301 -151.68351929 75.12668518 -150.60173035 75.116745 C-148.88957085 75.12361076 -148.88957085 75.12361076 -147.14282227 75.13061523 C-145.93253357 75.12363617 -144.72224487 75.1166571 -143.47528076 75.10946655 C-140.84832992 75.09633819 -138.22201502 75.08857672 -135.59509468 75.08999443 C-131.43852114 75.0920321 -127.28221937 75.07243442 -123.12571716 75.04981995 C-115.05128915 75.00887668 -106.97688268 74.99025011 -98.90237427 74.97364807 C-88.62824171 74.9512824 -78.35417224 74.91768149 -68.08014244 74.86644894 C-63.95134477 74.84656813 -59.82268953 74.83695003 -55.69384587 74.83549678 C-52.51795545 74.83209193 -49.34211996 74.81618566 -46.16625977 74.80249023 C-45.02684433 74.80504318 -43.88742889 74.80759613 -42.71348572 74.81022644 C-34.89698821 74.75953162 -28.93271053 74.21620146 -23.08984375 68.53125 C-19.28207112 62.88008194 -19.68160083 57.34234698 -19.71875 50.78125 C-19.70137236 48.45833182 -19.68378793 46.13541519 -19.66601562 43.8125 C-19.65593379 40.1653362 -19.65234981 36.51827093 -19.65405273 32.87109375 C-19.6504825 29.34084865 -19.6231435 25.81136038 -19.59375 22.28125 C-19.60193253 21.19360352 -19.61011505 20.10595703 -19.61854553 18.98535156 C-19.55998937 13.026432 -19.33782953 9.09122974 -15.08984375 4.53125 C-10.17374725 0.23856018 -6.23191148 -0.06138423 0 0 Z " fill="#111211" transform="translate(294.08984375,201.46875)"/>
<path d="M0 0 C0.84717087 -0.00807175 1.69434174 -0.01614349 2.56718445 -0.02445984 C4.36011721 -0.03828565 6.15307613 -0.04901453 7.94604492 -0.05688477 C10.67873381 -0.07408978 13.41021001 -0.11798724 16.14257812 -0.16210938 C17.88670988 -0.17223762 19.63085189 -0.18075331 21.375 -0.1875 C22.18769852 -0.20500809 23.00039703 -0.22251617 23.83772278 -0.24055481 C29.17037084 -0.22031144 32.14384623 0.72495969 36.38671875 4.23828125 C41.00035155 9.47537795 41.55362706 12.70015794 41.58984375 19.53515625 C41.59554382 20.36154602 41.6012439 21.18793579 41.6071167 22.03936768 C41.61657226 23.79120604 41.62310288 25.54306223 41.62695312 27.29492188 C41.63663021 29.96386207 41.66763581 32.63202281 41.69921875 35.30078125 C41.70575179 37.00390168 41.71100108 38.70702762 41.71484375 40.41015625 C41.72719055 41.20411804 41.73953735 41.99807983 41.7522583 42.81610107 C41.72733157 49.07772853 40.15953368 53.07150745 36.13671875 57.98828125 C29.4543861 63.45564432 20.81194783 62.57892566 12.6262207 62.55395508 C10.45798478 62.55079403 8.29111485 62.57430501 6.12304688 62.59960938 C-9.87372938 62.67475754 -9.87372938 62.67475754 -15.11645508 57.85693359 C-19.92243766 52.40519254 -20.9343197 48.1624672 -20.984375 41.03515625 C-20.99340347 40.23853577 -21.00243195 39.44191528 -21.01173401 38.62115479 C-21.02622124 36.93676499 -21.03511946 35.25231912 -21.03881836 33.56787109 C-21.05067864 31.01040833 -21.09984337 28.45538874 -21.15039062 25.8984375 C-21.30084224 10.67622509 -21.30084224 10.67622509 -15.61328125 4.23828125 C-10.89847023 -0.06051704 -6.11120019 0.05513509 0 0 Z " fill="#111211" transform="translate(189.61328125,170.76171875)"/>
<path d="M0 0 C1.13273849 -0.00852997 2.26547699 -0.01705994 3.43254089 -0.02584839 C4.67108322 -0.02494202 5.90962555 -0.02403564 7.18569946 -0.02310181 C8.49337784 -0.02981903 9.80105621 -0.03653625 11.14836121 -0.04345703 C14.73314235 -0.0611166 18.31782801 -0.06581239 21.90264845 -0.0670886 C24.14333684 -0.0685108 26.38400101 -0.07278168 28.62468338 -0.07808304 C36.44467967 -0.09658322 44.2646078 -0.10475367 52.08462524 -0.10317993 C59.36922254 -0.10197855 66.65352354 -0.12308005 73.93804586 -0.15466726 C80.19635674 -0.18083566 86.45457088 -0.191547 92.71293604 -0.19026911 C96.44895192 -0.18975964 100.18470445 -0.19543451 103.92066574 -0.21662521 C108.0886428 -0.23962117 112.25595771 -0.23048333 116.42398071 -0.21841431 C117.65847458 -0.22965332 118.89296844 -0.24089233 120.16487122 -0.25247192 C127.88785049 -0.19555947 131.38905342 0.61863293 137.09854126 5.76864624 C141.8880909 12.29338242 141.07874 20.25773728 140.92129517 27.97714233 C140.87164954 30.45917886 140.8597935 32.93923264 140.85415649 35.42172241 C140.84007637 37.00963403 140.82387407 38.59752855 140.80532837 40.18539429 C140.79996567 40.92194748 140.79460297 41.65850067 140.78907776 42.41737366 C140.69616804 46.45369353 140.21565031 49.62934815 138.43423462 53.26742554 C137.12613319 49.34312125 137.35047388 45.63454716 137.40689087 41.54867554 C137.41953425 39.79477124 137.43189542 38.04086489 137.44400024 36.28695679 C137.46885212 33.52175514 137.49686434 30.75665973 137.53018188 27.99154663 C137.56033805 25.32308258 137.57814244 22.65475535 137.59439087 19.98617554 C137.60785049 19.15799316 137.62131012 18.32981079 137.63517761 17.47653198 C137.65918522 12.58002983 137.65918522 12.58002983 135.43423462 8.26742554 C134.44423462 7.93742554 133.45423462 7.60742554 132.43423462 7.26742554 C132.10423462 6.27742554 131.77423462 5.28742554 131.43423462 4.26742554 C130.44423462 3.77242554 130.44423462 3.77242554 129.43423462 3.26742554 C129.43423462 3.92742554 129.43423462 4.58742554 129.43423462 5.26742554 C127.78423462 5.26742554 126.13423462 5.26742554 124.43423462 5.26742554 C124.10423462 4.60742554 123.77423462 3.94742554 123.43423462 3.26742554 C107.37027643 3.22067922 91.30634035 3.1854238 75.24233055 3.16380119 C67.78332621 3.15349404 60.32436416 3.13944444 52.86538696 3.11654663 C46.36320836 3.09659557 39.86106039 3.08370502 33.35885203 3.07924855 C29.91683257 3.07664407 26.47490074 3.07053413 23.03290939 3.05596542 C19.18798953 3.03982367 15.34315495 3.03944696 11.49819946 3.04037476 C10.36027954 3.0331842 9.22235962 3.02599365 8.04995728 3.01858521 C1.02671899 3.03694688 -4.32301832 3.90594635 -10.56576538 7.26742554 C-10.56576538 8.25742554 -10.56576538 9.24742554 -10.56576538 10.26742554 C-11.55576538 10.59742554 -12.54576538 10.92742554 -13.56576538 11.26742554 C-13.57511108 12.20014282 -13.58445679 13.13286011 -13.59408569 14.09384155 C-13.63831154 17.58139657 -13.70001708 21.06775908 -13.77328491 24.55477905 C-13.80136911 26.05889746 -13.8226457 27.56316002 -13.83676147 29.06747437 C-13.85836767 31.24033738 -13.9050997 33.41149029 -13.95639038 35.58383179 C-13.97733765 36.88779907 -13.99828491 38.19176636 -14.01986694 39.5352478 C-14.68946836 44.11315337 -15.95935882 46.4690502 -18.56576538 50.26742554 C-21.31576538 51.70492554 -21.31576538 51.70492554 -23.56576538 52.26742554 C-22.29623413 50.80258179 -21.02670288 49.33773804 -19.75717163 47.87289429 C-17.11668831 44.31473479 -17.41496451 40.66639659 -17.35482788 36.40414429 C-17.32675165 35.0284815 -17.29808714 33.65283062 -17.26889038 32.27719116 C-17.22772278 30.11809726 -17.19081797 27.95922377 -17.16439819 25.79989624 C-17.13662737 23.7091839 -17.09075549 21.61946705 -17.04232788 19.52914429 C-17.02250854 18.28092896 -17.00268921 17.03271362 -16.98226929 15.74667358 C-16.29595079 10.01354056 -13.94131472 5.98001286 -9.56576538 2.26742554 C-6.30430545 0.26653958 -3.80022732 0.01294355 0 0 Z " fill="#051B13" transform="translate(134.56576538085938,65.73257446289063)"/>
<path d="M0 0 C5.83488314 -0.12417084 11.66898684 -0.21460824 17.50488281 -0.2746582 C19.48744109 -0.29970683 21.46990789 -0.33375584 23.45214844 -0.37719727 C26.31207926 -0.43827619 29.17078292 -0.46630629 32.03125 -0.48828125 C32.90865845 -0.51408768 33.78606689 -0.5398941 34.69006348 -0.56648254 C40.87195336 -0.56926097 45.48684369 0.58557013 50 5 C53.90309401 10.74689307 54.62662437 16.7320062 54.71484375 23.5234375 C54.75032066 24.82542587 54.75032066 24.82542587 54.78651428 26.15371704 C54.83143364 27.97027597 54.86709373 29.78708593 54.89379883 31.60400391 C54.93773002 34.38958516 55.01862218 37.17242833 55.10351562 39.95703125 C55.14281246 41.72911951 55.17999789 43.50125613 55.21484375 45.2734375 C55.23965317 46.10467133 55.26446259 46.93590515 55.2900238 47.79232788 C55.3454996 53.62646298 55.3454996 53.62646298 53.51173401 55.60903931 C53.01286179 56.06805634 52.51398956 56.52707336 52 57 C51.835 57.70125 51.67 58.4025 51.5 59.125 C51.335 59.74375 51.17 60.3625 51 61 C50.01 61.33 49.02 61.66 48 62 C47.01 61.505 47.01 61.505 46 61 C45.67 61.99 45.34 62.98 45 64 C40.41892232 66.10243326 36.09406665 66.2560936 31.14453125 66.1171875 C30.40224777 66.10164825 29.65996429 66.08610901 28.89518738 66.07009888 C27.32931681 66.03343994 25.76357026 65.99108925 24.19799805 65.94335938 C21.83700892 65.87570233 19.47691051 65.83920412 17.11523438 65.8046875 C7.53558627 65.58664954 -0.3104925 64.34475375 -9 60 C-9.34740923 58.00239695 -9.67966043 56.00212229 -10 54 C-10.66 53.01 -11.32 52.02 -12 51 C-12.18407683 48.22830242 -12.25605249 45.55967214 -12.23046875 42.7890625 C-12.22978142 41.58133682 -12.22978142 41.58133682 -12.2290802 40.34921265 C-12.22606013 38.6462049 -12.21818115 36.94319987 -12.20581055 35.24023438 C-12.18761781 32.64182672 -12.18530053 30.04377705 -12.18554688 27.4453125 C-12.18062882 25.78905944 -12.17479925 24.13280878 -12.16796875 22.4765625 C-12.16685593 21.70245026 -12.1657431 20.92833801 -12.16459656 20.13076782 C-12.13115251 16.30030217 -11.92527493 12.72417392 -11 9 C-10.01 9 -9.02 9 -8 9 C-8.0825 8.236875 -8.165 7.47375 -8.25 6.6875 C-8 4 -8 4 -6.25 2.125 C-4 1 -4 1 -1.75 1.3125 C-1.1725 1.539375 -0.595 1.76625 0 2 C0 1.34 0 0.68 0 0 Z M-6.25 7.4375 C-9.6695199 12.44465414 -10.32852859 16.14232589 -10.37109375 22.203125 C-10.38012222 22.99974548 -10.3891507 23.79636597 -10.39845276 24.61712646 C-10.41293999 26.30151626 -10.42183821 27.98596213 -10.42553711 29.67041016 C-10.43739739 32.22787292 -10.48656212 34.78289251 -10.53710938 37.33984375 C-10.8883107 48.12524597 -10.8883107 48.12524597 -6.37133789 57.61621094 C-5.69252563 58.30118652 -5.69252563 58.30118652 -5 59 C-4.39176392 59.7739209 -4.39176392 59.7739209 -3.77124023 60.56347656 C2.31104858 65.49637627 11.36769536 64.33822559 18.76049805 64.31567383 C20.92873397 64.31251278 23.0956039 64.33602376 25.26367188 64.36132812 C36.91560693 64.51987781 36.91560693 64.51987781 47.05859375 59.28125 C47.51363281 58.6934375 47.96867187 58.105625 48.4375 57.5 C48.91058594 56.9121875 49.38367188 56.324375 49.87109375 55.71875 C52.54776402 51.64354267 52.19484271 47.29158985 52.23828125 42.60546875 C52.246353 41.78049393 52.25442474 40.9555191 52.26274109 40.10554504 C52.27656573 38.35969128 52.28729513 36.61381068 52.29516602 34.86791992 C52.31236972 32.20764533 52.35626773 29.54861692 52.40039062 26.88867188 C52.41051904 25.19011328 52.41903468 23.49154415 52.42578125 21.79296875 C52.44328934 21.00214401 52.46079742 20.21131927 52.47883606 19.39653015 C52.45829278 14.12546398 51.45800089 11.19818292 48 7 C42.69919299 2.33024145 39.40312274 1.83256219 32.484375 1.796875 C31.63578918 1.79117493 30.78720337 1.78547485 29.91290283 1.77960205 C28.11398568 1.77014602 26.31505116 1.76361568 24.51611328 1.75976562 C21.7747533 1.75008739 19.0341518 1.71908159 16.29296875 1.6875 C14.54427528 1.6809671 12.79557645 1.67571776 11.046875 1.671875 C10.23103943 1.6595282 9.41520386 1.6471814 8.574646 1.63446045 C2.42406388 1.6583117 -1.91999221 2.74665822 -6.25 7.4375 Z " fill="#3FE28A" transform="translate(179,169)"/>
<path d="M0 0 C0.33 0 0.66 0 1 0 C1.12718459 7.25892344 1.21451284 14.51755761 1.2746582 21.77734375 C1.29974158 24.2449009 1.33381647 26.7123842 1.37719727 29.1796875 C1.43811747 32.73456078 1.46627287 36.2884484 1.48828125 39.84375 C1.51408768 40.93989624 1.5398941 42.03604248 1.56648254 43.16540527 C1.56899856 50.09726412 0.52770555 54.64971724 -4 60 C-8.71439247 64.59653266 -12.90870439 65.12245679 -19.30638123 65.13130188 C-20.35635284 65.13531006 -21.40632446 65.13931824 -22.4881134 65.14344788 C-24.2002729 65.1426548 -24.2002729 65.1426548 -25.94702148 65.1418457 C-27.15731018 65.14532013 -28.36759888 65.14879456 -29.61456299 65.15237427 C-32.24130749 65.15972266 -34.86800161 65.16539987 -37.49474907 65.16866493 C-41.65125017 65.17459273 -45.80766645 65.19114896 -49.96412659 65.21000671 C-51.38907142 65.21634341 -52.81401629 65.22266904 -54.23896122 65.22898388 C-54.95238277 65.23214969 -55.66580431 65.2353155 -56.40084469 65.23857725 C-66.0726349 65.28060499 -75.74438425 65.31363689 -85.41625977 65.32592773 C-91.94751277 65.3343126 -98.47855417 65.35681514 -105.00970131 65.3952834 C-108.46287145 65.41502285 -111.91572545 65.42745563 -115.36895561 65.42244911 C-119.22070609 65.41693223 -123.07192237 65.44222384 -126.92358398 65.4699707 C-128.06299942 65.46336929 -129.20241486 65.45676788 -130.37635803 65.44996643 C-136.52723963 65.52280806 -140.38538405 65.76123458 -145 70 C-146.88568694 73.10014929 -146.88568694 73.10014929 -148 76 C-148.93423645 72.98968256 -149.04449911 72.13349732 -148 69 C-147.01 68.505 -147.01 68.505 -146 68 C-145.27306096 66.02111039 -144.60183749 64.02045442 -144 62 C-143.34 62 -142.68 62 -142 62 C-141.34 62.66 -140.68 63.32 -140 64 C-139.505 63.505 -139.505 63.505 -139 63 C-137.3424238 62.90388581 -135.68073014 62.87812245 -134.02037048 62.87974548 C-132.9419841 62.87837082 -131.86359772 62.87699615 -130.75253296 62.87557983 C-129.5592337 62.87917511 -128.36593445 62.88277039 -127.13647461 62.88647461 C-125.88787155 62.88632858 -124.63926849 62.88618256 -123.35282898 62.8860321 C-119.91909006 62.88661109 -116.48541062 62.89164045 -113.05168223 62.89860606 C-109.46687541 62.90484002 -105.88206787 62.90544343 -102.29725647 62.90663147 C-95.50449955 62.90974466 -88.71175865 62.91795788 -81.91900879 62.92798096 C-74.18757506 62.93914247 -66.45614058 62.94465264 -58.72470081 62.94967639 C-42.81645792 62.96014051 -26.90823102 62.97773971 -11 63 C-11 62.34 -11 61.68 -11 61 C-9.68 61 -8.36 61 -7 61 C-7 60.34 -7 59.68 -7 59 C-6.34 59 -5.68 59 -5 59 C-5 58.01 -5 57.02 -5 56 C-4.34 56 -3.68 56 -3 56 C-3 55.01 -3 54.02 -3 53 C-2.34 53 -1.68 53 -1 53 C-1.00222061 52.36550934 -1.00444122 51.73101868 -1.00672913 51.07730103 C-1.02880045 44.49164389 -1.04391437 37.90599722 -1.05493164 31.3203125 C-1.05996989 28.86034722 -1.0668006 26.40038495 -1.07543945 23.94042969 C-1.08752723 20.41079975 -1.09323329 16.88120931 -1.09765625 13.3515625 C-1.10281754 12.24632233 -1.10797882 11.14108215 -1.11329651 10.00234985 C-1.11337204 8.98144257 -1.11344757 7.96053528 -1.11352539 6.90869141 C-1.115746 6.00712311 -1.11796661 5.10555481 -1.12025452 4.17666626 C-1 2 -1 2 0 0 Z " fill="#2EBF72" transform="translate(274,212)"/>
<path d="M0 0 C1.11998886 -0.00708481 2.23997772 -0.01416962 3.39390564 -0.02146912 C4.61838409 -0.0189917 5.84286255 -0.01651428 7.10444641 -0.01396179 C9.0441053 -0.02162819 9.0441053 -0.02162819 11.02294922 -0.02944946 C14.56868686 -0.04283955 18.1143179 -0.04341776 21.6600759 -0.04088616 C24.62443358 -0.03981569 27.58876975 -0.04470217 30.55312282 -0.04949158 C37.55234341 -0.06058845 44.55151034 -0.06102426 51.55073547 -0.05497742 C58.75683655 -0.04894713 65.96274191 -0.06122406 73.16880959 -0.08254749 C79.36517059 -0.10020491 85.56146955 -0.10615803 91.75785476 -0.10290974 C95.45423151 -0.10110211 99.15046889 -0.10368011 102.84682274 -0.11762428 C106.97579356 -0.1326168 111.10437083 -0.12319643 115.23335266 -0.11161804 C117.05488861 -0.12308365 117.05488861 -0.12308365 118.91322327 -0.13478088 C125.33836958 -0.09504148 131.75911084 0.01911487 137.49238586 3.26069641 C139.75545432 5.90610872 141.49238586 8.67361341 141.49238586 12.26069641 C142.15238586 12.26069641 142.81238586 12.26069641 143.49238586 12.26069641 C143.49238586 25.46069641 143.49238586 38.66069641 143.49238586 52.26069641 C142.83238586 52.26069641 142.17238586 52.26069641 141.49238586 52.26069641 C141.33769836 53.40538391 141.33769836 53.40538391 141.17988586 54.57319641 C140.44874548 57.43129065 139.72286673 58.41812526 137.49238586 60.26069641 C136.83238586 59.93069641 136.17238586 59.60069641 135.49238586 59.26069641 C136.45144836 57.86850891 136.45144836 57.86850891 137.42988586 56.44819641 C141.6635234 49.90530203 140.78800437 42.62508195 140.84248352 35.0929718 C140.85899802 33.42193125 140.88622861 31.75096001 140.92451477 30.08027649 C141.53000434 18.2564774 141.53000434 18.2564774 137.06123352 7.65986633 C133.17070114 4.19011204 130.00058537 2.8855884 124.79963684 2.88647461 C123.66407852 2.8794603 122.5285202 2.87244598 121.35855103 2.86521912 C120.12203293 2.87286285 118.88551483 2.88050659 117.61152649 2.88838196 C116.30209579 2.88473129 114.9926651 2.88108063 113.64355469 2.87731934 C110.05882021 2.86792761 106.47435959 2.87732114 102.88964653 2.89065146 C99.13503361 2.90198343 95.38043383 2.8978571 91.62580872 2.89590454 C85.32103512 2.89502212 79.01636915 2.90609112 72.71162415 2.92451477 C65.42649743 2.94568163 58.14152836 2.94919196 50.85637712 2.94295281 C43.84311375 2.93725442 36.82990578 2.94291041 29.81665039 2.95412636 C26.83430962 2.95876605 23.85200281 2.95964892 20.86965942 2.95754051 C16.7041043 2.95530392 12.53876919 2.96977946 8.37324524 2.98603821 C7.13672714 2.98356079 5.90020905 2.98108337 4.6262207 2.97853088 C3.49066238 2.98561569 2.35510406 2.9927005 1.18513489 3 C0.20070152 3.00205287 -0.78373184 3.00410574 -1.79799652 3.00622082 C-4.69455854 3.27825342 -6.87455666 4.05271589 -9.50761414 5.26069641 C-9.50761414 4.27069641 -9.50761414 3.28069641 -9.50761414 2.26069641 C-6.23311229 0.31529297 -3.78526052 0.00798804 0 0 Z " fill="#28C76E" transform="translate(133.5076141357422,63.73930358886719)"/>
<path d="M0 0 C-5.76319764 2.4854741 -11.23420931 2.26161682 -17.38964844 2.21118164 C-18.52847977 2.2098674 -19.6673111 2.20855316 -20.84065247 2.2071991 C-24.59697848 2.20071872 -28.35309958 2.18029478 -32.109375 2.16015625 C-34.719175 2.15388551 -37.32897767 2.14864553 -39.93878174 2.14439392 C-46.10215732 2.13303492 -52.26545938 2.11232032 -58.42879415 2.08749622 C-70.13202709 2.04044844 -81.83528217 2.0077417 -93.53858185 1.9829998 C-97.38868964 1.97274464 -101.23872628 1.95570054 -105.08880615 1.93800354 C-107.43518001 1.93117897 -109.78155451 1.92457016 -112.12792969 1.91821289 C-113.20534927 1.91147552 -114.28276886 1.90473816 -115.39283752 1.89779663 C-116.86063911 1.89552315 -116.86063911 1.89552315 -118.35809326 1.89320374 C-119.211255 1.88968431 -120.06441673 1.88616488 -120.94343185 1.8825388 C-123.0649969 1.86771357 -123.0649969 1.86771357 -125 3 C-126.66619446 3.0396713 -128.33391013 3.04384447 -130 3 C-130 3.99 -130 4.98 -130 6 C-130.804375 6.28875 -131.60875 6.5775 -132.4375 6.875 C-135.1326468 7.73262568 -135.1326468 7.73262568 -136 10 C-136.08934406 11.41973273 -136.11758978 12.84357791 -136.11352539 14.26611328 C-136.11344986 15.14687531 -136.11337433 16.02763733 -136.11329651 16.93508911 C-136.10813522 17.88721283 -136.10297394 18.83933655 -136.09765625 19.8203125 C-136.0962413 20.79410858 -136.09482635 21.76790466 -136.09336853 22.77120972 C-136.08775973 25.88917073 -136.07520573 29.0070606 -136.0625 32.125 C-136.05748613 34.23567605 -136.05292303 36.34635322 -136.04882812 38.45703125 C-136.03778745 43.63804521 -136.02104073 48.81901752 -136 54 C-141.09837645 48.90162355 -139.30212577 39.11955636 -139.35009766 32.32958984 C-139.36663142 30.61688626 -139.3938877 28.90425096 -139.43212891 27.19189453 C-139.81213696 10.05848808 -139.81213696 10.05848808 -135.56884766 4.38378906 C-131.81499672 1.07273598 -128.68631808 -0.37302709 -123.68016052 -0.40545654 C-122.62729858 -0.41943985 -121.57443665 -0.43342316 -120.4896698 -0.4478302 C-119.34508804 -0.44796616 -118.20050629 -0.44810211 -117.02124023 -0.44824219 C-115.80773895 -0.46004013 -114.59423767 -0.47183807 -113.34396362 -0.48399353 C-110.02372867 -0.51320335 -106.70393534 -0.52922717 -103.38362002 -0.53904247 C-99.90606956 -0.55216906 -96.42865116 -0.58130623 -92.95118713 -0.60845947 C-87.11307445 -0.65173141 -81.27498725 -0.68386029 -75.43676758 -0.70849609 C-67.94551235 -0.74016873 -60.4545011 -0.79038507 -52.96339321 -0.84641647 C-46.518608 -0.8944534 -40.07377367 -0.93375567 -33.6289227 -0.97177219 C-31.55913649 -0.9843717 -29.4893613 -0.99821005 -27.41958427 -1.01222992 C-23.56286591 -1.03771566 -19.70613831 -1.0540945 -15.84936523 -1.06933594 C-14.70275925 -1.07756882 -13.55615326 -1.0858017 -12.37480164 -1.09428406 C-10.79973846 -1.09834007 -10.79973846 -1.09834007 -9.19285583 -1.10247803 C-8.28124412 -1.10687771 -7.3696324 -1.11127739 -6.43039608 -1.11581039 C-4.14252687 -1.00679152 -2.19080358 -0.64542196 0 0 Z " fill="#00280D" transform="translate(264,277)"/>
<path d="M0 0 C1.35683751 1.6475884 2.68456721 3.31916921 4 5 C5.04208618 6.13816162 5.04208618 6.13816162 6.10522461 7.29931641 C9.49881483 12.48552809 8.59384843 19.12542027 8.56640625 25.0859375 C8.57164812 26.47067684 8.57792666 27.85541261 8.58518982 29.24014282 C8.59557306 32.13682908 8.59106471 35.03302349 8.57641602 37.9296875 C8.55925335 41.62412999 8.58270012 45.31701343 8.61790562 49.01128197 C8.63997404 51.87000647 8.6384153 54.72836354 8.6301403 57.58714676 C8.62893194 59.60553302 8.64877904 61.6238969 8.66908264 63.6421814 C8.59579187 70.90123583 8.29780792 76.65175543 3 82 C-1.52186497 85.77098808 -5.92244659 86.49572141 -11.7265625 86.50390625 C-12.79262222 86.5180381 -12.79262222 86.5180381 -13.88021851 86.53245544 C-16.12877902 86.56089106 -18.3762751 86.56419113 -20.625 86.5625 C-22.88070896 86.56611801 -25.13565462 86.57572985 -27.39120483 86.60325623 C-29.43206553 86.62762848 -31.47315425 86.62997533 -33.51416016 86.63110352 C-37.21103087 87.02233279 -39.10552025 87.70187882 -42 90 C-42.33 90.99 -42.66 91.98 -43 93 C-44.485 93.495 -44.485 93.495 -46 94 C-44.64231796 89.11234467 -42.32965579 87.47408902 -38 85 C-34.54819052 83.84939684 -31.81206076 83.85713482 -28.171875 83.82421875 C-26.80076608 83.80100961 -25.4296723 83.77689183 -24.05859375 83.75195312 C-21.90826433 83.71695459 -19.75848876 83.68755321 -17.60791016 83.67407227 C-6.5180794 83.89446912 -6.5180794 83.89446912 3 79 C5.47825078 74.83127671 6.37883198 71.73509638 6.40405273 66.90625 C6.42307899 65.13411133 6.42307899 65.13411133 6.44248962 63.32617188 C6.43955399 62.06353516 6.43661835 60.80089844 6.43359375 59.5 C6.4388356 58.19095703 6.44407745 56.88191406 6.44947815 55.53320312 C6.45838634 52.7694328 6.45601205 50.00595181 6.44604492 47.2421875 C6.43454834 43.71141521 6.45478713 40.18164208 6.48396206 36.65100098 C6.5067818 33.26728188 6.49985543 29.88379411 6.49609375 26.5 C6.50732773 25.23736328 6.51856171 23.97472656 6.53013611 22.67382812 C6.57452724 13.96602133 6.57452724 13.96602133 2 7 C-2.90430297 3.61801483 -7.37715598 3.54595741 -13.125 3.56640625 C-13.99012207 3.5611644 -14.85524414 3.55592255 -15.74658203 3.55052185 C-17.56867402 3.54412209 -19.39080743 3.54541205 -21.21289062 3.55395508 C-23.99163659 3.56247436 -26.76833127 3.53366156 -29.546875 3.50195312 C-31.32291605 3.50034105 -33.09896073 3.50091876 -34.875 3.50390625 C-35.70016113 3.49267227 -36.52532227 3.48143829 -37.37548828 3.46986389 C-42.72427537 3.53410975 -45.74876343 4.46978282 -50 8 C-52.32277416 10.6091387 -52.32277416 10.6091387 -54 13 C-53.49967382 8.62214594 -52.11840922 6.11840922 -49 3 C-47.68 3 -46.36 3 -45 3 C-45 2.34 -45 1.68 -45 1 C-44.45098526 1.00222061 -43.90197052 1.00444122 -43.33631897 1.00672913 C-37.64292041 1.02878358 -31.9495339 1.04390726 -26.25610352 1.05493164 C-24.12881986 1.05997298 -22.00153969 1.06680591 -19.87426758 1.07543945 C-16.82372174 1.08751379 -13.77322155 1.09323014 -10.72265625 1.09765625 C-9.76537125 1.10281754 -8.80808624 1.10797882 -7.8217926 1.11329651 C-6.94095505 1.11337204 -6.06011749 1.11344757 -5.15258789 1.11352539 C-4.37315323 1.115746 -3.59371857 1.11796661 -2.79066467 1.12025452 C-0.97633465 1.19571386 -0.97633465 1.19571386 0 0 Z " fill="#32DA81" transform="translate(329,199)"/>
<path d="M0 0 C0.721875 0.763125 1.44375 1.52625 2.1875 2.3125 C6.56843508 6.49872685 9.65018586 8.37770032 15.76435852 8.36076355 C16.91555679 8.36488754 18.06675507 8.36901154 19.25283813 8.3732605 C20.50656219 8.36247467 21.76028625 8.35168884 23.05200195 8.34057617 C24.39262371 8.33972947 25.73324685 8.34020589 27.0738678 8.34190369 C30.7058097 8.34276339 34.33745354 8.32514191 37.96932626 8.30418181 C41.76763661 8.28541075 45.56595401 8.28366424 49.36430359 8.28010559 C56.55364424 8.27078637 63.74284781 8.24617431 70.93212813 8.21605712 C79.1182842 8.18250924 87.30444687 8.16602613 95.49065459 8.15097082 C112.32718327 8.1196246 129.16357413 8.06686657 146 8 C146 8.66 146 9.32 146 10 C144.68 10 143.36 10 142 10 C142 10.66 142 11.32 142 12 C125.0578451 11.89262957 108.11573598 11.77984497 91.17366028 11.66066074 C83.30670617 11.60544371 75.43974753 11.55198104 67.57275391 11.50268555 C60.71381723 11.45970216 53.85491238 11.41338924 46.99602509 11.36312145 C43.36619591 11.33663408 39.73637259 11.31178467 36.10650635 11.29092598 C32.04882127 11.26754636 27.99122462 11.23673156 23.93359375 11.20532227 C22.73740921 11.1995668 21.54122467 11.19381134 20.30879211 11.18788147 C14.44976077 11.13636302 8.79432045 10.88443389 3 10 C2.87625 9.195625 2.7525 8.39125 2.625 7.5625 C2.315625 6.2940625 2.315625 6.2940625 2 5 C1.34 4.67 0.68 4.34 0 4 C0 2.68 0 1.36 0 0 Z " fill="#2FE17C" transform="translate(126,329)"/>
<path d="M0 0 C0.99 0.495 0.99 0.495 2 1 C-0.23300029 3.53399663 -2.12670394 4.86724674 -5.49470711 5.3792305 C-8.7532004 5.51925164 -11.99264526 5.53689061 -15.25415039 5.51416016 C-17.11829338 5.52484779 -17.11829338 5.52484779 -19.02009583 5.53575134 C-21.71762752 5.54842377 -24.41402554 5.55390095 -27.11146736 5.54698563 C-31.37674416 5.53618671 -35.64162446 5.55359476 -39.90684509 5.57479858 C-46.65221522 5.60503767 -53.39746764 5.61675149 -60.14289993 5.62037504 C-72.22558701 5.62702716 -84.30819264 5.65602893 -96.39077944 5.7054714 C-100.63053865 5.72196748 -104.87012669 5.72738657 -109.1099149 5.72388101 C-112.36504217 5.72334141 -115.620133 5.73513263 -118.87524414 5.74462891 C-120.04990234 5.74050491 -121.22456055 5.73638092 -122.43481445 5.73213196 C-123.51009903 5.7375148 -124.58538361 5.74289764 -125.69325256 5.7484436 C-126.62698731 5.74877909 -127.56072206 5.74911457 -128.52275181 5.74946022 C-131.16069162 6.01625176 -132.77609071 6.57470954 -135 8 C-135.33 8.66 -135.66 9.32 -136 10 C-136.99 9.67 -137.98 9.34 -139 9 C-134.17979186 4.82248628 -131.44177462 2.88268718 -124.88270569 2.85523987 C-123.82417892 2.84834137 -122.76565216 2.84144287 -121.67504883 2.83433533 C-120.51392578 2.83172195 -119.35280273 2.82910858 -118.15649414 2.82641602 C-116.32204994 2.8163855 -116.32204994 2.8163855 -114.45054626 2.80615234 C-111.79047879 2.79208645 -109.13046603 2.77976194 -106.4703846 2.77020454 C-102.26418569 2.75474931 -98.05806194 2.73080079 -93.85191345 2.70530701 C-81.89131415 2.63410993 -69.93067216 2.57430093 -57.9699707 2.52319336 C-51.36409427 2.49489167 -44.75829297 2.4595132 -38.15249532 2.41653961 C-33.97131955 2.38976728 -29.79022874 2.37186228 -25.60898411 2.36050236 C-22.39690579 2.3492341 -19.18491944 2.32511206 -15.97290039 2.30297852 C-14.23425217 2.3020948 -14.23425217 2.3020948 -12.46047974 2.30119324 C-11.39913315 2.29147491 -10.33778656 2.28175659 -9.24427795 2.27174377 C-8.32269425 2.26751184 -7.40111055 2.2632799 -6.45160007 2.25891972 C-3.862515 1.98547986 -2.28885611 1.1723183 0 0 Z " fill="#3EE48B" transform="translate(267,124)"/>
<path d="M0 0 C1.25361328 0.00322266 2.50722656 0.00644531 3.79882812 0.00976562 C5.76432617 0.02233398 5.76432617 0.02233398 7.76953125 0.03515625 C9.10481606 0.04017308 10.44010266 0.04473566 11.77539062 0.04882812 C15.04431598 0.0606293 18.31315116 0.07709328 21.58203125 0.09765625 C21.58203125 0.42765625 21.58203125 0.75765625 21.58203125 1.09765625 C12.67203125 1.09765625 3.76203125 1.09765625 -5.41796875 1.09765625 C-5.41796875 1.75765625 -5.41796875 2.41765625 -5.41796875 3.09765625 C-7.06796875 3.09765625 -8.71796875 3.09765625 -10.41796875 3.09765625 C-10.41796875 3.75765625 -10.41796875 4.41765625 -10.41796875 5.09765625 C-11.07796875 5.09765625 -11.73796875 5.09765625 -12.41796875 5.09765625 C-12.50046875 5.88140625 -12.58296875 6.66515625 -12.66796875 7.47265625 C-13.41796875 10.09765625 -13.41796875 10.09765625 -15.46484375 11.26171875 C-16.43164062 11.67550781 -16.43164062 11.67550781 -17.41796875 12.09765625 C-17.3798469 19.55658604 -17.32039191 27.01502874 -17.23406601 34.47356606 C-17.1946388 37.93731136 -17.16242754 41.40080429 -17.14697266 44.86474609 C-17.12886322 48.85156562 -17.07889063 52.83768581 -17.02734375 56.82421875 C-17.02550079 58.68078598 -17.02550079 58.68078598 -17.02362061 60.57485962 C-16.88733421 68.59745061 -16.12083009 72.39479491 -10.41796875 78.09765625 C-6.14332792 80.31808235 -1.9920694 80.43803981 2.7265625 80.51171875 C3.49634933 80.5310849 4.26613617 80.55045105 5.05924988 80.57040405 C7.50423296 80.62991248 9.94926387 80.6764692 12.39453125 80.72265625 C14.05796259 80.76086256 15.72137472 80.79991582 17.38476562 80.83984375 C21.45036366 80.93559008 25.51605426 81.01972634 29.58203125 81.09765625 C29.58203125 81.42765625 29.58203125 81.75765625 29.58203125 82.09765625 C24.56497404 82.17207631 19.54824153 82.22638533 14.53076172 82.26245117 C12.82562662 82.27749363 11.12052993 82.29793278 9.41552734 82.32397461 C6.95791113 82.36055909 4.50080856 82.37742798 2.04296875 82.390625 C1.28648041 82.40610886 0.52999207 82.42159271 -0.24942017 82.43754578 C-6.41648499 82.43948584 -10.38125663 80.81034599 -15.16796875 76.78515625 C-20.39142323 70.54603007 -19.72486882 63.43398186 -19.71875 55.69140625 C-19.72303513 54.49334351 -19.72732025 53.29528076 -19.73173523 52.06091309 C-19.73746783 49.53263988 -19.73798669 47.00435019 -19.73364258 44.47607422 C-19.73047997 40.61136759 -19.75396564 36.74742472 -19.77929688 32.8828125 C-19.78156972 30.42317805 -19.78227344 27.96354154 -19.78125 25.50390625 C-19.79045975 24.35063843 -19.79966949 23.19737061 -19.80915833 22.00915527 C-19.77056819 15.30988302 -19.43916038 10.37290263 -14.69921875 5.234375 C-14.11140625 4.75613281 -13.52359375 4.27789062 -12.91796875 3.78515625 C-12.33015625 3.29402344 -11.74234375 2.80289063 -11.13671875 2.296875 C-7.54620733 -0.20832274 -4.2330053 -0.01915387 0 0 Z " fill="#02491D" transform="translate(82.41796875,119.90234375)"/>
<path d="M0 0 C0.66 0.33 1.32 0.66 2 1 C1.35039307 1.91515381 0.70078613 2.83030762 0.03149414 3.77319336 C-2.85603114 8.85776777 -2.54799592 13.91404332 -2.50390625 19.62890625 C-2.51332748 20.73676987 -2.52274872 21.84463348 -2.53245544 22.98606873 C-2.56103786 26.51173566 -2.56418571 30.03672673 -2.5625 33.5625 C-2.56611036 37.09174474 -2.5756633 40.62050029 -2.60325623 44.14964294 C-2.6200138 46.34103722 -2.6229447 48.53259273 -2.61024475 50.72401428 C-2.64816351 56.22179057 -2.82244996 60.29078079 -6 65 C-11.2580739 69.74509108 -14.60590429 70.14105196 -21.5078125 70.09765625 C-22.76874222 70.09553383 -22.76874222 70.09553383 -24.05514526 70.09336853 C-26.74513275 70.08776237 -29.43503759 70.07520886 -32.125 70.0625 C-33.94661338 70.05748579 -35.76822807 70.05292275 -37.58984375 70.04882812 C-42.05992777 70.03779094 -46.52994986 70.0205222 -51 70 C-51.33 69.34 -51.66 68.68 -52 68 C-50.97116699 68.01047363 -49.94233398 68.02094727 -48.88232422 68.03173828 C-45.04691072 68.06807599 -41.2115123 68.09095038 -37.37597656 68.10986328 C-35.71937497 68.11988957 -34.06279093 68.13351406 -32.40625 68.15087891 C-30.01818495 68.17527621 -27.63035492 68.18651694 -25.2421875 68.1953125 C-24.50757294 68.20563507 -23.77295837 68.21595764 -23.01608276 68.22659302 C-18.6069148 68.22754416 -15.09692277 67.61017374 -11 66 C-10.01 65.67 -9.02 65.34 -8 65 C-8 63.35 -8 61.7 -8 60 C-7.34 60 -6.68 60 -6 60 C-5.99191315 59.33014572 -5.98382629 58.66029144 -5.97549438 57.97013855 C-5.88957306 51.0110647 -5.790075 44.0522798 -5.68261719 37.09350586 C-5.64428568 34.49492233 -5.60944026 31.89628498 -5.578125 29.29760742 C-5.53256534 25.56669857 -5.47455538 21.8361616 -5.4140625 18.10546875 C-5.40251129 16.93976852 -5.39096008 15.7740683 -5.37905884 14.57304382 C-5.35918915 13.49214981 -5.33931946 12.4112558 -5.31884766 11.29760742 C-5.30552399 10.34496506 -5.29220032 9.39232269 -5.2784729 8.41081238 C-5 6 -5 6 -3 3 C-2.34 3 -1.68 3 -1 3 C-0.67 2.01 -0.34 1.02 0 0 Z " fill="#00290B" transform="translate(128,131)"/>
<path d="M0 0 C0.33 0 0.66 0 1 0 C1.33 2.64 1.66 5.28 2 8 C-1.75 9.125 -1.75 9.125 -4 8 C-4.309375 8.804375 -4.61875 9.60875 -4.9375 10.4375 C-6 13 -6 13 -7 14 C-8.6575762 14.09611419 -10.31926986 14.12187755 -11.97962952 14.12025452 C-13.59720909 14.12231651 -13.59720909 14.12231651 -15.24746704 14.12442017 C-16.4407663 14.12082489 -17.63406555 14.11722961 -18.86352539 14.11352539 C-20.11212845 14.11367142 -21.36073151 14.11381744 -22.64717102 14.1139679 C-26.08090994 14.11338891 -29.51458938 14.10835955 -32.94831777 14.10139394 C-36.53312459 14.09515998 -40.11793213 14.09455657 -43.70274353 14.09336853 C-50.49550045 14.09025534 -57.28824135 14.08204212 -64.08099121 14.07201904 C-71.81242494 14.06085753 -79.54385942 14.05534736 -87.27529919 14.05032361 C-103.18354208 14.03985949 -119.09176898 14.02226029 -135 14 C-135 13.67 -135 13.34 -135 13 C-94.41 13 -53.82 13 -12 13 C-12 12.34 -12 11.68 -12 11 C-10.68 11 -9.36 11 -8 11 C-8 10.01 -8 9.02 -8 8 C-6.8553125 7.319375 -6.8553125 7.319375 -5.6875 6.625 C-2.63880472 4.78160286 -1.66752301 3.08491757 0 0 Z " fill="#16FC7C" transform="translate(280,328)"/>
<path d="M0 0 C0.66 0.33 1.32 0.66 2 1 C2 1.66 2 2.32 2 3 C3.32338632 3.68620031 4.65949948 4.34786461 6 5 C6.70527832 5.34772461 7.41055664 5.69544922 8.13720703 6.05371094 C11.81651791 7.26989795 15.2864138 7.28659153 19.1171875 7.265625 C19.89256866 7.26753845 20.66794983 7.2694519 21.46682739 7.27142334 C23.10239996 7.2727803 24.73798347 7.26911807 26.37353516 7.26074219 C28.85995052 7.25006463 31.34563864 7.26063881 33.83203125 7.2734375 C35.42708491 7.27211525 37.02213812 7.2695515 38.6171875 7.265625 C39.72065018 7.27169769 39.72065018 7.27169769 40.84640503 7.27789307 C45.58236254 7.23548737 49.49901484 6.48728205 54 5 C53.67 5.99 53.34 6.98 53 8 C48.32968375 10.14002019 43.76664285 10.30776358 38.71484375 10.34375 C37.93613419 10.3583728 37.15742462 10.37299561 36.3551178 10.38806152 C33.04639482 10.44992658 29.73749359 10.4898804 26.4284668 10.53173828 C24.00289898 10.56557566 21.57771438 10.61064976 19.15234375 10.65625 C18.40951645 10.6615271 17.66668915 10.6668042 16.90135193 10.67224121 C12.84035582 10.7499519 9.65919174 11.20114798 6 13 C6 12.34 6 11.68 6 11 C3.69 10.67 1.38 10.34 -1 10 C-0.67 6.7 -0.34 3.4 0 0 Z " fill="#1DF580" transform="translate(65,194)"/>
<path d="M0 0 C0.33 0 0.66 0 1 0 C1.0093457 0.98282959 1.01869141 1.96565918 1.02832031 2.97827148 C1.06852615 6.66328428 1.13436512 10.34748874 1.20751953 14.03198242 C1.23555341 15.61944101 1.25685448 17.20703462 1.27099609 18.79467773 C1.02614372 31.58183037 1.02614372 31.58183037 6 43 C9.07471774 44.66916219 9.07471774 44.66916219 12 45 C12 45.66 12 46.32 12 47 C17.15950168 47.02480163 22.31896831 47.04290809 27.47851562 47.05493164 C29.23210251 47.05994651 30.98568524 47.06676002 32.73925781 47.07543945 C35.2662865 47.08763 37.79325968 47.09325688 40.3203125 47.09765625 C41.09867462 47.10281754 41.87703674 47.10797882 42.6789856 47.11329651 C46.9003949 47.1137272 50.84091388 46.8358664 55 46 C54 48 54 48 50.90014648 49.10620117 C45.11165455 50.61140244 39.17703374 50.33378629 33.23950195 50.31567383 C31.07126603 50.31251278 28.9043961 50.33602376 26.73632812 50.36132812 C10.73955187 50.43647629 10.73955187 50.43647629 5.49682617 45.61865234 C0.56793743 40.02749078 -0.29090438 35.81921799 -0.1953125 28.515625 C-0.1924826 27.70003113 -0.18965271 26.88443726 -0.18673706 26.04412842 C-0.17556558 23.44593472 -0.15046675 20.84808905 -0.125 18.25 C-0.11496627 16.48568207 -0.10584111 14.72135872 -0.09765625 12.95703125 C-0.07563619 8.63788727 -0.04112733 4.31900259 0 0 Z " fill="#01471B" transform="translate(169,183)"/>
<path d="M0 0 C0.99 0.33 1.98 0.66 3 1 C2.65066406 1.47050781 2.30132812 1.94101563 1.94140625 2.42578125 C1.48636719 3.04839844 1.03132813 3.67101562 0.5625 4.3125 C0.11003906 4.92738281 -0.34242187 5.54226562 -0.80859375 6.17578125 C-3.00329666 9.53619521 -3.12613531 12.39296027 -3.12939453 16.29418945 C-3.13254669 17.37573807 -3.13569885 18.45728668 -3.13894653 19.5716095 C-3.1369223 20.74036118 -3.13489807 21.90911285 -3.1328125 23.11328125 C-3.13376923 24.31558884 -3.13472595 25.51789642 -3.13571167 26.75663757 C-3.13639277 29.3028468 -3.13454336 31.84905777 -3.13037109 34.39526367 C-3.12503588 38.28633552 -3.13031127 42.1772912 -3.13671875 46.06835938 C-3.13605768 48.54166692 -3.13477593 51.01497439 -3.1328125 53.48828125 C-3.13483673 54.65096024 -3.13686096 55.81363922 -3.13894653 57.0115509 C-3.13421829 58.64805855 -3.13421829 58.64805855 -3.12939453 60.31762695 C-3.12859894 61.27232376 -3.12780334 62.22702057 -3.12698364 63.21064758 C-2.99067302 66.20487853 -2.54764768 69.05548063 -2 72 C-2.66 72 -3.32 72 -4 72 C-5.50994856 67.94651551 -6.2516757 64.5779711 -6.25878906 60.25756836 C-6.26824554 58.60071266 -6.26824554 58.60071266 -6.27789307 56.91038513 C-6.2738446 55.73210648 -6.26979614 54.55382782 -6.265625 53.33984375 C-6.26753845 52.11721329 -6.2694519 50.89458282 -6.27142334 49.63490295 C-6.27278191 47.05534661 -6.26910845 44.47578336 -6.26074219 41.89624023 C-6.25002917 37.94824891 -6.26065371 34.00071167 -6.2734375 30.05273438 C-6.27211603 27.54426983 -6.26955389 25.03580557 -6.265625 22.52734375 C-6.26967346 21.34704086 -6.27372192 20.16673798 -6.27789307 18.95066833 C-6.27158875 17.84925003 -6.26528442 16.74783173 -6.25878906 15.61303711 C-6.25719788 14.64740341 -6.25560669 13.68176971 -6.25396729 12.68687439 C-5.97780783 9.76521558 -5.31298092 7.61889716 -4 5 C-3.34 4.67 -2.68 4.34 -2 4 C-2 3.01 -2 2.02 -2 1 C-1.34 0.67 -0.68 0.34 0 0 Z " fill="#2EEE87" transform="translate(67,122)"/>
<path d="M0 0 C1.2657637 -0.01354271 1.2657637 -0.01354271 2.55709839 -0.02735901 C4.34759973 -0.04188663 6.13815446 -0.05075447 7.92871094 -0.05444336 C10.64872099 -0.06627159 13.36641131 -0.11537038 16.0859375 -0.16601562 C17.82811397 -0.17548801 19.57030434 -0.18271914 21.3125 -0.1875 C22.5207695 -0.21679848 22.5207695 -0.21679848 23.75344849 -0.24668884 C29.73824595 -0.19967884 34.09873326 1.26812911 38.5546875 5.37109375 C41.77599133 10.65447651 41.9643925 15.37294244 41.84765625 21.3671875 C41.84341141 22.20073257 41.83916656 23.03427765 41.83479309 23.89308167 C41.81812064 26.53192686 41.78049108 29.16998291 41.7421875 31.80859375 C41.72712583 33.60741078 41.71344003 35.40623988 41.70117188 37.20507812 C41.66825478 41.5940499 41.61655317 45.98243844 41.5546875 50.37109375 C41.2246875 50.37109375 40.8946875 50.37109375 40.5546875 50.37109375 C40.5453418 49.2816748 40.53599609 48.19225586 40.52636719 47.06982422 C40.48635769 43.01033321 40.42056921 38.95159134 40.34716797 34.89257812 C40.31902166 33.13909563 40.29777565 31.38548776 40.28369141 29.63183594 C40.26217323 27.10416776 40.21548048 24.57799691 40.1640625 22.05078125 C40.16283386 21.27241913 40.16160522 20.49405701 40.16033936 19.69210815 C40.02189454 14.49434668 39.06322244 11.43603864 35.5546875 7.37109375 C30.59700883 3.02620269 26.51315525 2.7708819 20.21875 2.76171875 C19.33939789 2.7451825 18.46004578 2.72864624 17.55404663 2.71160889 C14.76252158 2.66326461 11.97154074 2.6417884 9.1796875 2.62109375 C7.27992074 2.59292267 5.38017918 2.56299365 3.48046875 2.53125 C-1.1614135 2.45750941 -5.80299605 2.40785202 -10.4453125 2.37109375 C-7.43750772 -0.63671103 -4.03698331 0.02647699 0 0 Z " fill="#3BD280" transform="translate(190.4453125,168.62890625)"/>
<path d="M0 0 C0.84717087 -0.00807175 1.69434174 -0.01614349 2.56718445 -0.02445984 C4.36011721 -0.03828565 6.15307613 -0.04901453 7.94604492 -0.05688477 C10.67873381 -0.07408978 13.41021001 -0.11798724 16.14257812 -0.16210938 C17.88670988 -0.17223762 19.63085189 -0.18075331 21.375 -0.1875 C22.18769852 -0.20500809 23.00039703 -0.22251617 23.83772278 -0.24055481 C30.11832049 -0.21671291 33.62081278 1.65676901 38.26171875 5.98828125 C38.63296875 6.40078125 39.00421875 6.81328125 39.38671875 7.23828125 C39.05671875 8.22828125 38.72671875 9.21828125 38.38671875 10.23828125 C36.921875 8.96875 35.45703125 7.69921875 33.9921875 6.4296875 C32.27958904 5.02956894 32.27958904 5.02956894 29.38671875 4.23828125 C29.38671875 3.57828125 29.38671875 2.91828125 29.38671875 2.23828125 C28.70730225 2.4086792 28.02788574 2.57907715 27.32788086 2.75463867 C23.88973539 3.32000484 20.8067748 3.18113554 17.328125 2.9765625 C15.95902889 2.90860243 14.58988628 2.84157377 13.22070312 2.77539062 C11.08280405 2.66615132 8.94595548 2.55057983 6.80932617 2.41870117 C4.73276709 2.29362454 2.65628949 2.19563914 0.578125 2.1015625 C-0.65736084 2.03235596 -1.89284668 1.96314941 -3.16577148 1.8918457 C-7.30270593 2.30756059 -9.32027162 3.78722919 -12.61328125 6.23828125 C-13.27328125 6.23828125 -13.93328125 6.23828125 -14.61328125 6.23828125 C-14.94328125 6.89828125 -15.27328125 7.55828125 -15.61328125 8.23828125 C-16.27328125 7.57828125 -16.93328125 6.91828125 -17.61328125 6.23828125 C-11.64812171 1.06847631 -7.97095921 0.07191378 0 0 Z " fill="#03290C" transform="translate(189.61328125,170.76171875)"/>
<path d="M0 0 C0 0.66 0 1.32 0 2 C-6.50410247 2.98602507 -12.80214816 3.10374273 -19.37304688 3.02172852 C-21.04265976 3.0073172 -21.04265976 3.0073172 -22.7460022 2.99261475 C-26.40365249 2.95978802 -30.06117717 2.91939395 -33.71875 2.87890625 C-36.26321986 2.85458917 -38.80769429 2.83074641 -41.35217285 2.80735779 C-47.35141774 2.75107239 -53.35059565 2.69002424 -59.34976816 2.62663645 C-66.18412438 2.55469221 -73.01853544 2.48888105 -79.85295773 2.42356598 C-93.90204299 2.28916555 -107.95104264 2.1471251 -122 2 C-122 1.67 -122 1.34 -122 1 C-106.97910519 0.86930038 -91.95820781 0.7388982 -76.93730736 0.60884857 C-69.96259821 0.54845525 -62.98788992 0.48796517 -56.01318359 0.42724609 C-49.28291651 0.36865528 -42.55264713 0.31033573 -35.82237625 0.25218201 C-33.2539525 0.22994481 -30.68552954 0.20761654 -28.11710739 0.18519592 C-24.52127025 0.15382218 -20.92543045 0.12277151 -17.32958984 0.09179688 C-15.73491882 0.07777077 -15.73491882 0.07777077 -14.10803223 0.0634613 C-9.40519686 0.02325934 -4.70306455 -0.01177316 0 0 Z " fill="#091306" transform="translate(266,123)"/>
<path d="M0 0 C1 3 1 3 0 6 C-0.10427749 7.50156509 -0.15571439 9.00713155 -0.17358398 10.51220703 C-0.18707382 11.42390656 -0.20056366 12.33560608 -0.21446228 13.27493286 C-0.23011986 14.75145828 -0.23011986 14.75145828 -0.24609375 16.2578125 C-0.27905025 18.34896223 -0.31226158 20.44010797 -0.34570312 22.53125 C-0.39296675 25.82256138 -0.4373665 29.11385869 -0.47680664 32.40527344 C-0.51678644 35.58546309 -0.56828518 38.7653135 -0.62109375 41.9453125 C-0.6295079 42.9175174 -0.63792206 43.88972229 -0.64659119 44.89138794 C-0.9292724 60.69878479 -0.9292724 60.69878479 -6 66 C-6.66 65.34 -7.32 64.68 -8 64 C-7.35039307 63.09008301 -6.70078613 62.18016602 -6.03149414 61.24267578 C-3.10622329 56.09107192 -3.45247736 50.9040216 -3.49609375 45.1171875 C-3.48667252 43.98475616 -3.47725128 42.85232483 -3.46754456 41.68557739 C-3.43895599 38.08186583 -3.43581485 34.47881569 -3.4375 30.875 C-3.43389251 27.26414027 -3.42437706 23.65375887 -3.39674377 20.04299927 C-3.37995314 17.80044617 -3.37708126 15.55773517 -3.38975525 13.31515503 C-3.32674914 3.99605873 -3.32674914 3.99605873 0 0 Z " fill="#01270F" transform="translate(278,207)"/>
<path d="M0 0 C0.97854084 3.24988509 1.09161558 6.11728983 1.02172852 9.50292969 C1.00163223 10.60376892 0.98153595 11.70460815 0.96083069 12.83880615 C0.93379562 14.02121887 0.90676056 15.20363159 0.87890625 16.421875 C0.85529526 17.63699768 0.83168427 18.85212036 0.80735779 20.10406494 C0.7307682 23.98616351 0.64672307 27.86806026 0.5625 31.75 C0.50927464 34.38150053 0.45653427 37.01301092 0.40429688 39.64453125 C0.27515932 46.09647912 0.13989974 52.54827701 0 59 C-1.98 59.495 -1.98 59.495 -4 60 C-3.75787025 58.92293541 -3.75787025 58.92293541 -3.510849 57.82411194 C-3.01633858 55.09032411 -2.85630632 52.58846901 -2.82641602 49.81420898 C-2.81292618 48.80643906 -2.79943634 47.79866913 -2.78553772 46.76036072 C-2.77509933 45.68315262 -2.76466095 44.60594452 -2.75390625 43.49609375 C-2.72098469 41.20637614 -2.68777278 38.91666269 -2.65429688 36.62695312 C-2.6067897 33.02354634 -2.56231175 29.42015842 -2.52319336 25.81665039 C-2.48354126 22.33462635 -2.43200013 18.8529351 -2.37890625 15.37109375 C-2.3704921 14.29186142 -2.36207794 13.21262909 -2.35340881 12.10069275 C-2.33676682 11.09607498 -2.32012482 10.09145721 -2.30297852 9.05639648 C-2.29267105 8.17435043 -2.28236359 7.29230438 -2.27174377 6.38352966 C-1.9825325 3.84678834 -1.27710029 2.19211548 0 0 Z " fill="#3BDF83" transform="translate(127,135)"/>
<path d="M0 0 C0.33 0 0.66 0 1 0 C1.21698236 5.64116126 1.41385617 11.28252856 1.59204102 16.92504883 C1.65550909 18.84483642 1.72449015 20.76444994 1.79907227 22.68383789 C1.90526548 25.44129801 1.99168026 28.1987744 2.07421875 30.95703125 C2.11157639 31.81649857 2.14893402 32.67596588 2.18742371 33.56147766 C2.20767105 34.36208115 2.2279184 35.16268463 2.2487793 35.98754883 C2.27320602 36.6914827 2.29763275 37.39541656 2.32279968 38.12068176 C1.9021089 40.56991546 0.80178057 41.35711524 -1 43 C-1.165 43.70125 -1.33 44.4025 -1.5 45.125 C-1.665 45.74375 -1.83 46.3625 -2 47 C-3.485 47.495 -3.485 47.495 -5 48 C-5.66 47.67 -6.32 47.34 -7 47 C-7.33 47.99 -7.66 48.98 -8 50 C-12.75016635 52.2012966 -16.88081854 52.1765235 -22 52 C-22 51.67 -22 51.34 -22 51 C-20.02 51 -18.04 51 -16 51 C-16 50.34 -16 49.68 -16 49 C-14.783125 48.62875 -13.56625 48.2575 -12.3125 47.875 C-7.06129073 45.91392893 -4.95278293 42.95458555 -1.89306641 38.32519531 C-0.56299491 34.86220983 -0.6411061 31.3966658 -0.5859375 27.734375 C-0.56657135 26.94097717 -0.5472052 26.14757935 -0.5272522 25.33013916 C-0.46761639 22.80353443 -0.42113557 20.27688375 -0.375 17.75 C-0.33680545 16.03383463 -0.29775285 14.31768813 -0.2578125 12.6015625 C-0.16192814 8.40119544 -0.07783833 4.20073866 0 0 Z " fill="#2EE683" transform="translate(232,183)"/>
<path d="M0 0 C2.58007557 2.58007557 2.25830637 4.348492 2.30354309 7.86639404 C2.30263168 8.66845276 2.30172028 9.47051147 2.30078125 10.296875 C2.30506638 11.12326477 2.3093515 11.94965454 2.31376648 12.80108643 C2.31951621 14.55292851 2.32000532 16.30479446 2.31567383 18.05664062 C2.31252866 20.72568129 2.33591236 23.39359769 2.36132812 26.0625 C2.36360267 27.76562361 2.36430389 29.46875018 2.36328125 31.171875 C2.372491 31.96583679 2.38170074 32.75979858 2.39118958 33.57781982 C2.35091715 38.45205257 1.6654257 41.76338024 -1 46 C-3.1875 47.875 -3.1875 47.875 -5 49 C-4.71125 48.443125 -4.4225 47.88625 -4.125 47.3125 C-1.80560312 42.54485086 -0.74954716 38.99403554 -0.76953125 33.6328125 C-0.77146484 32.41722656 -0.77339844 31.20164063 -0.77539062 29.94921875 C-0.78763672 28.68722656 -0.79988281 27.42523438 -0.8125 26.125 C-0.81314453 24.87074219 -0.81378906 23.61648437 -0.81445312 22.32421875 C-0.84238603 16.4583095 -0.92280064 10.77378855 -2 5 C-1.67 5 -1.34 5 -1 5 C-0.67 3.35 -0.34 1.7 0 0 Z " fill="#014010" transform="translate(229,180)"/>
<path d="M0 0 C0.66 0 1.32 0 2 0 C1.67 2.31 1.34 4.62 1 7 C0.01 7.33 -0.98 7.66 -2 8 C-2.0093457 8.93271729 -2.01869141 9.86543457 -2.02832031 10.82641602 C-2.07254616 14.31397103 -2.1342517 17.80033354 -2.20751953 21.28735352 C-2.23560373 22.79147193 -2.25688032 24.29573448 -2.27099609 25.80004883 C-2.29260229 27.97291184 -2.33933432 30.14406475 -2.390625 32.31640625 C-2.41157227 33.62037354 -2.43251953 34.92434082 -2.45410156 36.26782227 C-3.12370298 40.84572783 -4.39359344 43.20162467 -7 47 C-9.75 48.4375 -9.75 48.4375 -12 49 C-10.73046875 47.53515625 -9.4609375 46.0703125 -8.19140625 44.60546875 C-5.55092293 41.04730926 -5.84919913 37.39897105 -5.7890625 33.13671875 C-5.76098627 31.76105597 -5.73232176 30.38540508 -5.703125 29.00976562 C-5.66195739 26.85067173 -5.62505259 24.69179823 -5.59863281 22.5324707 C-5.57086199 20.44175837 -5.52499011 18.35204151 -5.4765625 16.26171875 C-5.45674316 15.01350342 -5.43692383 13.76528809 -5.41650391 12.47924805 C-4.81902519 7.48823446 -2.75132673 4.12699009 0 0 Z " fill="#013211" transform="translate(123,69)"/>
<path d="M0 0 C4.1311088 2.90294132 6.11704409 5.31687249 8 10 C8.27078885 12.84124094 8.39851051 15.45142512 8.36328125 18.28515625 C8.36377975 19.06386581 8.36427826 19.84257538 8.36479187 20.6448822 C8.36246201 22.28289354 8.35279807 23.92090918 8.33618164 25.55883789 C8.31253847 28.05843254 8.31563518 30.55696208 8.32226562 33.05664062 C8.31668954 34.65365216 8.3095801 36.25065922 8.30078125 37.84765625 C8.30214836 38.9618972 8.30214836 38.9618972 8.30354309 40.09864807 C8.24824868 44.16510909 7.80501605 47.33831901 6 51 C4.69189857 47.07569572 4.91623926 43.36712162 4.97265625 39.28125 C4.98529963 37.5273457 4.9976608 35.77343935 5.00976562 34.01953125 C5.0346175 31.25432961 5.06262972 28.48923419 5.09594727 25.72412109 C5.12610343 23.05565705 5.14390782 20.38732981 5.16015625 17.71875 C5.17361588 16.89056763 5.1870755 16.06238525 5.20094299 15.20910645 C5.2249506 10.3126043 5.2249506 10.3126043 3 6 C2.01 5.67 1.02 5.34 0 5 C0 3.35 0 1.7 0 0 Z " fill="#044C21" transform="translate(267,68)"/>
<path d="M0 0 C1.65 0 3.3 0 5 0 C3.96848526 2.99139274 3.10458139 3.93627661 0.35913086 5.60913086 C-3.38012417 7.15739279 -6.08687477 7.39701575 -10.12109375 7.44140625 C-10.78407974 7.45461411 -11.44706573 7.46782196 -12.13014221 7.48143005 C-14.23263797 7.52201639 -16.33470366 7.54389546 -18.4375 7.5625 C-20.53659136 7.58643849 -22.63528692 7.61480333 -24.73414612 7.65428162 C-26.6408791 7.68946482 -28.54787315 7.70955333 -30.45483398 7.72875977 C-34.28029399 8.02144526 -37.36181399 8.82886504 -41 10 C-37.4212543 5.85432429 -33.23903137 5.65466855 -28 5 C-23.12696902 4.64985037 -18.25852767 4.49570511 -13.375 4.375 C-11.43947266 4.31699219 -11.43947266 4.31699219 -9.46484375 4.2578125 C-6.3100313 4.16433658 -3.15521273 4.07857687 0 4 C0 2.68 0 1.36 0 0 Z " fill="#022E0E" transform="translate(328,276)"/>
<path d="M0 0 C3.45460535 3.72767065 4.50090073 5.94005003 4.50170898 11.01196289 C4.51108994 12.19991959 4.52047089 13.38787628 4.53013611 14.61183167 C4.51890213 15.88590378 4.50766815 17.15997589 4.49609375 18.47265625 C4.49754898 19.78785751 4.49900421 21.10305878 4.50050354 22.45811462 C4.50188512 25.23635976 4.48936952 28.01408711 4.46655273 30.79223633 C4.43814012 34.34890548 4.44091568 37.90471669 4.45364285 41.46144962 C4.46227782 44.86110813 4.4471532 48.26051222 4.43359375 51.66015625 C4.43652939 52.93625259 4.43946503 54.21234894 4.44248962 55.52711487 C4.42346336 57.30432167 4.42346336 57.30432167 4.40405273 59.11743164 C4.39864975 60.15936172 4.39324677 61.20129181 4.38768005 62.27479553 C3.95114866 65.34340148 3.05421613 66.72626846 1 69 C0.95758277 66.66705225 0.95907063 64.33297433 1 62 C1.495 61.505 1.495 61.505 2 61 C2.10389501 59.35885482 2.13852565 57.71326435 2.14526367 56.06884766 C2.15164352 55.01750641 2.15802338 53.96616516 2.16459656 52.88296509 C2.16570938 51.73822723 2.1668222 50.59348938 2.16796875 49.4140625 C2.17129715 48.24620209 2.17462555 47.07834167 2.17805481 45.87509155 C2.18312949 43.39850256 2.18546297 40.92190669 2.18530273 38.4453125 C2.18748659 34.64832311 2.20562962 30.85162531 2.22460938 27.0546875 C2.22754365 24.65364683 2.22952822 22.25260478 2.23046875 19.8515625 C2.23765427 18.71087311 2.24483978 17.57018372 2.25224304 16.39492798 C2.24916641 15.33728241 2.24608978 14.27963684 2.24291992 13.18994141 C2.24434494 12.25808014 2.24576996 11.32621887 2.24723816 10.36611938 C2.15748749 7.73223686 2.15748749 7.73223686 0 5 C-0.125 2.3125 -0.125 2.3125 0 0 Z " fill="#002E0C" transform="translate(332,207)"/>
<path d="M0 0 C0.99 0.33 1.98 0.66 3 1 C2 3 2 3 -0.6875 4.0625 C-5.48200486 6.86683303 -7.87700116 9.84611694 -10 15 C-11.10167855 21.10417227 -10.88705713 27.38261841 -10.875 33.5625 C-10.89315099 35.25589025 -10.91396118 36.9492542 -10.9375 38.64257812 C-10.98902981 42.76205454 -11.00445347 46.88021925 -11 51 C-11.33 51 -11.66 51 -12 51 C-12.02477057 45.82218777 -12.04289347 40.64441025 -12.05493164 35.46655273 C-12.0599517 33.70612995 -12.0667691 31.94571132 -12.07543945 30.18530273 C-12.08760703 27.65086846 -12.09325166 25.11648946 -12.09765625 22.58203125 C-12.10281754 21.79850784 -12.10797882 21.01498444 -12.11329651 20.2077179 C-12.11369066 16.34408861 -11.9444276 12.754835 -11 9 C-10.01 9 -9.02 9 -8 9 C-8.0825 8.236875 -8.165 7.47375 -8.25 6.6875 C-8 4 -8 4 -6.25 2.125 C-4 1 -4 1 -1.75 1.3125 C-1.1725 1.539375 -0.595 1.76625 0 2 C0 1.34 0 0.68 0 0 Z " fill="#2DEA84" transform="translate(179,169)"/>
<path d="M0 0 C0.66 0 1.32 0 2 0 C2.33 13.53 2.66 27.06 3 41 C2.01 40.34 1.02 39.68 0 39 C-0.26653946 36.0204901 -0.34767784 33.2511418 -0.29296875 30.2734375 C-0.28872391 29.41062164 -0.28447906 28.54780579 -0.28010559 27.65884399 C-0.26328392 24.89724803 -0.22562598 22.13637617 -0.1875 19.375 C-0.17245764 17.50521886 -0.15876846 15.6354263 -0.14648438 13.765625 C-0.11336906 9.17680342 -0.06156339 4.58852456 0 0 Z " fill="#3CE188" transform="translate(123,288)"/>
<path d="M0 0 C0.99 0.33 1.98 0.66 3 1 C2.360625 1.928125 1.72125 2.85625 1.0625 3.8125 C-1.95159458 8.47064617 -2.12825146 11.62089299 -2.17578125 17.08203125 C-2.1989846 18.50326994 -2.22310215 19.92449394 -2.24804688 21.34570312 C-2.28309603 23.5773292 -2.31247538 25.80841588 -2.32592773 28.0402832 C-2.34148401 30.20069125 -2.38173814 32.35953986 -2.42578125 34.51953125 C-2.44036377 35.80964111 -2.45494629 37.09975098 -2.4699707 38.42895508 C-3.08698123 42.58603154 -4.36042989 44.76427142 -7 48 C-9.75 49.375 -9.75 49.375 -12 50 C-11.67 49.01 -11.34 48.02 -11 47 C-10.01 47 -9.02 47 -8 47 C-4.51826386 38.01645756 -4.55613014 29.32802686 -4.56420898 19.79614258 C-4.53891457 5.94660975 -4.53891457 5.94660975 0 0 Z " fill="#01300D" transform="translate(284,286)"/>
<path d="M0 0 C8.91 0 17.82 0 27 0 C27 0.66 27 1.32 27 2 C18.42 2 9.84 2 1 2 C1 2.99 1 3.98 1 5 C-0.32 5.33 -1.64 5.66 -3 6 C-3 5.01 -3 4.02 -3 3 C-3.66 2.67 -4.32 2.34 -5 2 C-3.35 2 -1.7 2 0 2 C0 1.34 0 0.68 0 0 Z " fill="#061810" transform="translate(77,121)"/>
<path d="M0 0 C2.31 0 4.62 0 7 0 C6.67563965 0.84312744 6.3512793 1.68625488 6.01708984 2.55493164 C4.92662782 6.24852491 4.74530663 9.27677442 4.7265625 13.12109375 C4.70627661 14.48243014 4.68542588 15.84375821 4.6640625 17.20507812 C4.64149846 19.32241914 4.62499467 21.43942909 4.61914062 23.55688477 C4.55139542 38.13395849 4.55139542 38.13395849 0 44 C-0.33 44 -0.66 44 -1 44 C-1 42.35 -1 40.7 -1 39 C-0.34 39 0.32 39 1 39 C2.20161511 35.39515466 2.23017136 32.02710143 2.31640625 28.26953125 C2.33718735 27.51911057 2.35796844 26.76868988 2.37937927 25.99552917 C2.44469926 23.60127816 2.50367792 21.20691861 2.5625 18.8125 C2.60570193 17.18813987 2.64931676 15.56379067 2.69335938 13.93945312 C2.80036263 9.95974629 2.90167937 5.97993042 3 2 C2.01 2 1.02 2 0 2 C0 1.34 0 0.68 0 0 Z " fill="#41E48A" transform="translate(114,72)"/>
<path d="M0 0 C0.82056885 0.32452148 1.6411377 0.64904297 2.48657227 0.98339844 C6.46259692 2.13385127 10.11646784 2.28821379 14.21484375 2.265625 C14.98880997 2.26753845 15.76277618 2.2694519 16.56019592 2.27142334 C18.18979214 2.2727784 19.81939941 2.26912959 21.44897461 2.26074219 C23.92651951 2.2500474 26.40333701 2.26065283 28.88085938 2.2734375 C30.47135575 2.2721155 32.06185168 2.26955227 33.65234375 2.265625 C34.38484848 2.26967346 35.11735321 2.27372192 35.87205505 2.27789307 C40.59841339 2.23537842 44.50784318 1.48326975 49 0 C48.67 0.99 48.34 1.98 48 3 C45.21938025 3.92687325 43.57948141 4.12193396 40.7121582 4.11352539 C39.85149246 4.11344986 38.99082672 4.11337433 38.1040802 4.11329651 C37.17899155 4.10813522 36.25390289 4.10297394 35.30078125 4.09765625 C34.35059616 4.0962413 33.40041107 4.09482635 32.4214325 4.09336853 C29.38508971 4.08776875 26.34882052 4.07521632 23.3125 4.0625 C21.25455836 4.05748497 19.19661556 4.05292207 17.13867188 4.04882812 C12.09241954 4.0377994 7.04622225 4.02053493 2 4 C1.34 2.68 0.68 1.36 0 0 Z " fill="#38E185" transform="translate(70,199)"/>
<path d="M0 0 C1.31902817 0.00848969 1.31902817 0.00848969 2.66470337 0.01715088 C5.45672432 0.03943416 8.24743342 0.08961437 11.0390625 0.140625 C12.93878347 0.16070046 14.83852468 0.17894939 16.73828125 0.1953125 C21.38070916 0.23927244 26.02216387 0.30824318 30.6640625 0.390625 C30.6640625 0.720625 30.6640625 1.050625 30.6640625 1.390625 C29.61017334 1.40520752 28.55628418 1.41979004 27.47045898 1.43481445 C23.53588037 1.49307445 19.60185757 1.57030404 15.66772461 1.65307617 C13.96957464 1.68619583 12.27131802 1.71426761 10.57299805 1.73706055 C8.12242463 1.77084669 5.67281719 1.82317139 3.22265625 1.87890625 C2.47132919 1.88529617 1.72000214 1.8916861 0.94590759 1.89826965 C-2.829167 2.00202211 -5.73214472 2.39685386 -9.18334961 3.98510742 C-12.3359375 5.390625 -12.3359375 5.390625 -15.3359375 4.390625 C-10.21797741 0.20649356 -6.49419437 -0.15885804 0 0 Z " fill="#002D0A" transform="translate(294.3359375,201.609375)"/>
<path d="M0 0 C0.33 0.66 0.66 1.32 1 2 C1.66 2 2.32 2 3 2 C3 15.2 3 28.4 3 42 C2.34 41.67 1.68 41.34 1 41 C1.00523682 39.97116699 1.01047363 38.94233398 1.01586914 37.88232422 C1.03403812 34.04688393 1.04547535 30.21144741 1.05493164 26.37597656 C1.05994473 24.71939452 1.06675689 23.06281687 1.07543945 21.40625 C1.08763793 19.01821811 1.09325867 16.63024498 1.09765625 14.2421875 C1.10281754 13.50757294 1.10797882 12.77295837 1.11329651 12.01608276 C1.11374023 7.90221178 0.80210299 4.03549391 0 0 Z " fill="#25F381" transform="translate(274,74)"/>
<path d="M0 0 C0.33 0 0.66 0 1 0 C1.33 2.64 1.66 5.28 2 8 C-1.75 9.125 -1.75 9.125 -4 8 C-4.28875 8.804375 -4.5775 9.60875 -4.875 10.4375 C-6 13 -6 13 -8 14 C-8.3125 11.1875 -8.3125 11.1875 -8 8 C-5.6875 6.4375 -5.6875 6.4375 -3 5 C-1.26509754 2.41556677 -1.26509754 2.41556677 0 0 Z " fill="#24E87F" transform="translate(280,328)"/>
<path d="M0 0 C0.85609863 0.15847412 1.71219727 0.31694824 2.59423828 0.48022461 C5.92449977 0.98847742 9.12698945 1.20423298 12.4921875 1.31640625 C13.69101563 1.35830078 14.88984375 1.40019531 16.125 1.44335938 C17.98125 1.50233398 17.98125 1.50233398 19.875 1.5625 C21.13570312 1.60568359 22.39640625 1.64886719 23.6953125 1.69335938 C26.79677423 1.79909102 29.89831145 1.90118571 33 2 C33 2.33 33 2.66 33 3 C21.78 3.33 10.56 3.66 -1 4 C-0.67 2.68 -0.34 1.36 0 0 Z " fill="#20F782" transform="translate(177,232)"/>
<path d="M0 0 C0.33 0 0.66 0 1 0 C1 11.88 1 23.76 1 36 C0.67 36 0.34 36 0 36 C-0.02505615 35.30962646 -0.0501123 34.61925293 -0.07592773 33.90795898 C-0.1926566 30.75098591 -0.31503178 27.59425543 -0.4375 24.4375 C-0.47681641 23.35146484 -0.51613281 22.26542969 -0.55664062 21.14648438 C-0.77201355 15.69589254 -1.08159222 10.37924559 -2 5 C-1.67 5 -1.34 5 -1 5 C-0.67 3.35 -0.34 1.7 0 0 Z " fill="#02220A" transform="translate(229,180)"/>
<path d="M0 0 C0.33 0 0.66 0 1 0 C1 9.24 1 18.48 1 28 C0.34 28.33 -0.32 28.66 -1 29 C-1.8540108 24.25549557 -1.80727077 20.70907947 -1 16 C-0.7493662 13.21174198 -0.59165818 10.42006471 -0.4375 7.625 C-0.39431641 6.88894531 -0.35113281 6.15289062 -0.30664062 5.39453125 C-0.20156201 3.59651932 -0.10037907 1.79828042 0 0 Z " fill="#1FF77F" transform="translate(116,80)"/>
<path d="M0 0 C10.57536467 0.89303079 10.57536467 0.89303079 15 3 C16.9375 5.375 16.9375 5.375 18 8 C17.6875 10.3125 17.6875 10.3125 17 12 C16.505 11.0925 16.01 10.185 15.5 9.25 C12.32059855 4.46392593 7.41675313 2.60418828 2 1.25 C1.34 1.1675 0.68 1.085 0 1 C0 0.67 0 0.34 0 0 Z " fill="#30DB80" transform="translate(256,64)"/>
<path d="M0 0 C0.66 0.66 1.32 1.32 2 2 C1.625 4.125 1.625 4.125 1 6 C1.66 6 2.32 6 3 6 C2.34 12.6 1.68 19.2 1 26 C0.67 26 0.34 26 0 26 C0 17.42 0 8.84 0 0 Z " fill="#08160B" transform="translate(171,182)"/>
<path d="M0 0 C0.66 0 1.32 0 2 0 C2.8125 2.1875 2.8125 2.1875 3 5 C0.75 7.5625 0.75 7.5625 -2 10 C-3.02813611 11.31175986 -4.04084432 12.6369893 -5 14 C-4.74438677 11.6568787 -4.40729228 9.32156597 -4 7 C-3.34 6.67 -2.68 6.34 -2 6 C-1.27306096 4.02111039 -0.60183749 2.02045442 0 0 Z " fill="#29E881" transform="translate(130,274)"/>
<path d="M0 0 C0.33 0 0.66 0 1 0 C1.37121722 7.54808339 1.37121722 7.54808339 -0.4375 9.75 C-1.2109375 10.36875 -1.2109375 10.36875 -2 11 C-2.165 11.70125 -2.33 12.4025 -2.5 13.125 C-2.665 13.74375 -2.83 14.3625 -3 15 C-3.99 15.33 -4.98 15.66 -6 16 C-6.33 15.34 -6.66 14.68 -7 14 C-6.34 14 -5.68 14 -5 14 C-3.07794619 9.41664092 -1.54269924 4.72065967 0 0 Z " fill="#23F684" transform="translate(233,215)"/>
<path d="M0 0 C0.33 0.99 0.66 1.98 1 3 C-3.75 6 -3.75 6 -6 6 C-6.33 6.66 -6.66 7.32 -7 8 C-7.66 7.34 -8.32 6.68 -9 6 C-3.375 1.125 -3.375 1.125 0 0 Z " fill="#053312" transform="translate(181,171)"/>
<path d="M0 0 C1.0828125 1.11375 1.0828125 1.11375 2.1875 2.25 C4.68592573 4.69290515 7.23643202 6.8681047 10 9 C7.69 9.33 5.38 9.66 3 10 C2.87625 9.195625 2.7525 8.39125 2.625 7.5625 C2.315625 6.2940625 2.315625 6.2940625 2 5 C1.34 4.67 0.68 4.34 0 4 C0 2.68 0 1.36 0 0 Z " fill="#2FE480" transform="translate(126,329)"/>
<path d="M0 0 C0.66 0.66 1.32 1.32 2 2 C-2.625 7.75 -2.625 7.75 -6 10 C-6.99 9.67 -7.98 9.34 -9 9 C-8.67 8.34 -8.34 7.68 -8 7 C-6.68 7 -5.36 7 -4 7 C-4 6.34 -4 5.68 -4 5 C-3.34 5 -2.68 5 -2 5 C-2 4.01 -2 3.02 -2 2 C-1.34 2 -0.68 2 0 2 C0 1.34 0 0.68 0 0 Z " fill="#35DC83" transform="translate(271,266)"/>
<path d="M0 0 C0.33 0 0.66 0 1 0 C2.56659619 6.98942918 2.56659619 6.98942918 0.953125 9.8671875 C-0.4375 11.5 -0.4375 11.5 -3 14 C-3.33 13.01 -3.66 12.02 -4 11 C-3.34 11 -2.68 11 -2 11 C-2 9.35 -2 7.7 -2 6 C-1.34 6 -0.68 6 0 6 C0 4.02 0 2.04 0 0 Z " fill="#093217" transform="translate(122,185)"/>
<path d="M0 0 C0.99 0.33 1.98 0.66 3 1 C2.25 2.9375 2.25 2.9375 1 5 C-0.33333333 5.33333333 -1.66666667 5.66666667 -3 6 C-4.28436734 7.9837767 -4.28436734 7.9837767 -5 10 C-5 8.02 -5 6.04 -5 4 C-4.01 4 -3.02 4 -2 4 C-1.34 2.68 -0.68 1.36 0 0 Z " fill="#22F585" transform="translate(133,130)"/>
<path d="M0 0 C-0.33 0.99 -0.66 1.98 -1 3 C-3.06640625 3.73046875 -3.06640625 3.73046875 -5.5625 4.1875 C-6.38878906 4.34605469 -7.21507812 4.50460938 -8.06640625 4.66796875 C-9.02353516 4.83232422 -9.02353516 4.83232422 -10 5 C-5.16129032 0 -5.16129032 0 0 0 Z " fill="#043812" transform="translate(289,202)"/>
<path d="M0 0 C0.99 0.33 1.98 0.66 3 1 C2.66226563 1.47050781 2.32453125 1.94101563 1.9765625 2.42578125 C1.30753906 3.35970703 1.30753906 3.35970703 0.625 4.3125 C0.18414062 4.92738281 -0.25671875 5.54226562 -0.7109375 6.17578125 C-1.83410907 7.7652392 -2.92041447 9.38062171 -4 11 C-4 9.02 -4 7.04 -4 5 C-3.34 4.67 -2.68 4.34 -2 4 C-2 3.01 -2 2.02 -2 1 C-1.34 0.67 -0.68 0.34 0 0 Z " fill="#31DE83" transform="translate(67,122)"/>
<path d="M0 0 C2.31 0 4.62 0 7 0 C6.01 2.64 5.02 5.28 4 8 C3.67 8 3.34 8 3 8 C3 6.02 3 4.04 3 2 C2.01 2 1.02 2 0 2 C0 1.34 0 0.68 0 0 Z " fill="#2BEA7F" transform="translate(114,72)"/>
<path d="M0 0 C0.66 0 1.32 0 2 0 C1.34 3.3 0.68 6.6 0 10 C-0.33 10 -0.66 10 -1 10 C-1.02689216 8.52093108 -1.04634621 7.04172517 -1.0625 5.5625 C-1.07410156 4.73878906 -1.08570313 3.91507812 -1.09765625 3.06640625 C-1 1 -1 1 0 0 Z " fill="#19FA87" transform="translate(284,292)"/>
<path d="M0 0 C0.99 0.33 1.98 0.66 3 1 C1 4 -1 7 -3 10 C-2.25 3.375 -2.25 3.375 0 0 Z " fill="#033A18" transform="translate(284,286)"/>
<path d="M0 0 C1.65 0.33 3.3 0.66 5 1 C2.94766315 3.2477975 1.99332739 4.0022242 -1 5 C-1.66 5.66 -2.32 6.32 -3 7 C-2.38722388 4.03824877 -1.74627478 2.61941217 0 0 Z " fill="#051509" transform="translate(285,282)"/>
<path d="M0 0 C2.0625 2.25 2.0625 2.25 4 5 C3.75 7.3125 3.75 7.3125 3 9 C0.90250005 6.64031256 0.03094296 5.45383006 -0.1875 2.25 C-0.125625 1.5075 -0.06375 0.765 0 0 Z " fill="#033D14" transform="translate(332,207)"/>
<path d="M0 0 C0.33 0 0.66 0 1 0 C1.26218749 3.14624993 1.24754367 4.61837017 -0.5 7.3125 C-1.2425 8.1478125 -1.2425 8.1478125 -2 9 C-2.66 8.34 -3.32 7.68 -4 7 C-2.68 4.69 -1.36 2.38 0 0 Z " fill="#043814" transform="translate(274,264)"/>
<path d="M0 0 C0.66 0.33 1.32 0.66 2 1 C0.68 3.31 -0.64 5.62 -2 8 C-2.33 8 -2.66 8 -3 8 C-3 6.35 -3 4.7 -3 3 C-2.34 3 -1.68 3 -1 3 C-0.67 2.01 -0.34 1.02 0 0 Z " fill="#33D278" transform="translate(116,108)"/>
<path d="M0 0 C4 2 4 2 6 5 C5.67 6.32 5.34 7.64 5 9 C3.35 6.03 1.7 3.06 0 0 Z " fill="#35E586" transform="translate(331,205)"/>
<path d="M0 0 C0 1.65 0 3.3 0 5 C-0.99 5.495 -0.99 5.495 -2 6 C-2 5.34 -2 4.68 -2 4 C-2.99 3.67 -3.98 3.34 -5 3 C-2.25 0 -2.25 0 0 0 Z " fill="#24ED82" transform="translate(124,195)"/>
<path d="M0 0 C2.97 0.495 2.97 0.495 6 1 C5.67 1.66 5.34 2.32 5 3 C4.01 3.33 3.02 3.66 2 4 C1.34 4.66 0.68 5.32 0 6 C-1.125 2.25 -1.125 2.25 0 0 Z " fill="#081B0D" transform="translate(126,128)"/>
<path d="M0 0 C1.32 0.33 2.64 0.66 4 1 C2.35 2.65 0.7 4.3 -1 6 C-1 3 -1 3 0 0 Z " fill="#043C17" transform="translate(268,119)"/>
</svg>
