<svg xmlns="http://www.w3.org/2000/svg" xml:space="preserve" viewBox="0 0 297.5 72"><path d="M34.1 33.8H15.7l9-24.9h.3M20.8 0 0 55.3h7.9l5.4-14.9h23.2l5.3 14.9h7.9L28.8 0zm33 .1h7.1v55.3h-7.1zm45.5 36.3c0 8.5-5.7 13.7-12 13.7s-12-5-12-13.7 5.7-13.7 12-13.7 12 5.2 12 13.7M75.5 50.1c2.2 3.4 6.9 6.4 12.9 6.5 9.5 0 17.9-8.5 17.9-20.2 0-11.6-8.4-20.2-17.9-20.2-6 0-10.8 3-12.9 6.5h-.3v-5.2h-6.8V72h7.1V55.3l-.3-5.2zm204.1-6.3c0 7.7 4.2 12.1 12.2 12.1 2.4 0 4.1-.3 5.7-1l-2.5-6.1c-1 .4-1.9.6-3.3.6-3.3 0-5-1.9-5-6.1V24h9.3v-6.5h-9.3V6h-7.1v11.6H273V24h6.6m-27.4-1.2c8.2 0 10.9 5.8 11.1 9.1h-21.9c1.3-5.6 5.5-9.1 10.8-9.1m-18.4 13.6c0 11.4 7.7 20.1 19.4 20.2 8.7 0 14.3-5 16.5-10.4l-6.3-2.7c-2.1 4.9-6.2 6.5-10.4 6.5-5.9 0-11.7-4.4-12.1-12.4h29.8l.1-1.4c0-12.2-7.3-20.2-18.5-20.2-11 .2-18.5 9.6-18.5 20.4m-11 0c0 8.5-5.7 13.7-12.1 13.7-6.3 0-12-5-12-13.7s5.7-13.7 12-13.7c6.4 0 12.1 5.2 12.1 13.7M199 50.1c2.2 3.4 6.9 6.4 12.9 6.5 9.6 0 17.9-8.6 17.9-20.2s-8.4-20.2-17.9-20.2c-6 0-10.8 3-12.9 6.5h-.3l.3-5.2V.1h-7.1v55.3h6.8v-5.2h.3zM177.9 39c0 6.1-6 11.1-11.6 11.1-3.7 0-7.9-2-7.9-6 0-3.4 3-7.5 10.5-7.5 6 0 9 2.4 9 2.4M151 43.9c0 7.9 6.5 12.6 14.1 12.7 6.5 0 10.3-3.4 12.4-6.5h.3v5.2h6.8V32.5c0-10.7-7.6-16.2-16.9-16.2-9.5 0-14 5.7-15.4 9.2l6.5 2.8c1.3-3.6 5.1-5.5 9-5.5 5.3 0 9.9 3.4 9.9 9.2v1c-1.5-.8-5.2-2.3-10.3-2.3-8.7 0-16.4 4.6-16.4 13.2m-32.1-26.4L118.8 0h-7.1v55.3h7.1V34.4c0-5.8 3.8-11.6 10-11.6 5.4 0 9.3 2.7 9.3 10.5v22.1h7.1V32.2c0-9.3-4.7-15.9-14.4-15.9-5.1 0-10 3-11.9 6.5h-.3z" style="fill:#ec1d25"/></svg>