<?xml version="1.0" encoding="UTF-8"?>
<!-- Generator: https://ezgif.com/png-to-svg -->
<svg version="1.1" xmlns="http://www.w3.org/2000/svg" width="400" height="400">
<path d="M0 0 C132 0 264 0 400 0 C400 132 400 264 400 400 C268 400 136 400 0 400 C0 268 0 136 0 0 Z " fill="#01274E" transform="translate(0,0)"/>
<path d="M0 0 C27.72 0 55.44 0 84 0 C84 132 84 264 84 400 C10.86 400.15 10.86 400.15 -63.75 400.31 C-79.17 400.36 -94.58 400.4 -110.47 400.45 C-129.24 400.47 -129.24 400.47 -138.02 400.48 C-144.17 400.48 -150.32 400.5 -156.48 400.53 C-163.57 400.56 -170.66 400.57 -177.75 400.57 C-181.38 400.56 -185.01 400.57 -188.64 400.6 C-192.52 400.62 -196.4 400.62 -200.28 400.6 C-201.42 400.62 -202.56 400.63 -203.74 400.65 C-211.38 400.57 -211.38 400.57 -214.63 397.55 C-215.09 396.71 -215.54 395.87 -216 395 C-216.77 394.29 -216.77 394.29 -217.56 393.56 C-219.98 390.93 -222 387.63 -222 384 C-222.66 384 -223.32 384 -224 384 C-226 381 -226 381 -226 378 C-222.53 375.69 -221.08 375.58 -217 376 C-215.44 377.38 -215.44 377.38 -214 379 C-212.34 379.67 -210.67 380.34 -209 381 C-208.67 381.66 -208.34 382.32 -208 383 C-205.67 384.07 -203.38 385.06 -201 386 C-200.03 386.39 -199.06 386.78 -198.06 387.19 C-197.38 387.46 -196.7 387.72 -196 388 C-194.58 383.74 -194.65 379.43 -194.48 374.98 C-194.28 370.93 -193.77 367.66 -192 364 C-191.34 364 -190.68 364 -190 364 C-189.71 362.87 -189.42 361.73 -189.12 360.56 C-188.75 359.39 -188.38 358.21 -188 357 C-187.34 356.67 -186.68 356.34 -186 356 C-186 356.66 -186 357.32 -186 358 C-185.34 358 -184.68 358 -184 358 C-184 358.66 -184 359.32 -184 360 C-183.34 360 -182.68 360 -182 360 C-182 360.66 -182 361.32 -182 362 C-181.34 362 -180.68 362 -180 362 C-180 363.98 -180 365.96 -180 368 C-178.68 368.33 -177.36 368.66 -176 369 C-175.5 372.47 -175.5 372.47 -175 376 C-174.67 376 -174.34 376 -174 376 C-174 378.31 -174 380.62 -174 383 C-172.02 383.33 -170.04 383.66 -168 384 C-167.01 387.96 -167.01 387.96 -166 392 C-164.68 392 -163.36 392 -162 392 C-162 390.68 -162 389.36 -162 388 C-161.34 388 -160.68 388 -160 388 C-160 385.36 -160 382.72 -160 380 C-159.34 380 -158.68 380 -158 380 C-158 378.68 -158 377.36 -158 376 C-157.34 376 -156.68 376 -156 376 C-156.05 374.89 -156.09 373.78 -156.14 372.64 C-156.18 371.18 -156.21 369.71 -156.25 368.25 C-156.28 367.52 -156.32 366.79 -156.35 366.04 C-156.42 362.4 -156.39 360.48 -154.03 357.62 C-153.36 357.09 -152.69 356.55 -152 356 C-151.21 353.86 -151.21 353.86 -151 352 C-150.01 352 -149.02 352 -148 352 C-148.02 351.2 -148.05 350.41 -148.07 349.59 C-148.17 343.91 -148.09 339.35 -146 334 C-146.02 333.2 -146.04 332.39 -146.06 331.56 C-146 329 -146 329 -144.56 326 C-142.42 321.51 -142.59 316.88 -142.5 311.99 C-141.9 308.39 -140.86 307.2 -138 305 C-137.34 305 -136.68 305 -136 305 C-135.67 306.32 -135.34 307.64 -135 309 C-134.69 308.26 -134.39 307.52 -134.07 306.76 C-118.94 270.4 -118.94 270.4 -110 257 C-109.34 257 -108.68 257 -108 257 C-104.85 267.27 -102.1 277.46 -100 288 C-99.96 286.77 -99.96 286.77 -99.92 285.52 C-99.81 281.81 -99.69 278.09 -99.56 274.38 C-99.52 273.09 -99.48 271.8 -99.44 270.48 C-99.4 269.24 -99.36 267.99 -99.32 266.71 C-99.28 265.57 -99.24 264.43 -99.21 263.25 C-99.01 260.11 -98.58 257.1 -98 254 C-79.68 262.46 -66.25 286.04 -55 302 C-55.31 301.23 -55.31 301.23 -55.62 300.45 C-57.73 295.22 -59.82 289.98 -61.91 284.74 C-62.9 282.25 -63.91 279.75 -64.91 277.26 C-67.9 269.8 -70.67 262.32 -73 254.62 C-73.33 253.56 -73.33 253.56 -73.67 252.48 C-74.71 248.89 -75.09 246.56 -74 243 C-54.57 253.7 -54.57 253.7 -46 259 C-46.5 258.52 -46.99 258.03 -47.5 257.53 C-51.57 253.52 -55.47 249.43 -59.19 245.09 C-61.9 241.96 -64.7 238.93 -67.5 235.88 C-69 234 -69 234 -69 232 C-50.24 231.4 -32.48 232.82 -13.98 235.63 C-11.28 235.97 -8.72 236.07 -6 236 C-6.9 235.68 -7.8 235.37 -8.73 235.04 C-26.83 228.53 -44.02 220.76 -60 210 C-59 208 -59 208 -56.41 207.13 C-55.28 206.85 -54.16 206.56 -53 206.27 C-51.36 205.85 -51.36 205.85 -49.68 205.43 C-48.28 205.08 -46.88 204.73 -45.44 204.38 C-41 203.26 -36.57 202.15 -32 201 C-42.56 200.01 -53.12 199.02 -64 198 C-60.42 192.63 -57.19 187.81 -53.12 182.94 C-52.34 182 -51.56 181.06 -50.76 180.09 C-50.18 179.4 -49.6 178.71 -49 178 C-51.31 177.67 -53.62 177.34 -56 177 C-55.67 175.02 -55.34 173.04 -55 171 C-56.32 170.67 -57.64 170.34 -59 170 C-59 169.67 -59 169.34 -59 169 C-40.48 168.15 -21.97 167.72 -3.44 167.44 C-0.76 167.39 1.92 167.35 4.6 167.31 C11.07 167.2 17.53 167.1 24 167 C23.31 166.68 22.62 166.37 21.9 166.04 C18.74 164.6 15.58 163.16 12.42 161.71 C10.78 160.97 10.78 160.97 9.12 160.21 C3.8 157.77 -1.49 155.31 -6.69 152.62 C-10.39 150.73 -14.1 149.15 -18 147.7 C-24.87 145.09 -31.56 142.15 -38.25 139.12 C-48.43 134.56 -58.65 130.15 -69 126 C-69 125.34 -69 124.68 -69 124 C-60.25 122.45 -52.55 122.5 -44 125 C-41.59 125.41 -39.17 125.76 -36.75 126.06 C-35.73 126.19 -35.73 126.19 -34.7 126.32 C-29.98 126.88 -25.3 127.13 -20.55 127.29 C-8.35 127.7 -8.35 127.7 -2.46 131.01 C3.56 133.43 10.59 133.44 17 134 C17 134.66 17 135.32 17 136 C19.97 135.67 22.94 135.34 26 135 C26.24 130.37 25.54 126.29 24.57 121.8 C23.74 117.75 23.16 113.66 22.56 109.57 C22.11 106.78 22.11 106.78 20 104 C19.86 101.23 19.81 98.57 19.88 95.81 C19.88 95.06 19.89 94.31 19.9 93.54 C19.93 91.69 19.96 89.85 20 88 C19.34 88 18.68 88 18 88 C17.49 85.96 16.99 83.92 16.5 81.88 C16.22 80.74 15.94 79.6 15.66 78.43 C15.04 75.19 14.88 72.29 15 69 C14.01 68.67 13.02 68.34 12 68 C11.96 66.66 11.96 66.66 11.92 65.29 C11.56 57.64 10.89 50.74 7 44 C6.34 43.67 5.68 43.34 5 43 C3.61 39.27 3.66 35.19 3.44 31.25 C3.39 30.55 3.35 29.86 3.31 29.14 C3.2 27.42 3.1 25.71 3 24 C2.01 23.67 1.02 23.34 0 23 C0.99 22.67 1.98 22.34 3 22 C2.66 19.03 2.66 19.03 2 16 C1.01 15.5 1.01 15.5 0 15 C0 10.05 0 5.1 0 0 Z " fill="#011B35" transform="translate(316,0)"/>
<path d="M0 0 C1.57 0.54 3.15 1.07 4.72 1.61 C13.61 4.64 22.38 7.9 31.12 11.31 C33.64 12.26 36.16 13.19 38.69 14.12 C67.78 25.01 96.21 37.61 124.59 50.2 C126.54 51.05 128.49 51.89 130.44 52.73 C136.56 55.35 142.63 58.1 148.7 60.84 C150.24 61.53 151.79 62.23 153.33 62.92 C155.58 63.92 157.82 64.93 160.05 65.94 C160.75 66.25 161.44 66.56 162.16 66.88 C167.01 69.08 167.01 69.08 168.12 71.31 C167.1 71.33 167.1 71.33 166.05 71.34 C159.46 71.44 152.88 71.55 146.29 71.65 C142.91 71.71 139.53 71.76 136.14 71.81 C119.12 72.07 102.13 72.49 85.12 73.31 C86.12 73.64 87.11 73.97 88.12 74.31 C88.88 76.31 88.88 76.31 89.12 78.31 C88.8 78.64 88.46 78.97 88.12 79.31 C90.44 79.64 92.75 79.97 95.12 80.31 C90.12 86.98 85.12 93.65 80.12 100.31 C91.45 101.57 102.75 102.67 114.12 103.31 C110.96 105.42 108.6 106.11 104.93 107.04 C103.72 107.35 102.51 107.66 101.26 107.98 C100 108.29 98.74 108.61 97.44 108.94 C95.53 109.42 95.53 109.42 93.58 109.92 C90.43 110.72 87.28 111.52 84.12 112.31 C93.77 120.3 104.95 125.23 116.38 130.06 C117.7 130.63 119.02 131.2 120.34 131.77 C126.55 134.43 132.77 137.02 139.12 139.31 C139.12 139.64 139.12 139.97 139.12 140.31 C134.52 140.39 130.16 140.15 125.61 139.47 C124.37 139.3 123.13 139.12 121.85 138.94 C121.2 138.85 120.56 138.76 119.89 138.66 C104.63 136.5 89.55 135.53 74.12 135.31 C75.24 136.75 76.35 138.18 77.46 139.61 C78.08 140.41 78.7 141.2 79.34 142.03 C83.02 146.74 86.84 151.13 91.12 155.31 C92.4 156.58 93.67 157.85 94.94 159.12 C95.54 159.73 96.15 160.33 96.77 160.96 C97.22 161.4 97.66 161.85 98.12 162.31 C94.53 162.31 93.22 161.39 90.16 159.54 C89.2 158.96 88.23 158.38 87.24 157.79 C86.23 157.18 85.22 156.57 84.19 155.94 C82.2 154.74 80.21 153.55 78.22 152.35 C77.34 151.82 76.46 151.28 75.55 150.73 C73.44 149.5 71.33 148.37 69.12 147.31 C71.94 161.63 77.05 174.99 82.56 188.44 C84.97 194.35 87.19 200.24 89.12 206.31 C86.07 203.4 83.56 200.34 81.06 196.94 C80.26 195.86 79.46 194.79 78.66 193.71 C78.04 192.88 78.04 192.88 77.4 192.02 C71.22 183.75 64.82 175.78 57.81 168.19 C56.95 167.25 56.95 167.25 56.07 166.29 C55.52 165.69 54.96 165.1 54.39 164.49 C53.9 163.97 53.42 163.46 52.92 162.92 C50.54 160.78 47.79 159.09 45.12 157.31 C44.79 169.52 44.47 181.73 44.12 194.31 C42.26 191.51 41.65 189.96 40.91 186.78 C40.7 185.88 40.49 184.99 40.27 184.07 C40.06 183.14 39.84 182.21 39.62 181.25 C39.41 180.35 39.2 179.44 38.98 178.51 C37.57 172.47 36.31 166.4 35.12 160.31 C34.47 160.31 33.81 160.31 33.12 160.31 C32.85 161.04 32.57 161.77 32.28 162.53 C31.22 165.09 30.03 167.45 28.69 169.88 C20.68 184.66 14.2 199.65 8.12 215.31 C7.79 215.31 7.47 215.31 7.12 215.31 C7.12 213 7.12 210.69 7.12 208.31 C4.65 209.3 4.65 209.3 2.12 210.31 C2.09 211.29 2.05 212.27 2.01 213.28 C1.68 219.95 1.28 226.03 -1.18 232.31 C-2.31 235.57 -2.51 238.89 -2.88 242.31 C-3.21 242.64 -3.53 242.97 -3.88 243.31 C-4.11 245.33 -4.29 247.35 -4.44 249.38 C-4.52 250.48 -4.61 251.58 -4.69 252.72 C-4.75 253.58 -4.81 254.43 -4.88 255.31 C-5.87 255.31 -6.85 255.31 -7.88 255.31 C-7.96 256.26 -8.04 257.21 -8.12 258.19 C-8.5 259.73 -8.5 259.73 -8.88 261.31 C-10.19 261.97 -11.51 262.63 -12.88 263.31 C-12.88 268.59 -12.88 273.87 -12.88 279.31 C-13.53 279.31 -14.19 279.31 -14.88 279.31 C-14.88 280.63 -14.88 281.95 -14.88 283.31 C-15.53 283.31 -16.19 283.31 -16.88 283.31 C-16.88 285.95 -16.88 288.59 -16.88 291.31 C-17.53 291.31 -18.19 291.31 -18.88 291.31 C-18.88 292.63 -18.88 293.95 -18.88 295.31 C-20.19 295.31 -21.51 295.31 -22.88 295.31 C-25.03 292.08 -25.08 291.03 -24.88 287.31 C-26.85 286.98 -28.84 286.65 -30.88 286.31 C-31.02 285.4 -31.16 284.5 -31.31 283.56 C-31.74 281.09 -32.23 278.73 -32.88 276.31 C-33.06 275.23 -33.06 275.23 -33.25 274.12 C-33.46 273.53 -33.66 272.93 -33.88 272.31 C-34.87 271.98 -35.85 271.65 -36.88 271.31 C-36.88 269.33 -36.88 267.35 -36.88 265.31 C-37.53 265.31 -38.19 265.31 -38.88 265.31 C-38.88 264.65 -38.88 263.99 -38.88 263.31 C-39.53 263.31 -40.19 263.31 -40.88 263.31 C-40.88 262.65 -40.88 261.99 -40.88 261.31 C-41.87 260.98 -42.85 260.65 -43.88 260.31 C-44.87 262.62 -45.86 264.93 -46.88 267.31 C-47.53 267.31 -48.19 267.31 -48.88 267.31 C-50.07 272.36 -50.2 277.44 -50.39 282.61 C-50.58 286.32 -50.77 288.15 -52.88 291.31 C-57.73 290.71 -61.62 288.58 -65.88 286.31 C-65.88 285.65 -65.88 284.99 -65.88 284.31 C-66.82 284.02 -67.77 283.74 -68.75 283.44 C-71.88 282.31 -71.88 282.31 -73.88 280.31 C-77.27 280.1 -79.63 280.23 -82.88 281.31 C-82.22 283.29 -81.56 285.27 -80.88 287.31 C-80.22 287.31 -79.56 287.31 -78.88 287.31 C-78.2 288.6 -77.54 289.89 -76.88 291.19 C-76.5 291.91 -76.13 292.63 -75.75 293.37 C-74.88 295.31 -74.88 295.31 -74.88 297.31 C-74.26 297.56 -73.64 297.81 -73 298.06 C-70.88 299.31 -70.88 299.31 -68.88 303.31 C-103.19 303.31 -137.51 303.31 -172.88 303.31 C-172.88 235 -172.88 166.69 -172.88 96.31 C-172.22 96.31 -171.56 96.31 -170.88 96.31 C-170.08 99.13 -169.73 101.69 -169.66 104.61 C-169.64 105.43 -169.61 106.24 -169.58 107.08 C-169.53 108.76 -169.48 110.45 -169.45 112.14 C-169.24 117.56 -168.33 121.46 -165.88 126.31 C-162.25 126.64 -158.62 126.97 -154.88 127.31 C-154.06 129.04 -153.24 130.77 -152.44 132.5 C-151.99 133.46 -151.53 134.43 -151.07 135.42 C-149.97 138.08 -149.33 140.48 -148.88 143.31 C-148.22 143.31 -147.56 143.31 -146.88 143.31 C-146.88 139.68 -146.88 136.05 -146.88 132.31 C-147.53 132.31 -148.19 132.31 -148.88 132.31 C-148.88 130.33 -148.88 128.35 -148.88 126.31 C-149.53 126.31 -150.19 126.31 -150.88 126.31 C-150.98 125.67 -151.08 125.03 -151.19 124.38 C-151.41 123.69 -151.64 123.01 -151.88 122.31 C-153.36 121.82 -153.36 121.82 -154.88 121.31 C-157.41 117.54 -157.24 113.67 -157.43 109.26 C-157.76 106.16 -157.76 106.16 -159.4 102.98 C-161.13 98.68 -161.23 95.43 -161.06 90.88 C-161.04 89.78 -161.04 89.78 -161.02 88.66 C-160.99 86.88 -160.93 85.09 -160.88 83.31 C-161.53 83.31 -162.19 83.31 -162.88 83.31 C-162.88 81.99 -162.88 80.67 -162.88 79.31 C-158.25 78.14 -153.8 78.2 -149.06 78.25 C-147.88 78.26 -147.88 78.26 -146.67 78.26 C-144.74 78.28 -142.81 78.29 -140.88 78.31 C-140.88 76 -140.88 73.69 -140.88 71.31 C-139.88 71.81 -139.88 71.81 -138.88 72.31 C-138.21 74.65 -137.54 76.98 -136.88 79.31 C-135.88 79.81 -135.88 79.81 -134.88 80.31 C-133.17 85.15 -132.57 89.54 -132.31 94.69 C-132 100.26 -131.56 105.77 -130.88 111.31 C-129.88 111.31 -128.9 111.31 -127.88 111.31 C-125.62 124.44 -124.47 137.29 -124.34 150.63 C-124.22 157.5 -123.43 162.92 -120.88 169.31 C-119.56 169.31 -118.23 169.31 -116.88 169.31 C-116.67 168.67 -116.47 168.04 -116.25 167.38 C-115.98 166.55 -115.72 165.73 -115.44 164.88 C-115.17 164.05 -114.9 163.23 -114.63 162.38 C-113.88 160.31 -113.88 160.31 -112.88 159.31 C-110.9 150.11 -109.99 140.65 -108.88 131.31 C-106.89 131.64 -104.92 131.97 -102.88 132.31 C-102.38 140.23 -102.38 140.23 -101.88 148.31 C-100.89 148.64 -99.89 148.97 -98.88 149.31 C-98.88 150.96 -98.88 152.61 -98.88 154.31 C-97.89 154.64 -96.89 154.97 -95.88 155.31 C-95.19 157.38 -95.19 157.38 -94.88 159.31 C-94.22 159.31 -93.56 159.31 -92.88 159.31 C-92.59 160.55 -92.3 161.79 -92 163.06 C-91.42 165.43 -90.85 167.37 -89.75 169.56 C-88.88 171.31 -88.88 171.31 -88.88 175.31 C-88.22 175.31 -87.56 175.31 -86.88 175.31 C-86.1 176.83 -86.1 176.83 -85.31 178.38 C-83.21 182.09 -80.57 184.74 -77.49 187.67 C-75.52 189.67 -74.16 191.82 -72.88 194.31 C-72.22 193.32 -71.56 192.33 -70.88 191.31 C-70.55 191.64 -70.22 191.97 -69.88 192.31 C-69.78 191.07 -69.68 189.83 -69.58 188.55 C-65.35 136.62 -58.92 84.44 -48.88 33.31 C-48.67 32.27 -48.67 32.27 -48.46 31.21 C-47.58 26.69 -46.65 22.19 -45.69 17.69 C-45.46 16.6 -45.24 15.52 -45 14.4 C-43.42 7.32 -41.61 1.71 -35.31 -2.5 C-34.73 -2.9 -34.15 -3.3 -33.56 -3.71 C-23.16 -9.76 -10.21 -3.58 0 0 Z " fill="#022D56" transform="translate(172.875,96.6875)"/>
<path d="M0 0 C1.57 0.54 3.15 1.07 4.72 1.61 C13.61 4.64 22.38 7.9 31.12 11.31 C33.64 12.26 36.16 13.19 38.69 14.12 C67.78 25.01 96.21 37.61 124.59 50.2 C126.54 51.05 128.49 51.89 130.44 52.73 C136.56 55.35 142.63 58.1 148.7 60.84 C150.24 61.53 151.79 62.23 153.33 62.92 C155.58 63.92 157.82 64.93 160.05 65.94 C160.75 66.25 161.44 66.56 162.16 66.88 C167.01 69.08 167.01 69.08 168.12 71.31 C130.73 72.21 93.35 72.4 55.94 72.38 C54.8 72.37 53.67 72.37 52.5 72.37 C38.38 72.36 24.25 72.34 10.12 72.31 C9.82 73.08 9.52 73.86 9.21 74.65 C8.06 77.46 6.69 79.98 5.18 82.61 C4.58 83.64 3.99 84.67 3.38 85.72 C2.74 86.83 2.1 87.93 1.44 89.06 C0.76 90.23 0.09 91.39 -0.59 92.56 C-6.31 102.41 -12.16 112.19 -18.05 121.95 C-22.09 128.65 -26.08 135.39 -30.06 142.12 C-35.11 150.65 -40.17 159.16 -45.28 167.64 C-48.22 172.54 -51.14 177.45 -54.03 182.37 C-54.76 183.6 -55.48 184.84 -56.21 186.07 C-57.28 187.89 -58.36 189.72 -59.42 191.54 C-60.41 193.24 -61.41 194.93 -62.41 196.62 C-62.98 197.6 -63.55 198.58 -64.14 199.58 C-65.89 202.33 -67.8 204.81 -69.88 207.31 C-70.24 194.54 -69.16 182.01 -67.88 169.31 C-67.76 168.13 -67.64 166.94 -67.52 165.72 C-63.02 121.42 -57.46 77.02 -48.88 33.31 C-48.74 32.62 -48.6 31.92 -48.46 31.21 C-47.58 26.69 -46.65 22.19 -45.69 17.69 C-45.35 16.06 -45.35 16.06 -45 14.4 C-43.42 7.32 -41.61 1.71 -35.31 -2.5 C-34.73 -2.9 -34.15 -3.3 -33.56 -3.71 C-23.16 -9.76 -10.21 -3.58 0 0 Z " fill="#FDFEFD" transform="translate(172.875,96.6875)"/>
<path d="M0 0 C2.47 0.99 2.47 0.99 5 2 C5.5 8.44 5.5 8.44 6 15 C6.99 15.33 7.98 15.66 9 16 C9 17.65 9 19.3 9 21 C10.48 21.5 10.48 21.5 12 22 C12.69 24.06 12.69 24.06 13 26 C13.66 26 14.32 26 15 26 C15.29 27.24 15.58 28.48 15.88 29.75 C16.46 32.12 17.03 34.06 18.12 36.25 C19 38 19 38 19 42 C19.66 42 20.32 42 21 42 C21.52 43.01 22.03 44.02 22.56 45.06 C24.66 48.78 27.31 51.43 30.38 54.36 C32.35 56.36 33.72 58.51 35 61 C35.66 60.01 36.32 59.02 37 58 C37.99 64.93 37.99 64.93 39 72 C43.27 64.91 47.53 57.82 51.7 50.67 C56.96 41.67 62.43 32.81 68 24 C69.98 24.99 69.98 24.99 72 26 C72.2 32.71 72.31 38.65 70 45 C69.34 45 68.68 45 68 45 C67.32 48.33 66.66 51.66 66 55 C65.71 56.45 65.71 56.45 65.42 57.94 C65.24 58.89 65.06 59.83 64.88 60.81 C64.71 61.69 64.54 62.56 64.37 63.46 C64 66.01 63.94 68.43 64 71 C64.99 71 65.98 71 67 71 C69.5 74.74 69.26 77.67 69.19 82 C69.19 83.09 69.19 83.09 69.19 84.2 C69.16 87.38 69.01 89.96 68 93 C64.53 93.5 64.53 93.5 61 94 C61 93.34 61 92.68 61 92 C60.34 92 59.68 92 59 92 C59 91.34 59 90.68 59 90 C57.68 90 56.36 90 55 90 C55 89.34 55 88.68 55 88 C53.52 87.5 53.52 87.5 52 87 C50.31 85.56 50.31 85.56 49 84 C49 83.34 49 82.68 49 82 C48.34 82 47.68 82 47 82 C47.01 82.9 47.02 83.81 47.04 84.74 C47.04 85.92 47.05 87.1 47.06 88.31 C47.07 89.48 47.09 90.66 47.1 91.86 C47 95 47 95 46 98 C45.91 99.92 45.87 101.85 45.86 103.77 C45.83 105.47 45.83 105.47 45.8 107.21 C45.77 109.6 45.75 111.99 45.75 114.38 C45.54 124.13 45.54 124.13 42.68 127.78 C39.41 130.49 37.17 130.68 33 131 C32.34 131.66 31.68 132.32 31 133 C28.27 132.97 25.7 132.44 23 132 C23 131.34 23 130.68 23 130 C22.17 129.92 21.35 129.84 20.5 129.75 C16.21 128.83 12.84 127.06 9 125 C4.42 122.61 -0.16 120.78 -5 119 C-5.99 118.5 -5.99 118.5 -7 118 C-7 117.34 -7 116.68 -7 116 C-7.66 116 -8.32 116 -9 116 C-9 115.34 -9 114.68 -9 114 C-9.83 113.92 -10.65 113.83 -11.5 113.75 C-15.77 112.84 -19.19 111.08 -23 109 C-23 108.34 -23 107.68 -23 107 C-23.72 106.77 -24.44 106.55 -25.19 106.31 C-28.62 104.71 -30.57 102.9 -33 100 C-33.1 99.13 -33.21 98.27 -33.31 97.38 C-33.54 96.59 -33.77 95.81 -34 95 C-35.95 93.97 -37.88 93.31 -39.99 92.68 C-42 92 -42 92 -45 90 C-45 89.01 -45 88.02 -45 87 C-45.66 87 -46.32 87 -47 87 C-48.89 82.71 -50.58 78.47 -52 74 C-52.66 74 -53.32 74 -54 74 C-56.77 70.42 -57.61 66.89 -58.43 62.54 C-58.97 60.14 -59.71 57.95 -60.54 55.64 C-62.62 48.81 -62.4 42.02 -62.31 34.94 C-62.32 33.63 -62.32 32.32 -62.32 30.97 C-62.23 14.35 -62.23 14.35 -58 8 C-57.34 8 -56.68 8 -56 8 C-55.94 8.75 -55.88 9.5 -55.82 10.27 C-55.73 11.25 -55.65 12.24 -55.56 13.25 C-55.48 14.22 -55.4 15.2 -55.32 16.2 C-55.07 18.91 -55.07 18.91 -54.47 21.12 C-53.73 24.07 -53.94 26.98 -54 30 C-53.34 30 -52.68 30 -52 30 C-49.38 36.51 -48.6 42.08 -48.81 49.06 C-48.83 49.93 -48.84 50.79 -48.85 51.69 C-48.89 53.79 -48.94 55.9 -49 58 C-48.34 58 -47.68 58 -47 58 C-44.96 60.91 -44 62.4 -44 66 C-42.52 66.5 -42.52 66.5 -41 67 C-40.78 72.44 -40.9 76.87 -43 82 C-40.36 82 -37.72 82 -35 82 C-35.02 80.89 -35.04 79.77 -35.06 78.62 C-35 75 -35 75 -34 73 C-33.34 73 -32.68 73 -32 73 C-31.34 70.69 -30.68 68.38 -30 66 C-29.01 66 -28.02 66 -27 66 C-27 63.36 -27 60.72 -27 58 C-24.53 57.5 -24.53 57.5 -22 57 C-22 54.03 -22 51.06 -22 48 C-21.35 47.9 -20.7 47.8 -20.02 47.7 C-14.31 46.73 -10.62 45.47 -6 42 C-5.34 42 -4.68 42 -4 42 C-2.6 32.27 -1.71 22.65 -1.34 12.83 C-1.17 8.47 -0.84 4.29 0 0 Z " fill="#023F72" transform="translate(65,230)"/>
<path d="M0 0 C13.86 0 27.72 0 42 0 C34.5 10 34.5 10 27 20 C38.33 21.26 49.62 22.35 61 23 C57.83 25.11 55.47 25.8 51.8 26.73 C49.99 27.19 49.99 27.19 48.14 27.66 C46.88 27.98 45.61 28.3 44.31 28.62 C43.04 28.95 41.76 29.27 40.45 29.61 C37.3 30.41 34.15 31.21 31 32 C40.65 39.98 51.82 44.91 63.25 49.75 C64.57 50.32 65.9 50.89 67.22 51.46 C73.43 54.12 79.64 56.71 86 59 C86 59.33 86 59.66 86 60 C81.39 60.08 77.04 59.83 72.48 59.16 C71.25 58.98 70.01 58.81 68.73 58.63 C68.08 58.54 67.43 58.44 66.76 58.35 C51.5 56.19 36.42 55.22 21 55 C22.11 56.43 23.22 57.86 24.34 59.3 C24.96 60.09 25.57 60.89 26.21 61.71 C29.89 66.42 33.72 70.82 38 75 C39.27 76.27 40.54 77.54 41.81 78.81 C42.42 79.42 43.02 80.02 43.64 80.64 C44.09 81.09 44.54 81.54 45 82 C41.4 82 40.09 81.07 37.04 79.23 C36.07 78.65 35.11 78.07 34.11 77.48 C33.11 76.87 32.1 76.25 31.06 75.62 C29.07 74.43 27.09 73.23 25.1 72.04 C24.22 71.5 23.33 70.97 22.43 70.42 C20.32 69.19 18.2 68.06 16 67 C18.81 81.31 23.92 94.68 29.43 108.13 C31.85 114.03 34.06 119.92 36 126 C32.94 123.09 30.43 120.03 27.94 116.62 C27.14 115.55 26.34 114.48 25.54 113.4 C25.12 112.84 24.71 112.29 24.28 111.71 C18.09 103.44 11.7 95.47 4.69 87.88 C4.11 87.25 3.54 86.62 2.95 85.97 C2.39 85.38 1.83 84.79 1.26 84.18 C0.78 83.66 0.29 83.14 -0.21 82.61 C-2.59 80.47 -5.34 78.78 -8 77 C-8.33 89.21 -8.66 101.42 -9 114 C-10.87 111.2 -11.48 109.65 -12.22 106.46 C-12.43 105.57 -12.64 104.68 -12.86 103.76 C-13.07 102.83 -13.28 101.9 -13.5 100.94 C-13.71 100.03 -13.93 99.13 -14.14 98.2 C-15.55 92.15 -16.82 86.09 -18 80 C-18.66 80 -19.32 80 -20 80 C-20.28 80.73 -20.56 81.46 -20.85 82.21 C-21.91 84.78 -23.09 87.14 -24.43 89.57 C-32.44 104.35 -38.93 119.34 -45 135 C-45.33 135 -45.66 135 -46 135 C-45.62 127.24 -45.17 119.56 -44 111.88 C-42.48 101.85 -41.92 91.88 -41.88 81.75 C-41.87 81.01 -41.87 80.27 -41.86 79.51 C-41.8 75.63 -41.8 75.63 -43 72 C-43.63 72.57 -44.26 73.14 -44.91 73.72 C-48.97 77.39 -53.04 81.05 -57.19 84.62 C-60.97 87.91 -64.51 91.41 -68 95 C-68.33 94.34 -68.66 93.68 -69 93 C-67.95 90.83 -67.95 90.83 -66.32 88.17 C-65.45 86.72 -65.45 86.72 -64.56 85.25 C-63.95 84.24 -63.33 83.23 -62.69 82.19 C-61.48 80.2 -60.28 78.22 -59.07 76.23 C-58.26 74.91 -58.26 74.91 -57.44 73.56 C-55.74 70.67 -55.74 70.67 -54 66 C-64.89 66.5 -64.89 66.5 -76 67 C-74.98 62.94 -73.37 59.83 -71.29 56.27 C-70.92 55.63 -70.55 54.99 -70.17 54.33 C-69.39 52.99 -68.61 51.65 -67.83 50.31 C-66.62 48.25 -65.44 46.18 -64.26 44.11 C-63.5 42.81 -62.74 41.51 -61.98 40.2 C-61.62 39.58 -61.27 38.96 -60.91 38.32 C-59.89 36.6 -59.89 36.6 -58 34 C-57.01 34 -56.02 34 -55 34 C-54.71 34.82 -54.71 34.82 -54.41 35.65 C-51.85 42.1 -48.27 47.42 -43 52 C-42.01 52 -41.02 52 -40 52 C-40.16 51.46 -40.32 50.92 -40.48 50.36 C-42.11 42.91 -41.65 35.69 -38 29 C-41.3 25.7 -44.6 22.4 -48 19 C-46.37 14.93 -44.65 11.5 -42.44 7.75 C-41.82 6.69 -41.2 5.64 -40.56 4.55 C-39 2 -39 2 -38 1 C-36.37 0.91 -34.73 0.89 -33.09 0.9 C-32.2 0.9 -31.31 0.91 -30.39 0.91 C-28.68 0.92 -28.68 0.92 -26.94 0.94 C-21.52 0.97 -21.52 0.97 -16 1 C-15.67 8.26 -15.34 15.52 -15 23 C-19 21.67 -19.84 19.5 -22 16 C-22.37 22.58 -21.13 27.79 -19 34 C-18.67 34.99 -18.34 35.98 -18 37 C-17.42 36.79 -16.84 36.59 -16.25 36.38 C-13.32 35.89 -12.49 36.39 -10 38 C-7.95 39.62 -5.98 41.29 -4 43 C-3.96 41.95 -3.93 40.9 -3.89 39.82 C-3.82 38.45 -3.75 37.07 -3.69 35.69 C-3.66 35 -3.64 34.31 -3.62 33.6 C-3.39 29.23 -3.23 28.23 0 25 C2.31 27.64 4.62 30.28 7 33 C5.1 17.89 5.1 17.89 2 3 C1.34 3 0.68 3 0 3 C0 2.01 0 1.02 0 0 Z " fill="#FAFCFB" transform="translate(226,177)"/>
<path d="M0 0 C2.97 0.33 5.94 0.66 9 1 C9.34 2.18 9.34 2.18 9.69 3.38 C10.74 6.2 10.74 6.2 13.38 6.94 C17.01 8.41 18.33 10.6 20 14 C21.32 17.23 22.56 20.48 23.77 23.75 C25.05 27.14 26.48 30.42 28.01 33.71 C28.34 34.46 28.66 35.22 29 36 C29.53 37.15 30.06 38.3 30.6 39.49 C32.65 45.01 32.36 50.56 32.25 56.38 C32.24 57.47 32.24 58.56 32.23 59.68 C32.16 67.69 32.16 67.69 31 70 C30.01 70 29.02 70 28 70 C28.02 71.13 28.04 72.27 28.06 73.44 C28 77 28 77 27 78 C25 78.04 23 78.04 21 78 C20.34 79.65 19.68 81.3 19 83 C17.12 82.81 17.12 82.81 15 82 C13.75 79.44 13.75 79.44 13 77 C12.05 77.1 11.1 77.21 10.12 77.31 C5.6 77.34 2.39 75.35 -1.51 73.23 C-3.84 72.08 -5.78 71.49 -8.31 71 C-12.59 69.84 -14.16 68.33 -17 65 C-17.56 64.53 -18.11 64.05 -18.69 63.56 C-21.58 60.12 -22 56.36 -22 52 C-23.48 52.5 -23.48 52.5 -25 53 C-27 50 -27 50 -27 46 C-27.66 46 -28.32 46 -29 46 C-29.11 43.44 -29.19 40.88 -29.25 38.31 C-29.28 37.59 -29.32 36.87 -29.35 36.13 C-29.44 31.05 -28.6 28.81 -25 25 C-24.67 24.01 -24.34 23.02 -24 22 C-22.02 22 -20.04 22 -18 22 C-18 21.34 -18 20.68 -18 20 C-17.34 20 -16.68 20 -16 20 C-15.75 19.42 -15.51 18.85 -15.25 18.25 C-13.82 15.67 -12.22 13.94 -10 12 C-9.34 12 -8.68 12 -8 12 C-8.33 9.36 -8.66 6.72 -9 4 C-5.62 4 -3.17 4.87 0 6 C0 4.02 0 2.04 0 0 Z " fill="#01637E" transform="translate(72,274)"/>
<path d="M0 0 C1.58 0.01 3.16 0.02 4.75 0.04 C5.55 0.04 6.36 0.04 7.19 0.05 C9.19 0.06 11.19 0.08 13.18 0.1 C14.12 4.53 14.29 7.67 13.18 12.1 C12.52 12.76 11.86 13.42 11.18 14.1 C22.51 15.35 33.81 16.45 45.18 17.1 C42.02 19.21 39.66 19.89 35.98 20.82 C34.17 21.29 34.17 21.29 32.32 21.76 C31.06 22.08 29.8 22.4 28.5 22.72 C27.22 23.05 25.95 23.37 24.63 23.71 C21.49 24.51 18.34 25.31 15.18 26.1 C24.83 34.08 36.01 39.01 47.43 43.85 C48.76 44.42 50.08 44.99 51.4 45.55 C57.61 48.22 63.83 50.81 70.18 53.1 C70.18 53.43 70.18 53.76 70.18 54.1 C65.58 54.18 61.22 53.93 56.67 53.26 C55.43 53.08 54.19 52.91 52.91 52.73 C52.26 52.63 51.61 52.54 50.94 52.44 C35.69 50.29 20.6 49.32 5.18 49.1 C5.18 50.75 5.18 52.4 5.18 54.1 C1.98 54.19 -0.74 54.01 -3.82 53.1 C-3.82 53.76 -3.82 54.42 -3.82 55.1 C-3.16 55.1 -2.5 55.1 -1.82 55.1 C-1.49 56.09 -1.16 57.08 -0.82 58.1 C-2.47 57.77 -4.12 57.44 -5.82 57.1 C-5.82 55.45 -5.82 53.8 -5.82 52.1 C-6.48 52.1 -7.14 52.1 -7.82 52.1 C-8.55 49.12 -8.55 49.12 -9.28 46.14 C-9.73 44.44 -10.26 42.76 -10.82 41.1 C-10.95 38.09 -10.86 35.11 -10.82 32.1 C-7.85 32.43 -4.88 32.76 -1.82 33.1 C-2.9 29.85 -2.9 29.85 -4.82 27.1 C-7.63 24.28 -7.23 21.44 -7.38 17.66 C-7.59 12.3 -7.59 12.3 -8.82 7.1 C-7.17 7.1 -5.52 7.1 -3.82 7.1 C-4 6.13 -4.19 5.16 -4.38 4.16 C-4.52 3.15 -4.67 2.14 -4.82 1.1 C-3.82 0.1 -3.82 0.1 0 0 Z " fill="#FAFCFC" transform="translate(241.81640625,182.90234375)"/>
<path d="M0 0 C0.92 0.01 1.83 0.01 2.78 0.02 C3.67 0.02 4.56 0.02 5.48 0.02 C7.19 0.04 7.19 0.04 8.93 0.05 C14.34 0.08 14.34 0.08 19.87 0.11 C20.2 7.37 20.53 14.63 20.87 22.11 C16.87 20.78 16.03 18.62 13.87 15.11 C13.5 21.7 14.74 26.9 16.87 33.11 C17.2 34.1 17.53 35.09 17.87 36.11 C18.44 35.91 19.02 35.7 19.62 35.49 C22.55 35 23.38 35.5 25.87 37.11 C27.92 38.73 29.89 40.41 31.87 42.11 C31.92 41.05 31.96 39.99 32.02 38.9 C32.09 37.51 32.17 36.13 32.24 34.74 C32.29 33.69 32.29 33.69 32.34 32.62 C32.64 27.34 32.64 27.34 34.87 25.11 C34.84 26.03 34.84 26.03 34.82 26.97 C34.76 29.81 34.72 32.65 34.68 35.49 C34.65 36.45 34.63 37.42 34.6 38.41 C34.52 47.01 36.46 54.26 39.87 62.11 C28.48 62.75 20.77 58.99 11.87 52.11 C10.53 51.11 9.2 50.11 7.87 49.11 C8.91 53 9.99 56.55 11.87 60.11 C5.75 59.06 1.11 57.46 -4.13 54.11 C-4.13 53.12 -4.13 52.13 -4.13 51.11 C-4.37 50.21 -4.37 50.21 -4.62 49.29 C-6.36 41.96 -5.72 34.69 -2.13 28.11 C-5.43 24.81 -8.73 21.51 -12.13 18.11 C-10.5 14.04 -8.78 10.62 -6.57 6.86 C-5.95 5.81 -5.33 4.75 -4.69 3.66 C-2.53 0.13 -2.53 0.13 0 0 Z " fill="#083C6D" transform="translate(190.133056640625,177.886474609375)"/>
<path d="M0 0 C1.62 0.55 3.25 1.11 4.88 1.66 C11.61 3.96 18.24 6.32 24.75 9.19 C21.03 10.57 19.32 9.69 15.75 8.19 C12.77 7.44 9.76 6.8 6.75 6.19 C6.75 6.85 6.75 7.51 6.75 8.19 C5.1 8.52 3.45 8.85 1.75 9.19 C1.96 10.03 2.16 10.88 2.38 11.75 C2.82 15.79 2.2 18.41 0.75 22.19 C-2.8 24.55 -4.07 24.51 -8.25 24.19 C-14.78 22.88 -14.78 22.88 -16.69 20.06 C-16.87 19.44 -17.06 18.83 -17.25 18.19 C-17.91 18.19 -18.57 18.19 -19.25 18.19 C-20.38 15.94 -20.38 15.94 -21.25 13.19 C-20.38 10.88 -20.38 10.88 -19.25 9.19 C-18.59 9.19 -17.93 9.19 -17.25 9.19 C-17.25 8.53 -17.25 7.87 -17.25 7.19 C-12.49 5.99 -8.57 6.53 -3.77 7.23 C-1.19 7.45 -1.19 7.45 0.59 5.71 C0.97 5.21 1.35 4.71 1.75 4.19 C0.7 4.11 -0.35 4.02 -1.44 3.94 C-5.63 3.11 -7.06 1.89 -10.25 -0.81 C-15.63 -3.38 -21.41 -3.62 -27.25 -2.81 C-31.71 -1.07 -36.31 1.32 -39.25 5.19 C-40.27 8.6 -40.27 8.6 -40.94 12.38 C-41.19 13.65 -41.44 14.92 -41.7 16.23 C-41.88 17.21 -42.06 18.18 -42.25 19.19 C-41.59 19.19 -40.93 19.19 -40.25 19.19 C-39.92 19.85 -39.59 20.51 -39.25 21.19 C-38.26 20.86 -37.27 20.53 -36.25 20.19 C-34.58 20.15 -32.92 20.14 -31.25 20.19 C-31.58 19.53 -31.91 18.87 -32.25 18.19 C-29.24 17.25 -28.38 17.14 -25.25 18.19 C-24.92 20.17 -24.59 22.15 -24.25 24.19 C-23.26 24.19 -22.27 24.19 -21.25 24.19 C-21.91 28.48 -22.57 32.77 -23.25 37.19 C-23.91 37.19 -24.57 37.19 -25.25 37.19 C-25.25 37.85 -25.25 38.51 -25.25 39.19 C-28.65 39.54 -31.86 39.72 -35.25 39.19 C-39.25 34.81 -39.25 34.81 -39.25 31.19 C-40.57 31.19 -41.89 31.19 -43.25 31.19 C-43.25 30.2 -43.25 29.21 -43.25 28.19 C-45.53 32.36 -46.79 35.97 -47.53 40.66 C-47.73 41.89 -47.94 43.12 -48.14 44.39 C-48.44 46.3 -48.44 46.3 -48.75 48.25 C-52.17 69.62 -52.17 69.62 -54.25 76.19 C-55.24 76.68 -55.24 76.68 -56.25 77.19 C-55.04 65.2 -53.15 53.44 -50.85 41.62 C-50.31 38.86 -49.78 36.1 -49.26 33.34 C-43.39 2.68 -43.39 2.68 -33.93 -3.83 C-23.44 -9.94 -10.3 -3.61 0 0 Z " fill="#F2F6F7" transform="translate(173.25,96.8125)"/>
<path d="M0 0 C0.33 0 0.66 0 1 0 C1.39 10.48 0.32 20.38 -1.14 30.73 C-5.54 57.92 -5.54 57.92 -3 85 C-2.01 85.66 -1.02 86.32 0 87 C1.19 90.12 1.19 90.12 2 93 C3.48 92.5 3.48 92.5 5 92 C5.34 90.38 5.67 88.75 6 87.12 C6.19 86.22 6.37 85.32 6.56 84.38 C7.06 82.08 7.06 82.08 7 80 C8.98 80 10.96 80 13 80 C13.66 78.68 14.32 77.36 15 76 C15.66 76 16.32 76 17 76 C17.1 74.82 17.21 73.65 17.31 72.44 C17.69 69.3 18.27 67.37 19.56 64.38 C21.03 60.92 21.27 58.7 21 55 C24.42 55 26.95 55.47 30 57 C15.42 82.48 15.42 82.48 8.3 93.98 C5.41 98.66 2.59 103.37 -0.2 108.11 C-0.56 108.72 -0.93 109.34 -1.31 109.98 C-3.14 113.09 -4.96 116.2 -6.78 119.32 C-7.44 120.44 -8.11 121.57 -8.79 122.73 C-9.38 123.74 -9.98 124.76 -10.59 125.81 C-11.29 126.89 -11.29 126.89 -12 128 C-12.33 128 -12.66 128 -13 128 C-13.36 115.23 -12.29 102.7 -11 90 C-10.88 88.78 -10.75 87.57 -10.63 86.31 C-7.65 57.47 -3.8 28.74 0 0 Z " fill="#F5F9FA" transform="translate(116,176)"/>
<path d="M0 0 C2.98 -0.1 5.91 -0.04 8.89 0.08 C12.46 0.18 16.03 0.28 19.7 0.39 C20.03 7.65 20.36 14.91 20.7 22.39 C16.7 21.06 15.87 18.9 13.7 15.39 C13.26 23.37 14.97 30.31 18.7 37.39 C6.51 36.6 -2.25 28.93 -10.3 20.39 C-11.84 18.39 -11.84 18.39 -12.3 16.39 C-11.06 13.77 -11.06 13.77 -9.11 10.95 C-8.47 10.03 -7.84 9.1 -7.19 8.14 C-6.56 7.24 -5.94 6.33 -5.3 5.39 C-4.95 4.46 -4.61 3.52 -4.26 2.56 C-2.3 0.39 -2.3 0.39 0 0 Z " fill="#FBFCFB" transform="translate(190.295166015625,177.609130859375)"/>
<path d="M0 0 C2.41 3.62 2.3 6.25 2.25 10.44 C2.25 11.17 2.24 11.9 2.24 12.66 C2.1 21.82 1.05 30.91 0 40 C-0.66 40 -1.32 40 -2 40 C-2.12 40.74 -2.25 41.49 -2.38 42.25 C-2.95 44.8 -3.74 46.73 -5 49 C-5.33 49 -5.66 49 -6 49 C-6 47.35 -6 45.7 -6 44 C-8.31 44 -10.62 44 -13 44 C-13.1 43.36 -13.21 42.72 -13.31 42.06 C-13.54 41.38 -13.77 40.7 -14 40 C-14.99 39.67 -15.98 39.34 -17 39 C-19.4 34.7 -20.31 29.83 -21 25 C-21.83 22.83 -21.83 22.83 -24 22 C-16.69 14.46 -9.25 7.52 -1 1 C-0.67 0.67 -0.34 0.34 0 0 Z " fill="#043C5E" transform="translate(183,248)"/>
<path d="M0 0 C0.66 0 1.32 0 2 0 C5.15 10.28 7.89 20.45 10 31 C10.33 21.76 10.66 12.52 11 3 C11.33 4.32 11.66 5.64 12 7 C12.99 7.33 13.98 7.66 15 8 C16.52 11.03 16.15 14.18 16.12 17.5 C16.12 18.22 16.12 18.94 16.12 19.68 C16 33 16 33 14 39 C13.34 39 12.68 39 12 39 C12.02 39.65 12.05 40.3 12.07 40.98 C12.18 46.09 12.02 50.2 10 55 C6.84 53.63 6.01 53.01 4 50 C4 49.01 4 48.02 4 47 C3.34 47 2.68 47 2 47 C1.99 46.1 1.97 45.19 1.96 44.26 C1.91 43.08 1.86 41.9 1.81 40.69 C1.76 38.93 1.76 38.93 1.71 37.14 C1.32 33.83 1.32 33.83 -1.44 32.22 C-2.28 31.82 -3.13 31.41 -4 31 C-6.57 27.9 -7.15 25.73 -7.06 21.81 C-7.04 20.55 -7.02 19.3 -7 18 C-7.66 17.34 -8.32 16.68 -9 16 C-6.03 10.72 -3.06 5.44 0 0 Z " fill="#074769" transform="translate(206,257)"/>
<path d="M0 0 C13.86 0 27.72 0 42 0 C40.02 2.64 38.04 5.28 36 8 C34.33 10.33 32.66 12.66 31 15 C30.5 14.01 30.5 14.01 30 13 C25.05 13 20.1 13 15 13 C15 12.67 15 12.34 15 12 C19.62 11.67 24.24 11.34 29 11 C29 9.68 29 8.36 29 7 C23.39 7 17.78 7 12 7 C12 8.98 12 10.96 12 13 C10.35 13 8.7 13 7 13 C7.99 14.49 7.99 14.49 9 16 C9.28 19.22 9.41 22.4 9.48 25.64 C9.54 27.87 9.54 27.87 10 31 C10.99 31.66 11.98 32.32 13 33 C13.33 32.01 13.66 31.02 14 30 C14 33 14 36 14 39 C6.57 39.14 6.57 39.14 3 38 C3 37.34 3 36.68 3 36 C2.34 36 1.68 36 1 36 C1.33 43.26 1.66 50.52 2 58 C-4.25 48.62 -2.74 35.67 -1 25 C-0.24 25.78 0.53 26.57 1.31 27.38 C3.91 30.07 3.91 30.07 7 32 C5.02 17.4 5.02 17.4 2 3 C1.34 3 0.68 3 0 3 C0 2.01 0 1.02 0 0 Z " fill="#E4E8EA" transform="translate(226,177)"/>
<path d="M0 0 C6.24 1.95 12.18 4.29 18.12 7 C19.65 7.69 21.17 8.38 22.7 9.06 C23.36 9.36 24.02 9.66 24.7 9.97 C27.15 11.07 29.63 12.13 32.11 13.18 C37.62 15.56 43.09 18.05 48.57 20.53 C50.12 21.22 51.66 21.91 53.21 22.61 C55.45 23.61 57.69 24.62 59.93 25.63 C60.62 25.94 61.32 26.25 62.03 26.56 C66.89 28.77 66.89 28.77 68 31 C28.66 31.81 -10.65 32.14 -50 32 C-50 31.67 -50 31.34 -50 31 C-37.72 30.16 -25.49 29.8 -13.18 29.68 C-11.35 29.66 -9.51 29.64 -7.67 29.62 C-2.9 29.57 1.87 29.52 6.64 29.47 C11.54 29.42 16.43 29.36 21.33 29.31 C30.88 29.2 40.44 29.1 50 29 C49.34 28.67 48.68 28.34 48 28 C48.33 26.35 48.66 24.7 49 23 C48.01 23 47.02 23 46 23 C46 22.34 46 21.68 46 21 C44.02 21.66 42.04 22.32 40 23 C39.77 22.36 39.55 21.72 39.31 21.06 C38.88 20.38 38.45 19.7 38 19 C36.34 18.65 34.67 18.32 33 18 C32.38 17.34 31.76 16.68 31.12 16 C28.17 13.22 26 13.2 22 13 C19.66 13.26 17.32 13.57 15 14 C15 13.01 15 12.02 15 11 C14.02 9.98 13.02 8.98 12 8 C12 7.34 12 6.68 12 6 C11.08 5.69 11.08 5.69 10.14 5.38 C6.76 4.25 3.38 3.13 0 2 C0 1.34 0 0.68 0 0 Z " fill="#E3E9ED" transform="translate(273,137)"/>
<path d="M0 0 C0.33 0.99 0.66 1.98 1 3 C1.66 3 2.32 3 3 3 C3.33 3.66 3.66 4.32 4 5 C4.99 4.67 5.98 4.34 7 4 C8.67 3.96 10.33 3.95 12 4 C11.67 3.34 11.34 2.68 11 2 C14.01 1.07 14.87 0.96 18 2 C18.33 3.98 18.66 5.96 19 8 C19.99 8 20.98 8 22 8 C21.34 12.29 20.68 16.58 20 21 C19.34 21 18.68 21 18 21 C18 21.66 18 22.32 18 23 C14.6 23.35 11.39 23.53 8 23 C4 18.62 4 18.62 4 15 C2.68 15 1.36 15 0 15 C0 14.01 0 13.02 0 12 C-0.66 12.66 -1.32 13.32 -2 14 C-1.33 9.33 -0.67 4.67 0 0 Z " fill="#F0F6F7" transform="translate(130,113)"/>
<path d="M0 0 C0.33 0 0.66 0 1 0 C1.33 10.13 0.47 19.74 -0.91 29.75 C-3.71 50.29 -5.73 70.87 -7.59 91.51 C-7.95 95.44 -8.32 99.36 -8.69 103.29 C-8.88 105.25 -9.06 107.22 -9.25 109.19 C-9.33 110.02 -9.41 110.85 -9.49 111.7 C-9.81 115.16 -9.99 118.38 -9.86 121.86 C-10 125 -10 125 -11.5 126.94 C-12 127.29 -12.49 127.64 -13 128 C-13.36 115.23 -12.29 102.7 -11 90 C-10.88 88.78 -10.75 87.57 -10.63 86.31 C-7.65 57.47 -3.8 28.74 0 0 Z " fill="#B1BDC8" transform="translate(116,176)"/>
<path d="M0 0 C2.98 -0.1 5.91 -0.04 8.89 0.08 C12.46 0.18 16.03 0.28 19.7 0.39 C20.03 7.65 20.36 14.91 20.7 22.39 C17.43 21.3 16.92 20.73 15.02 18.02 C14.58 17.41 14.14 16.8 13.69 16.18 C12.7 14.39 12.7 14.39 12.7 11.39 C14.02 10.73 15.34 10.07 16.7 9.39 C16.37 8.4 16.04 7.41 15.7 6.39 C15.04 6.39 14.38 6.39 13.7 6.39 C13.58 7.01 13.46 7.63 13.33 8.27 C12.7 10.39 12.7 10.39 10.7 12.39 C10.37 10.41 10.04 8.43 9.7 6.39 C8.57 6.39 7.44 6.39 6.27 6.39 C4.75 6.39 3.23 6.39 1.7 6.39 C1.07 6.56 0.43 6.72 -0.23 6.89 C-2.3 7.39 -2.3 7.39 -4.3 7.39 C-4.63 9.37 -4.96 11.35 -5.3 13.39 C-5.96 13.39 -6.62 13.39 -7.3 13.39 C-7.42 13.99 -7.54 14.59 -7.67 15.2 C-8.3 17.39 -8.3 17.39 -10.3 20.39 C-11.49 18.73 -11.49 18.73 -12.3 16.39 C-11.06 13.77 -11.06 13.77 -9.11 10.95 C-8.47 10.03 -7.84 9.1 -7.19 8.14 C-6.56 7.24 -5.94 6.33 -5.3 5.39 C-4.95 4.46 -4.61 3.52 -4.26 2.56 C-2.3 0.39 -2.3 0.39 0 0 Z " fill="#F3F7F8" transform="translate(190.295166015625,177.609130859375)"/>
<path d="M0 0 C3.96 1.98 7.92 3.96 12 6 C11.34 7.65 10.68 9.3 10 11 C10.36 13.6 10.36 13.6 11.31 16.12 C11.6 16.97 11.88 17.82 12.18 18.7 C12.45 19.46 12.72 20.22 13 21 C13.33 21.99 13.66 22.98 14 24 C14.66 24 15.32 24 16 24 C16 28.29 16 32.58 16 37 C14.68 37.66 13.36 38.32 12 39 C8.34 29.98 4.82 20.97 2.06 11.62 C1.85 10.92 1.64 10.21 1.42 9.48 C0.47 6.15 0 3.51 0 0 Z " fill="#0A335C" transform="translate(241,243)"/>
<path d="M0 0 C-2.8 0.85 -3.72 1.1 -6.56 0.06 C-12.24 -1.69 -17.98 -2.18 -23.61 0.02 C-29.94 3.41 -29.94 3.41 -33.84 9.17 C-35.53 15.81 -36.95 22.47 -38.25 29.19 C-38.95 32.74 -39.71 36.28 -40.5 39.81 C-41.67 45.21 -42.62 50.61 -43.5 56.06 C-46.11 72.15 -46.11 72.15 -48 78 C-48.99 78.5 -48.99 78.5 -50 79 C-48.79 67.02 -46.9 55.25 -44.6 43.43 C-44.06 40.67 -43.53 37.91 -43.01 35.15 C-37.14 4.49 -37.14 4.49 -27.68 -2.02 C-19.01 -7.07 -8.56 -3.35 0 0 Z " fill="#B4BDC7" transform="translate(167,95)"/>
<path d="M0 0 C0.66 0 1.32 0 2 0 C3.12 3.37 3.14 5.98 3.18 9.53 C3.2 10.82 3.22 12.1 3.25 13.43 C3.28 15.47 3.31 17.51 3.33 19.55 C3.34 21.52 3.38 23.5 3.43 25.47 C3.44 26.65 3.45 27.83 3.47 29.04 C3.75 32.52 3.75 32.52 8 35 C2.56 48.37 2.56 48.37 -3 62 C-3.33 62 -3.66 62 -4 62 C-3.62 54.24 -3.17 46.56 -2 38.88 C-0.04 25.92 0.13 13.07 0 0 Z " fill="#E9EDEE" transform="translate(184,250)"/>
<path d="M0 0 C6.75 -0.12 6.75 -0.12 9 1 C8.91 2.18 8.91 2.18 8.81 3.38 C8.87 4.24 8.94 5.11 9 6 C9.99 6.66 10.98 7.32 12 8 C12.66 7.67 13.32 7.34 14 7 C13.67 9.94 13.08 10.92 10.88 12.97 C9.97 13.66 9.06 14.35 8.12 15.06 C1.92 19.94 -3.52 25.33 -9 31 C-9.33 30.34 -9.66 29.68 -10 29 C-8.95 26.83 -8.95 26.83 -7.32 24.17 C-6.74 23.2 -6.16 22.24 -5.56 21.25 C-4.95 20.24 -4.33 19.23 -3.69 18.19 C-2.48 16.2 -1.28 14.22 -0.07 12.23 C0.47 11.35 1.01 10.46 1.56 9.56 C2.95 7.09 4.02 4.65 5 2 C3.02 2 1.04 2 -1 2 C-0.67 1.34 -0.34 0.68 0 0 Z " fill="#EBF3F4" transform="translate(167,241)"/>
<path d="M0 0 C11.68 0.56 23.34 1.17 35 2 C32.01 3.99 30.01 4.65 26.56 5.51 C25.5 5.77 24.44 6.04 23.35 6.31 C22.25 6.58 21.14 6.85 20 7.12 C18.89 7.4 17.79 7.68 16.65 7.96 C8.41 10 8.41 10 5 10 C4.67 8.02 4.34 6.04 4 4 C2.68 4 1.36 4 0 4 C0 2.68 0 1.36 0 0 Z " fill="#F6F9F9" transform="translate(252,198)"/>
<path d="M0 0 C1.32 6.93 2.64 13.86 4 21 C4.33 21 4.66 21 5 21 C5 25.62 5 30.24 5 35 C3.13 32.2 2.52 30.65 1.78 27.46 C1.57 26.57 1.36 25.68 1.14 24.76 C0.83 23.36 0.83 23.36 0.5 21.94 C0.18 20.58 0.18 20.58 -0.14 19.2 C-1.55 13.15 -2.82 7.09 -4 1 C-4.66 1 -5.32 1 -6 1 C-6.23 1.64 -6.47 2.29 -6.71 2.95 C-8.44 7.04 -10.53 10.9 -12.62 14.81 C-13.05 15.6 -13.47 16.39 -13.9 17.2 C-14.93 19.14 -15.96 21.07 -17 23 C-17.33 23 -17.66 23 -18 23 C-19 16.38 -19 16.38 -19 13 C-18.34 13.33 -17.68 13.66 -17 14 C-16.34 12.35 -15.68 10.7 -15 9 C-14.34 9 -13.68 9 -13 9 C-12.67 7.35 -12.34 5.7 -12 4 C-11.34 4 -10.68 4 -10 4 C-10 3.01 -10 2.02 -10 1 C-7 0 -7 0 0 0 Z " fill="#ECF7F7" transform="translate(212,256)"/>
<path d="M0 0 C2.84 2.02 4.72 3.51 5.38 7.04 C5.44 9.19 5.44 9.19 5 13 C3 15 3 15 0.12 15.38 C-3 15 -3 15 -5.31 13.5 C-7.76 9.87 -7.93 7.39 -8 3 C-6.09 -0.4 -3.7 -0.7 0 0 Z " fill="#0F2E51" transform="translate(143,118)"/>
<path d="M0 0 C3.14 1.26 4.56 2.2 6.5 5 C6.96 7.85 6.78 10.07 6.5 13 C4.5 15 4.5 15 1.62 15.38 C-1.5 15 -1.5 15 -3.81 13.44 C-6.06 10.2 -6.5 7.93 -6.5 4 C-4.55 1.01 -3.62 0 0 0 Z " fill="#0B284A" transform="translate(165.5,104)"/>
<path d="M0 0 C3.2 1.47 5.82 3.31 8.62 5.44 C16.43 10.94 23.57 12.46 33 12 C33 12.99 33 13.98 33 15 C27.67 15.24 22.87 14.52 17.65 13.44 C15.04 13.01 12.64 12.93 10 13 C9.34 13 8.68 13 8 13 C6.73 13.12 6.73 13.12 5.44 13.25 C0.76 12.91 -2.84 11.07 -7 9 C-4.45 7.73 -3.57 8.2 -0.88 8.94 C0.21 9.23 0.21 9.23 1.32 9.53 C1.87 9.68 2.43 9.84 3 10 C2.5 9.28 2.01 8.56 1.5 7.81 C-0.08 4.85 -0.28 3.29 0 0 Z " fill="#D2DDE6" transform="translate(198,227)"/>
<path d="M0 0 C12.23 2.95 23.94 7.43 35.32 12.77 C40.15 14.99 45.08 16.98 50 19 C48.13 20.05 48.13 20.05 46 21 C43.33 20.06 42.01 19.01 40 17 C38.87 17.04 37.73 17.08 36.56 17.12 C35.39 17.08 34.21 17.04 33 17 C32.53 16.36 32.06 15.72 31.58 15.06 C29.57 12.44 28.4 12.34 25.19 11.88 C21.29 11.24 17.72 10.37 14 9 C14 8.34 14 7.68 14 7 C13.24 7.04 12.47 7.08 11.69 7.12 C9 7 9 7 6 5 C4.95 4.32 3.9 3.64 2.81 2.94 C1.88 2.3 0.96 1.66 0 1 C0 0.67 0 0.34 0 0 Z " fill="#D9E1E7" transform="translate(199,107)"/>
<path d="M0 0 C1.65 1.65 3.3 3.3 5 5 C8.07 4.22 8.07 4.22 10 2 C10.72 2.89 11.44 3.77 12.19 4.69 C14.64 7.63 17.26 10.32 20 13 C21.27 14.27 22.54 15.54 23.81 16.81 C24.42 17.42 25.02 18.02 25.64 18.64 C26.09 19.09 26.54 19.54 27 20 C23.41 20 22.09 19.09 19.04 17.26 C18.07 16.69 17.11 16.12 16.11 15.53 C15.11 14.92 14.1 14.31 13.06 13.69 C12.06 13.09 11.06 12.5 10.03 11.88 C5.88 9.41 1.82 6.96 -2 4 C-1.34 2.68 -0.68 1.36 0 0 Z " fill="#EBF1F3" transform="translate(244,239)"/>
<path d="M0 0 C6.83 -0.03 13.66 -0.04 20.5 -0.05 C22.82 -0.06 25.14 -0.07 27.46 -0.08 C30.81 -0.09 34.15 -0.09 37.5 -0.1 C38.53 -0.1 39.56 -0.11 40.62 -0.11 C46.18 -0.11 51.5 0.17 57 1 C56.67 2.32 56.34 3.64 56 5 C40.26 6.52 40.26 6.52 33 4 C33 3.67 33 3.34 33 3 C37.45 2.5 37.45 2.5 42 2 C28.14 1.67 14.28 1.34 0 1 C0 0.67 0 0.34 0 0 Z " fill="#274A6E" transform="translate(183,169)"/>
<path d="M0 0 C0.33 0 0.66 0 1 0 C1.02 4.24 1.04 8.47 1.05 12.71 C1.06 14.15 1.07 15.59 1.08 17.03 C1.09 19.1 1.09 21.17 1.1 23.24 C1.1 24.49 1.11 25.73 1.11 27.02 C1 30 1 30 0 32 C0.03 34.33 0.1 36.67 0.19 39 C0.34 45.75 -0.85 51.02 -4 57 C-4.33 57 -4.66 57 -5 57 C-4.63 49.52 -4.25 42.09 -3.06 34.69 C-1.28 23.22 -0.78 11.57 0 0 Z " fill="#B7C3C9" transform="translate(185,255)"/>
<path d="M0 0 C0.66 0.33 1.32 0.66 2 1 C-0.33 7.1 -3.11 12.73 -7 18 C-7.66 18 -8.32 18 -9 18 C-9.15 19.02 -9.15 19.02 -9.31 20.06 C-10.15 23.63 -11.49 26.66 -13 30 C-13.66 30 -14.32 30 -15 30 C-15 30.99 -15 31.98 -15 33 C-13.68 33.33 -12.36 33.66 -11 34 C-13.64 34 -16.28 34 -19 34 C-18.33 29.97 -16.28 26.75 -14.22 23.3 C-13.85 22.67 -13.47 22.03 -13.09 21.37 C-12.3 20.04 -11.51 18.7 -10.72 17.36 C-9.5 15.31 -8.29 13.26 -7.08 11.2 C-6.32 9.9 -5.55 8.6 -4.78 7.3 C-4.24 6.38 -4.24 6.38 -3.68 5.43 C-1.12 1.12 -1.12 1.12 0 0 Z " fill="#ABB6C1" transform="translate(169,210)"/>
<path d="M0 0 C4.62 0 9.24 0 14 0 C12.41 4.77 10.77 8.53 8.38 12.88 C7.74 14.03 7.11 15.18 6.46 16.37 C5.98 17.24 5.5 18.1 5 19 C3.79 15.38 3.89 12.07 3.94 8.31 C3.94 7.61 3.95 6.91 3.95 6.19 C3.96 4.46 3.98 2.73 4 1 C2.68 0.67 1.36 0.34 0 0 Z " fill="#114064" transform="translate(158,243)"/>
<path d="M0 0 C2.98 -0.1 5.91 -0.04 8.89 0.08 C9.93 0.1 10.96 0.12 12.03 0.15 C14.59 0.21 17.15 0.29 19.7 0.39 C19.7 1.05 19.7 1.71 19.7 2.39 C9.31 2.89 9.31 2.89 -1.3 3.39 C-1.63 4.71 -1.96 6.03 -2.3 7.39 C-2.96 7.39 -3.62 7.39 -4.3 7.39 C-4.63 9.37 -4.96 11.35 -5.3 13.39 C-5.96 13.39 -6.62 13.39 -7.3 13.39 C-7.42 13.99 -7.54 14.59 -7.67 15.2 C-8.3 17.39 -8.3 17.39 -10.3 20.39 C-11.49 18.73 -11.49 18.73 -12.3 16.39 C-11.06 13.77 -11.06 13.77 -9.11 10.95 C-8.47 10.03 -7.84 9.1 -7.19 8.14 C-6.56 7.24 -5.94 6.33 -5.3 5.39 C-4.95 4.46 -4.61 3.52 -4.26 2.56 C-2.3 0.39 -2.3 0.39 0 0 Z " fill="#B6C0C9" transform="translate(190.295166015625,177.609130859375)"/>
<path d="M0 0 C3.43 0.6 6.44 1.48 9.64 2.85 C10.49 3.21 11.33 3.56 12.19 3.93 C13.06 4.3 13.92 4.68 14.81 5.06 C16.14 5.63 16.14 5.63 17.49 6.21 C19.66 7.13 21.83 8.06 24 9 C24 9.33 24 9.66 24 10 C19.81 10.08 16.09 9.86 12 9 C10.33 8.96 8.67 8.95 7 9 C7 8.34 7 7.68 7 7 C6.05 7.21 5.1 7.41 4.12 7.62 C3.09 7.75 2.06 7.87 1 8 C0.34 7.34 -0.32 6.68 -1 6 C-0.65 5.38 -0.3 4.76 0.06 4.12 C0.37 3.42 0.68 2.72 1 2 C0.67 1.34 0.34 0.68 0 0 Z " fill="#F9FBFA" transform="translate(249,127)"/>
<path d="M0 0 C13.86 0 27.72 0 42 0 C41.67 0.66 41.34 1.32 41 2 C39.93 2.02 38.85 2.04 37.74 2.06 C33.76 2.14 29.77 2.22 25.78 2.32 C24.06 2.36 22.33 2.39 20.61 2.42 C18.13 2.47 15.65 2.53 13.17 2.59 C12.01 2.6 12.01 2.6 10.83 2.62 C7.05 2.73 5.22 2.85 2 5 C2 4.34 2 3.68 2 3 C1.34 3 0.68 3 0 3 C0 2.01 0 1.02 0 0 Z " fill="#94A5B5" transform="translate(226,177)"/>
<path d="M0 0 C0.6 0.21 1.2 0.41 1.81 0.62 C2.14 2.61 2.47 4.58 2.81 6.62 C3.8 6.62 4.79 6.62 5.81 6.62 C5.15 10.91 4.49 15.21 3.81 19.62 C1.5 19.95 -0.81 20.28 -3.19 20.62 C-3.52 19.97 -3.85 19.31 -4.19 18.62 C-2.54 17.97 -0.89 17.31 0.81 16.62 C1.45 11.31 1.45 11.31 -0.52 6.54 C-2.02 4.82 -3.54 3.19 -5.19 1.62 C-2.19 -0.38 -2.19 -0.38 0 0 Z " fill="#EDF1F6" transform="translate(146.1875,114.375)"/>
<path d="M0 0 C1.32 0 2.64 0 4 0 C5.3 3.62 5.02 4.95 3.49 8.56 C2.78 9.86 2.05 11.15 1.31 12.44 C0.96 13.08 0.61 13.72 0.24 14.38 C-3.12 20.45 -6.28 25.87 -12 30 C-10.73 26.65 -9.29 23.61 -7.47 20.53 C-6.99 19.71 -6.51 18.89 -6.01 18.05 C-5 16.35 -4 14.65 -2.99 12.95 C-2.27 11.72 -2.27 11.72 -1.53 10.47 C-1.09 9.73 -0.66 8.99 -0.21 8.23 C1.07 5.88 2.05 3.5 3 1 C2.01 0.67 1.02 0.34 0 0 Z " fill="#A7B7C4" transform="translate(169,242)"/>
<path d="M0 0 C4.6 1.48 9.09 3.19 13.56 5 C14.21 5.26 14.86 5.52 15.52 5.79 C17.35 6.52 19.17 7.26 21 8 C22.67 8.67 24.33 9.33 26 10 C26 10.33 26 10.66 26 11 C19.89 11.2 14.09 10.42 8.06 9.5 C6.61 9.29 6.61 9.29 5.12 9.07 C2.75 8.72 0.37 8.36 -2 8 C-2 7.67 -2 7.34 -2 7 C1.63 7 5.26 7 9 7 C9 6.34 9 5.68 9 5 C8.07 4.73 7.14 4.46 6.19 4.19 C3.24 3.09 1.94 2.38 0 0 Z " fill="#D0DDE5" transform="translate(286,226)"/>
<path d="M0 0 C10.56 0.66 21.12 1.32 32 2 C29 4 27.29 4.49 23.81 5.12 C22.91 5.29 22.01 5.46 21.08 5.63 C20.39 5.75 19.71 5.88 19 6 C19 5.34 19 4.68 19 4 C18.07 4.05 18.07 4.05 17.13 4.11 C10.81 4.31 5.85 3.37 0 1 C0 0.67 0 0.34 0 0 Z " fill="#CCD4DC" transform="translate(255,198)"/>
<path d="M0 0 C-0.33 1.32 -0.66 2.64 -1 4 C-0.34 4 0.32 4 1 4 C1 4.66 1 5.32 1 6 C-6.43 8.43 -6.43 8.43 -10 7 C-9.01 6.01 -8.02 5.02 -7 4 C-10.4 1.73 -12.17 1.63 -16.19 1.38 C-17.27 1.3 -18.36 1.23 -19.48 1.15 C-20.31 1.1 -21.14 1.05 -22 1 C-22 0.67 -22 0.34 -22 0 C-18.9 -0.2 -15.79 -0.38 -12.69 -0.56 C-11.37 -0.65 -11.37 -0.65 -10.02 -0.73 C-8.75 -0.8 -8.75 -0.8 -7.45 -0.88 C-6.28 -0.95 -6.28 -0.95 -5.08 -1.02 C-3 -1 -3 -1 0 0 Z " fill="#202F45" transform="translate(294,199)"/>
<path d="M0 0 C0.33 0 0.66 0 1 0 C-0.63 32.9 -0.63 32.9 -3 40 C-4.49 37.02 -3.87 34.11 -3.62 30.88 C-3.52 29.43 -3.42 27.98 -3.32 26.53 C-3.26 25.78 -3.21 25.04 -3.15 24.27 C-3 22.04 -2.88 19.82 -2.78 17.59 C-2.74 16.89 -2.7 16.18 -2.67 15.45 C-2.57 13.47 -2.47 11.5 -2.38 9.52 C-2.01 6.08 -1.23 3.23 0 0 Z " fill="#EFEFEE" transform="translate(119,168)"/>
<path d="M0 0 C0.66 0 1.32 0 2 0 C3.37 3.12 4.72 6.25 6.06 9.38 C6.45 10.26 6.84 11.15 7.24 12.07 C7.79 13.35 7.79 13.35 8.35 14.65 C8.69 15.43 9.03 16.22 9.38 17.03 C10 19 10 19 9 21 C5.04 15.72 1.08 10.44 -3 5 C-2.34 4.34 -1.68 3.68 -1 3 C-0.67 3.33 -0.34 3.66 0 4 C0 2.68 0 1.36 0 0 Z " fill="#E1E9ED" transform="translate(252,282)"/>
<path d="M0 0 C0.99 0.5 0.99 0.5 2 1 C2.33 2.33 2.67 3.67 3 5 C3.66 5.33 4.32 5.66 5 6 C5.63 8.29 5.63 8.29 6.12 11.06 C6.29 11.98 6.46 12.9 6.63 13.85 C6.75 14.56 6.88 15.27 7 16 C7.33 16 7.66 16 8 16 C8 20.62 8 25.24 8 30 C6.11 27.17 5.5 25.55 4.75 22.32 C4.53 21.41 4.32 20.5 4.1 19.56 C3.88 18.62 3.66 17.67 3.44 16.69 C3.22 15.75 3 14.81 2.77 13.85 C1.7 9.25 0.7 4.67 0 0 Z " fill="#C6DCDC" transform="translate(209,261)"/>
<path d="M0 0 C0.66 0 1.32 0 2 0 C2.67 2.08 3.34 4.16 4 6.25 C4.37 7.41 4.74 8.57 5.12 9.77 C6 13 6 13 6 17 C4.68 17.33 3.36 17.66 2 18 C0 15 0 15 0 12 C0.31 10.82 0.31 10.82 0.62 9.62 C1.08 6.47 0.25 4.88 -1 2 C-0.67 1.34 -0.34 0.68 0 0 Z " fill="#1F6F78" transform="translate(206,257)"/>
<path d="M0 0 C8.91 0 17.82 0 27 0 C27 0.33 27 0.66 27 1 C25.35 1.33 23.7 1.66 22 2 C21.67 2.99 21.34 3.98 21 5 C20.67 4.34 20.34 3.68 20 3 C16.99 2 14.96 1.9 11.81 1.94 C10.91 1.95 10.01 1.96 9.08 1.96 C8.05 1.98 8.05 1.98 7 2 C6.34 3.65 5.68 5.3 5 7 C3.29 5.38 1.63 3.71 0 2 C0 1.34 0 0.68 0 0 Z " fill="#123556" transform="translate(247,232)"/>
<path d="M0 0 C0.33 0 0.66 0 1 0 C1 2.64 1 5.28 1 8 C1.66 8 2.32 8 3 8 C3 13.28 3 18.56 3 24 C2.34 24 1.68 24 1 24 C0.13 21 -0.12 18.35 -0.1 15.23 C-0.09 14.34 -0.09 13.46 -0.09 12.54 C-0.08 11.16 -0.08 11.16 -0.06 9.75 C-0.06 8.81 -0.05 7.88 -0.05 6.91 C-0.04 4.61 -0.02 2.3 0 0 Z " fill="#1E5977" transform="translate(217,260)"/>
<path d="M0 0 C3.36 1.43 5.28 3.16 7.62 5.94 C8.51 6.97 8.51 6.97 9.41 8.03 C11 10 11 10 13 13 C9.04 11.57 5.71 9.67 2.19 7.38 C1.21 6.74 0.24 6.11 -0.77 5.46 C-1.87 4.74 -1.87 4.74 -3 4 C-2.34 3.67 -1.68 3.34 -1 3 C-0.67 2.01 -0.34 1.02 0 0 Z " fill="#D0E1EA" transform="translate(258,247)"/>
<path d="M0 0 C6.44 0.56 11.96 2.7 17.94 5.06 C18.91 5.44 19.88 5.82 20.88 6.21 C23.25 7.13 25.63 8.06 28 9 C24.16 10.14 22.69 9.59 19 8 C16.35 7.26 13.68 6.64 11 6 C11 5.34 11 4.68 11 4 C10.3 3.88 9.6 3.75 8.88 3.62 C5.82 2.96 2.95 2.03 0 1 C0 0.67 0 0.34 0 0 Z " fill="#C4D0DC" transform="translate(170,97)"/>
<path d="M0 0 C3.43 0.6 6.44 1.48 9.64 2.85 C10.49 3.21 11.33 3.56 12.19 3.93 C13.06 4.3 13.92 4.68 14.81 5.06 C16.14 5.63 16.14 5.63 17.49 6.21 C19.66 7.13 21.83 8.06 24 9 C24 9.33 24 9.66 24 10 C21.69 10 19.38 10 17 10 C16.67 9.01 16.34 8.02 16 7 C13.02 6.07 10.04 5.53 6.98 4.94 C3.66 3.89 2.23 2.63 0 0 Z " fill="#D0D6DC" transform="translate(249,127)"/>
<path d="M0 0 C1.32 0 2.64 0 4 0 C5.6 4 4.34 7.05 3 11 C2 12 2 12 -1.56 12.06 C-2.7 12.04 -3.83 12.02 -5 12 C-4.36 11.69 -3.72 11.38 -3.06 11.06 C-1.06 10.17 -1.06 10.17 0 9 C0.07 7.48 0.08 5.96 0.06 4.44 C0.05 3.61 0.04 2.78 0.04 1.93 C0.02 1.3 0.01 0.66 0 0 Z " fill="#BAC2CC" transform="translate(171,108)"/>
<path d="M0 0 C0.99 0 1.98 0 3 0 C3 1.32 3 2.64 3 4 C3.66 4 4.32 4 5 4 C5 6.64 5 9.28 5 12 C4.34 12 3.68 12 3 12 C-1.06 5.72 -1.06 5.72 -0.75 2.06 C-0.5 1.38 -0.25 0.7 0 0 Z " fill="#022542" transform="translate(179,252)"/>
<path d="M0 0 C4.23 1.31 8.07 2.94 12 5 C12 5.33 12 5.66 12 6 C5.4 6 -1.2 6 -8 6 C-8 5.67 -8 5.34 -8 5 C-2.56 4.5 -2.56 4.5 3 4 C3 3.34 3 2.68 3 2 C2.01 2 1.02 2 0 2 C0 1.34 0 0.68 0 0 Z " fill="#C8D2DB" transform="translate(329,162)"/>
<path d="M0 0 C3.77 1.88 4.79 2.69 7 6 C5.68 6.33 4.36 6.66 3 7 C2.67 6.34 2.34 5.68 2 5 C1.67 10.61 1.34 16.22 1 22 C0.67 22 0.34 22 0 22 C0 14.74 0 7.48 0 0 Z " fill="#D6DFE6" transform="translate(226,205)"/>
<path d="M0 0 C4.14 2.76 7.24 5.86 10 10 C9.01 11.49 9.01 11.49 8 13 C6.87 11.75 5.75 10.5 4.62 9.25 C4 8.55 3.37 7.86 2.73 7.14 C1.12 5.15 0.03 3.32 -1 1 C-0.67 0.67 -0.34 0.34 0 0 Z " fill="#E3ECF3" transform="translate(233,264)"/>
<path d="M0 0 C1.57 3.02 2.88 6.09 4.12 9.25 C4.48 10.14 4.83 11.03 5.2 11.95 C5.46 12.63 5.73 13.3 6 14 C3.69 13.67 1.38 13.34 -1 13 C-0.34 12.67 0.32 12.34 1 12 C0.84 11.22 0.69 10.44 0.53 9.63 C0.24 8.11 0.24 8.11 -0.06 6.56 C-0.26 5.55 -0.46 4.54 -0.66 3.5 C-0.77 2.68 -0.88 1.85 -1 1 C-0.67 0.67 -0.34 0.34 0 0 Z " fill="#D8EAF1" transform="translate(203,201)"/>
<path d="M0 0 C2.03 3.05 2.25 3.6 2.2 7.01 C2.19 7.77 2.18 8.53 2.18 9.31 C2.16 10.09 2.14 10.88 2.12 11.69 C2.12 12.48 2.11 13.28 2.1 14.1 C2.07 16.07 2.04 18.03 2 20 C1.67 20 1.34 20 1 20 C1 16.04 1 12.08 1 8 C0.34 8 -0.32 8 -1 8 C-1.66 6.35 -2.32 4.7 -3 3 C-2.01 2.01 -1.02 1.02 0 0 Z " fill="#39505F" transform="translate(183,248)"/>
<path d="M0 0 C13 4 13 4 17 8 C13.48 7.35 10.11 6.49 6.69 5.44 C5.8 5.17 4.92 4.9 4.01 4.62 C3.35 4.42 2.68 4.21 2 4 C2 3.34 2 2.68 2 2 C1.34 2 0.68 2 0 2 C0 1.34 0 0.68 0 0 Z " fill="#C6CCD3" transform="translate(292,145)"/>
<path d="M0 0 C0.66 0.33 1.32 0.66 2 1 C1.34 2.65 0.68 4.3 0 6 C-0.66 6 -1.32 6 -2 6 C-2 6.99 -2 7.98 -2 9 C-0.68 9.33 0.64 9.66 2 10 C-0.64 10 -3.28 10 -6 10 C-5.49 7.83 -5 6 -4 4 C-3.01 3.67 -2.02 3.34 -1 3 C-0.67 2.01 -0.34 1.02 0 0 Z " fill="#C0CAD2" transform="translate(156,234)"/>
<path d="M0 0 C4.44 3.52 5.52 7.75 7 13 C3.74 9.98 1.22 6.86 -1 3 C-0.67 2.01 -0.34 1.02 0 0 Z " fill="#C6D5E0" transform="translate(255,290)"/>
<path d="M0 0 C2 2 2 2 2.12 5.62 C2.08 6.74 2.04 7.85 2 9 C-0.31 9.33 -2.62 9.66 -5 10 C-5.33 9.34 -5.66 8.68 -6 8 C-5.2 7.79 -4.39 7.59 -3.56 7.38 C-2.72 6.92 -1.87 6.47 -1 6 C-0.1 2.95 -0.1 2.95 0 0 Z " fill="#ABB7C2" transform="translate(148,125)"/>
<path d="M0 0 C1.75 0.43 3.5 0.87 5.25 1.31 C6.22 1.56 7.2 1.8 8.2 2.05 C10.99 3 12.77 4.11 15 6 C8.83 5.73 4.83 4.96 0 1 C0 0.67 0 0.34 0 0 Z " fill="#C9D3DD" transform="translate(199,107)"/>
<path d="M0 0 C0 4.62 0 9.24 0 14 C-2 11 -2.49 9.29 -3.12 5.81 C-3.29 4.91 -3.46 4.01 -3.63 3.08 C-3.75 2.39 -3.88 1.71 -4 1 C-1 0 -1 0 0 0 Z " fill="#99BCD4" transform="translate(217,277)"/>
<path d="M0 0 C2.21 3.31 2.78 5.82 3.62 9.69 C3.89 10.87 4.15 12.05 4.41 13.26 C4.61 14.17 4.8 15.07 5 16 C4.01 16 3.02 16 2 16 C1.21 10.68 0.57 5.35 0 0 Z " fill="#D8EAF2" transform="translate(242,250)"/>
<path d="M0 0 C3 2 3 2 4 5 C4.85 5.5 5.69 5.99 6.56 6.5 C7.37 7 8.17 7.49 9 8 C9 8.99 9 9.98 9 11 C5.17 9.44 2.68 7.12 0 4 C0 2.68 0 1.36 0 0 Z " fill="#DDEAF2" transform="translate(181,195)"/>
<path d="M0 0 C0.33 0 0.66 0 1 0 C3.66 8.44 3.66 8.44 1.62 13.06 C1.09 14.03 0.55 15 0 16 C-0.33 16 -0.66 16 -1 16 C-0.67 10.72 -0.34 5.44 0 0 Z " fill="#9BABBB" transform="translate(181,296)"/>
<path d="M0 0 C1.65 1.65 3.3 3.3 5 5 C4.67 5.99 4.34 6.98 4 8 C2.68 8.33 1.36 8.66 0 9 C0 6.03 0 3.06 0 0 Z " fill="#2B4261" transform="translate(203,192)"/>
<path d="M0 0 C0.33 0 0.66 0 1 0 C1.08 2.6 1.14 5.21 1.19 7.81 C1.21 8.55 1.24 9.29 1.26 10.05 C1.34 15.55 1.34 15.55 -0.51 18.01 C-1.25 18.5 -1.25 18.5 -2 19 C-2.3 12.5 -1.17 6.38 0 0 Z " fill="#BFCBD5" transform="translate(105,285)"/>
<path d="M0 0 C1.98 0 3.96 0 6 0 C6.33 0.66 6.66 1.32 7 2 C6.06 4.62 6.06 4.62 5 7 C3.29 5.38 1.63 3.71 0 2 C0 1.34 0 0.68 0 0 Z " fill="#274765" transform="translate(247,232)"/>
<path d="M0 0 C1.33 0.96 1.33 0.96 2.69 1.94 C5.69 3.81 7.55 4.59 11 5 C11 5.33 11 5.66 11 6 C6.18 6.24 2.54 5.45 -2 4 C-1.34 2.68 -0.68 1.36 0 0 Z " fill="#DDE5E8" transform="translate(160,115)"/>
<path d="M0 0 C3.3 0.99 6.6 1.98 10 3 C10 3.33 10 3.66 10 4 C5.84 4.08 2.05 3.98 -2 3 C-1.34 2.67 -0.68 2.34 0 2 C0 1.34 0 0.68 0 0 Z " fill="#A1B4C9" transform="translate(302,233)"/>
<path d="M0 0 C0.99 0.33 1.98 0.66 3 1 C3 1.66 3 2.32 3 3 C3.66 3 4.32 3 5 3 C5 3.66 5 4.32 5 5 C6.32 5.33 7.64 5.66 9 6 C9 6.66 9 7.32 9 8 C2.18 6.03 2.18 6.03 0 3 C0 2.01 0 1.02 0 0 Z " fill="#2B5472" transform="translate(186,228)"/>
<path d="M0 0 C0.33 0 0.66 0 1 0 C1.21 5.79 0.59 10.43 -1 16 C-1.33 16 -1.66 16 -2 16 C-2.2 10.26 -2.27 5.39 0 0 Z " fill="#CAD1D5" transform="translate(119,168)"/>
<path d="M0 0 C0 4 -1.73 5.8 -4 9 C-5.32 8.67 -6.64 8.34 -8 8 C-5.36 5.36 -2.72 2.72 0 0 Z " fill="#306075" transform="translate(171,258)"/>
<path d="M0 0 C3.47 1.49 3.47 1.49 7 3 C6.34 3.66 5.68 4.32 5 5 C4.34 4.67 3.68 4.34 3 4 C2.67 4.99 2.34 5.98 2 7 C0 4 0 4 0 0 Z " fill="#314A64" transform="translate(241,243)"/>
<path d="M0 0 C2.97 0 5.94 0 9 0 C9 1.32 9 2.64 9 4 C6.03 3.01 3.06 2.02 0 1 C0 0.67 0 0.34 0 0 Z " fill="#213C56" transform="translate(191,103)"/>
<path d="M0 0 C0.66 0.33 1.32 0.66 2 1 C-0.47 5.45 -0.47 5.45 -3 10 C-3.66 9.34 -4.32 8.68 -5 8 C-3.35 5.36 -1.7 2.72 0 0 Z " fill="#D9ECF4" transform="translate(128,259)"/>
<path d="M0 0 C0.66 0 1.32 0 2 0 C0.75 3.46 -0.68 6.15 -3 9 C-3 7.02 -3 5.04 -3 3 C-2.01 2.67 -1.02 2.34 0 2 C0 1.34 0 0.68 0 0 Z " fill="#D6ECF3" transform="translate(133,250)"/>
<path d="M0 0 C3.37 1.39 4.99 2.98 7 6 C4.62 5.81 4.62 5.81 2 5 C0.69 2.44 0.69 2.44 0 0 Z " fill="#20384C" transform="translate(222,257)"/>
<path d="M0 0 C0.6 0.21 1.2 0.41 1.81 0.62 C0.82 0.62 -0.17 0.62 -1.19 0.62 C-1.19 1.28 -1.19 1.94 -1.19 2.62 C-1.85 2.62 -2.51 2.62 -3.19 2.62 C-3.19 3.28 -3.19 3.94 -3.19 4.62 C-3.85 4.62 -4.51 4.62 -5.19 4.62 C-5.52 5.61 -5.85 6.61 -6.19 7.62 C-5.88 4.75 -5.88 4.75 -5.19 1.62 C-2.19 -0.38 -2.19 -0.38 0 0 Z " fill="#2C4155" transform="translate(165.1875,104.375)"/>
</svg>
