<svg xmlns="http://www.w3.org/2000/svg" width="400" height="400" fill="none" viewBox="0 0 400 400"><path fill="#4a21ef" d="M175.358 0a45.9 45.9 0 0 0-32.457 13.445L7.682 148.666A26.15 26.15 0 0 0 0 167.213a26.15 26.15 0 0 0 7.682 18.547l88.613 88.613V117.495c0-11.707 9.417-21.198 21.124-21.198h186.282L399.996 0zM96.3 303.703h186.207c11.707 0 21.198-9.491 21.198-21.199V125.626l88.613 88.614A26.15 26.15 0 0 1 400 232.787a26.15 26.15 0 0 1-7.682 18.547L257.099 386.555A45.9 45.9 0 0 1 224.642 400L.004 399.998z"/></svg>