<svg xmlns="http://www.w3.org/2000/svg" viewBox="0 0 84.7 160.69"><defs><style>.a,.b{stroke:#000;stroke-miterlimit:10}</style></defs><g id="Layer_1-2"><path d="M58.9 7.71c3.7-2 7.3-4.1 11-6.3 4.2-2.6 7.2.9 12 3.8 2.5 1.5 2.1 3.4 2.1 6.6 0 25.8 0 58.8.2 99 0 5.3-2.2 9.4-6.8 12-14.1 8.4-34 20-59.8 35-3.3 1.9-5 3.4-8.2 1.5-3-1.8-4.9-2.9-5.6-3.4-2.5-1.5-3.2-2.5-3.2-5.4 0-22 0-55.7-.1-101.2 0-4.5 2.1-8.2 6.3-10.9s8.5-5.2 12.9-7.6c.6-.3 1-.9 1.2-1.6 1.5-6.8 9.1-5.4 10.1-11.9 1-6.4 4.4-12 10.5-14 3.4-1.1 7.5 2.8 9.8 3.9.4.2.9.2 1.3 0 1.8-1 3.5-.9 4.9.2.4.3.9.3 1.2.1zm5.3 4.8c0 .3.4.5.6.3L77 5.41c.3-.2.3-.7 0-.9l-3.2-1.8c-.7-.4-1.6-.4-2.4 0l-10.2 6.2c-.2.1-.2.5 0 .6 1.8 1.2 2.8 2.2 2.9 3zm-36.5 20.3c1.2-4.2 3.5-5.1 7.3-7.5.3-.2.5-.4.7-.7.9-1.2 1.3-2.2 1.4-3.1.7-6.6 3.7-11.3 9-14 .4-.2.4-.8 0-1l-2.2-.9c-.7-.3-1.5-.3-2.2 0-5.2 2.1-7.6 7.1-8.4 12.5-.7 5.1-5.6 6.2-7.9 8-1 .8-1.8 2-2.3 3.8 0 .2 0 .5.2.6l3.9 2.5c.1 0 .3 0 .3-.1zm36.8-12.7c0 .2.2.3.3.2l11.6-6.7c.8-.5 1.8.1 1.8 1v100.3c0 .4-.2.8-.6 1l-62 35.8c-.7.4-1.6 0-1.6-.9v-99.9c0-.5.3-.9.7-1.1l12.8-7.4c.1 0 .2-.2.2-.3v-4.5c0-.1-.2-.2-.3-.2-3.5 2.1-6.6 3.8-9.2 5.3-5 2.7-8.1 5.5-8.1 11.2v102.1c0 1.1.9 2 2 2 .8 0 1.7-.2 2.5-.8 15.7-9.3 36.3-21.3 61.8-36.2 4.7-2.8 5.6-6.9 5.6-12.5 0-31.8-.2-65-.3-99.7 0-2-2.5-2-3.8-1.2-3.8 2.2-8.3 4.9-13.3 7.9-.1 0-.2.2-.2.3v4.4zm-5.8-9.3c-1.6-1.2-2.8-1.8-3.4-1.8-.9 0-1.6.9-1.1 1.7.3.5.4 1.2.4 2s.4.6.7.5l3.3-1.5c.3-.2.4-.6 0-.8zm-28.6 35 31.8-18.4c.3-.2.5-.5.5-.8v-12.8c0-.8-.9-1.3-1.6-1-4.1 2.2-7.8 5.3-8.7-1.8 0-.3-.2-.6-.4-.8-3.7-3.4-8.7 1.8-10.5 5-2.5 4.3-.7 10-6.2 12.7-3.2 1.6-5.2 2.9-5.1 7v10.7c0 .2.2.3.4.2zm-2.4-.6c0-.2-.2-.4-.4-.2l-10.6 6.1c-.4.2-.6.6-.6 1.1v96.4c0 .2.2.3.3.2l59.1-34.1c.3-.2.5-.5.5-.8v-97c0-.2-.2-.3-.3-.2l-10.6 6.1c-.3.2-.5.5-.5.9v4.1c0 .5-.2.9-.6 1.1l-35 20.2c-.6.3-1.3 0-1.3-.8zm-18.5 2.4c.1 0 .3 0 .4-.1 1-2.1 2.3-3.6 4-4.6 3.9-2.3 8.2-4.9 13-7.6.1 0 .1-.2 0-.3l-4.4-2.5h-.6c-6.7 3.7-11.1 6.2-13.2 7.6-1.5.9-2.8 2.3-4.1 4.1v.4l4.8 3zm-1.1 107.5c0-35 0-68.1-.2-99.5 0-2.7.2-4.3.6-4.9.3-.4.2-.9-.2-1.2l-4.2-2.8c-.5-.3-1.1 0-1.1.6v104.1c0 .6.3 1.1.8 1.5l3.6 2.6c.4.3.9 0 .9-.4z" class="b"/><path d="M48.7 13.11c1.6.9 1.8 3.7.4 6.2s-3.9 3.7-5.5 2.8-1.8-3.7-.4-6.2 3.9-3.7 5.5-2.8Zm-1.2 1.8c-.6-.3-1.7.6-2.4 1.9-.7 1.4-.8 2.8-.2 3.1s1.7-.6 2.4-1.9c.7-1.4.8-2.8.2-3.1Z" class="b"/><rect width="34.4" height="2.2" x="37.81" y="49.09" rx="1.1" ry="1.1" style="stroke:#000;stroke-miterlimit:10" transform="rotate(-30.3 55.008 50.194)"/><path d="M28.7 64.71c.2.1.5 0 .6-.1l7-12.1c.2-.3.6-.4.9-.2l.4.3c.4.3.5.9.2 1.3l-7.6 13.2c-.3.5-.9.6-1.3.3l-2.6-1.7c-.5-.3-.7-.9-.5-1.4v-.3c.2-.5.8-.7 1.2-.4z" class="b"/><path d="M24.7 71.31c0 .4.4.6.8.4l7.2-4.2c.5-.3.9-.9.8-1.5l-.2-2.3c0-.6.3-1.2.9-1.4h.3c.5-.2 1 .1 1 .6v4.3c0 .7-.4 1.3-1 1.7l-9.6 5.6c-1 .6-2.3-.2-2.3-1.3v-10.8c0-.9.5-1.7 1.2-2.1l7.2-4.2c.4-.2.8 0 .8.5v.4c0 .5-.4 1-.9 1.3l-5.7 3.4c-.4.2-.6.6-.6 1v8.5z" class="b"/><rect width="34.5" height="2.2" x="37.83" y="68.81" class="a" rx="1.1" ry="1.1" transform="rotate(-30.2 55.071 69.907)"/><path d="M28.7 84.71c.2.1.5 0 .6-.2l7.1-12.5c.2-.3.6-.4.9-.2l.4.3c.4.3.5.9.2 1.3l-7.7 13.5c-.3.5-.9.6-1.3.3l-2.7-1.7c-.5-.3-.7-.9-.5-1.5v-.3c.2-.5.8-.7 1.2-.4l1.8 1.1z" class="b"/><path d="M24.8 83.31v7.6c0 .5.5.8 1 .6l7.3-4.2c.3-.2.5-.5.5-.9v-2.9c0-.4.3-.8.7-1l.3-.2c.5-.2 1.1.1 1.1.7v4c0 .8-.5 1.6-1.2 2l-9.3 5.3c-1.1.6-2.5-.2-2.5-1.5v-10.6c0-.8.5-1.6 1.3-2.1l6.9-3.9c.5-.3 1.1 0 1.1.6v.3c0 .5-.2 1-.6 1.2l-5.3 3c-.7.4-1.2 1.2-1.2 2z" class="b"/><rect width="34.5" height="2.2" x="37.88" y="88.57" class="a" rx="1.1" ry="1.1" transform="rotate(-30.2 55.128 89.663)"/><path d="M23 112.41v-11c0-.6.3-1.1.8-1.4l9.5-5.5c1.1-.6 2.5.2 2.5 1.4v11c0 .6-.3 1.1-.8 1.4l-9.5 5.5c-1.1.6-2.5-.2-2.5-1.4Zm2.1-1.3c0 .2.3.4.5.3l7.9-4.6c.1 0 .2-.2.2-.3v-9.2c0-.2-.3-.4-.5-.3l-7.9 4.6c-.1 0-.2.2-.2.3z" class="b"/><rect width="34.5" height="2.2" x="37.92" y="108.36" rx="1.1" ry="1.1" style="stroke:#000;stroke-miterlimit:10" transform="rotate(-30.4 55.178 109.452)"/><path d="M23.1 132.11v-10.9c0-.6.3-1.2.8-1.5l9.4-5.4c1.1-.7 2.6.2 2.6 1.5v10.9c0 .6-.3 1.2-.8 1.5l-9.4 5.4c-1.1.7-2.6-.2-2.6-1.5Zm2.1-1.4c0 .2.3.4.5.3l7.9-4.6c.1 0 .2-.2.2-.3v-9c0-.2-.3-.4-.5-.3l-7.9 4.5c-.1 0-.2.2-.2.3z" class="b"/></g></svg>