<?xml version="1.0" encoding="UTF-8"?>
<svg id="Layer_2" data-name="Layer 2" xmlns="http://www.w3.org/2000/svg" viewBox="0 0 483.26 402.27">
  <g id="Layer_1-2" data-name="Layer 1">
    <g>
      <path d="M111.23,208.34l5.86,37.56-61.71,41.77c-18.73,12.68-22.16,40.66-12.35,56.85,11.49,18.97,39.38,27.65,58.91,14.51l69.8-46.97c11.44-7.7,20.57-24.29,20.01-36.41-1.51-32.5-36.09-30.1-27.11-73.66,16.26,3.17,37.26,11.63,47.26,26.28,25.45,37.28,19.6,83.23-16.31,108.19l-77.83,54.09c-33.13,23.02-77.13,9.86-101.45-19.94-23.01-28.21-22.62-76.03,7.55-102.17,26.98-23.39,57.38-41.16,87.4-60.11Z"/>
      <path d="M395,38.13c-27.25,13.23-49.62,31.55-74.31,47.34-21.44,13.71-36.33,43.81-18.63,66.23,11.37,14.4,21.34,28.2,13.05,50.8-23.94-8.47-45.89-24.04-53.52-50.56-8.83-30.68,1.14-67.29,27.95-85.9l77.79-54.01c33.34-23.15,79.38-11.2,102.42,21.43,21.15,29.95,18.3,79.96-14.45,102.7l-86.58,60.12-4.62-37.62,68.2-49.08c15.41-11.09,16.35-36.55,9.31-51.25-6.32-13.2-26.35-30.02-46.6-20.19Z"/>
      <path d="M225.45,313.94l9.85-35.74c31.34-2.68,56.69-22.26,74-47.8,21.2-31.28,19.31-64.23-6.23-93.12-7.11-8.04.58-29.71,9.72-38.17,40.31,24.92,56.7,72.45,42.71,117.29-7.29,23.38-22.54,43.08-39.66,59.81-23.84,24.1-52.48,40.14-90.4,37.74Z"/>
      <path d="M170.53,162.88c-38.63,66.65,10.49,97.22,14.4,109.08,2.36,7.17-3.62,23.09-10.34,29.05-60.79-27.95-68.58-100.94-35.37-161.04,5.77-10.44,18.95-14.03,27.37-7.72,10.01,7.51,10.87,18.65,3.93,30.63Z"/>
      <path d="M252.12,116.04c-6.45.79-27.9,1.27-38.7-.46-5.45-.87-10.99-14.65-9.91-20.05,1.09-5.41,9.75-15.93,15.53-15.98l49.28-.42-16.21,36.91Z"/>
    </g>
  </g>
</svg>